G04 EAGLE Gerber RS-274X export*
G75*
%MOMM*%
%FSLAX34Y34*%
%LPD*%
%INTop Copper*%
%IPPOS*%
%AMOC8*
5,1,8,0,0,1.08239X$1,22.5*%
G01*
%ADD10C,1.508000*%
%ADD11R,1.300000X1.500000*%
%ADD12R,1.590000X1.590000*%
%ADD13C,1.590000*%
%ADD14R,0.700000X1.200000*%
%ADD15C,1.498600*%
%ADD16C,1.879600*%
%ADD17C,1.524000*%
%ADD18R,1.500000X1.300000*%
%ADD19R,1.000000X0.900000*%
%ADD20R,0.550000X1.700000*%
%ADD21R,1.400000X1.000000*%
%ADD22R,2.000000X0.900000*%
%ADD23R,0.900000X2.000000*%
%ADD24R,1.330000X1.330000*%
%ADD25C,0.708000*%
%ADD26R,2.150000X0.950000*%
%ADD27R,2.150000X3.250000*%
%ADD28C,0.090000*%
%ADD29C,0.102500*%
%ADD30C,0.152400*%
%ADD31C,0.756400*%
%ADD32C,1.270000*%
%ADD33C,0.508000*%
%ADD34C,0.406400*%
G36*
X92087Y515621D02*
X92754Y516078D01*
X93190Y516760D01*
X93326Y517557D01*
X93140Y518344D01*
X92732Y518929D01*
X8455Y603206D01*
X7836Y604700D01*
X7836Y800908D01*
X8455Y802402D01*
X58841Y852788D01*
X59287Y853462D01*
X59436Y854225D01*
X59436Y867571D01*
X59275Y868364D01*
X58818Y869031D01*
X58182Y869448D01*
X58133Y869468D01*
X55468Y872133D01*
X54026Y875616D01*
X54026Y879385D01*
X55468Y882867D01*
X58133Y885532D01*
X61616Y886974D01*
X65385Y886974D01*
X68867Y885532D01*
X71532Y882867D01*
X71552Y882818D01*
X72004Y882148D01*
X72681Y881707D01*
X73429Y881564D01*
X100275Y881564D01*
X101068Y881725D01*
X101712Y882159D01*
X140898Y921345D01*
X141344Y922019D01*
X141493Y922814D01*
X141319Y923604D01*
X140851Y924264D01*
X140163Y924689D01*
X139461Y924814D01*
X84339Y924814D01*
X83546Y924653D01*
X82902Y924219D01*
X70477Y911795D01*
X70031Y911120D01*
X69883Y910325D01*
X70056Y909535D01*
X70477Y908921D01*
X71532Y907867D01*
X72974Y904385D01*
X72974Y900616D01*
X71532Y897133D01*
X68867Y894468D01*
X65385Y893026D01*
X61616Y893026D01*
X58133Y894468D01*
X55468Y897133D01*
X54026Y900616D01*
X54026Y904385D01*
X55468Y907867D01*
X58133Y910532D01*
X61616Y911974D01*
X63349Y911974D01*
X64142Y912135D01*
X64786Y912569D01*
X66774Y914557D01*
X67221Y915231D01*
X67369Y916026D01*
X67196Y916816D01*
X66728Y917476D01*
X66040Y917901D01*
X65337Y918026D01*
X61616Y918026D01*
X58133Y919468D01*
X55468Y922133D01*
X54026Y925616D01*
X54026Y929385D01*
X55468Y932867D01*
X58133Y935532D01*
X61616Y936974D01*
X65385Y936974D01*
X68867Y935532D01*
X71532Y932867D01*
X72974Y929385D01*
X72974Y925663D01*
X73135Y924870D01*
X73592Y924203D01*
X74274Y923767D01*
X75071Y923632D01*
X75858Y923818D01*
X76443Y924226D01*
X81055Y928838D01*
X81502Y929512D01*
X81650Y930307D01*
X81477Y931097D01*
X81055Y931712D01*
X70336Y942431D01*
X69662Y942877D01*
X68899Y943026D01*
X54919Y943026D01*
X54026Y943919D01*
X54026Y961081D01*
X54919Y961974D01*
X72081Y961974D01*
X72974Y961081D01*
X72974Y947101D01*
X73135Y946308D01*
X73569Y945664D01*
X82902Y936331D01*
X83576Y935885D01*
X84339Y935736D01*
X151649Y935736D01*
X152442Y935897D01*
X153109Y936354D01*
X153544Y937036D01*
X153680Y937833D01*
X153526Y938546D01*
X153444Y938745D01*
X153444Y940855D01*
X154252Y942806D01*
X155744Y944298D01*
X157695Y945106D01*
X159805Y945106D01*
X161889Y944243D01*
X162331Y943950D01*
X163126Y943802D01*
X163916Y943975D01*
X164576Y944443D01*
X165001Y945131D01*
X165126Y945834D01*
X165126Y949437D01*
X165153Y949582D01*
X165126Y949705D01*
X165126Y955937D01*
X165153Y956082D01*
X165126Y956205D01*
X165126Y961681D01*
X166319Y962874D01*
X183448Y962874D01*
X183541Y962856D01*
X186244Y962856D01*
X219057Y930043D01*
X219731Y929596D01*
X220526Y929448D01*
X221316Y929622D01*
X221976Y930090D01*
X222401Y930778D01*
X222526Y931480D01*
X222526Y936437D01*
X222553Y936582D01*
X222526Y936705D01*
X222526Y942937D01*
X222553Y943082D01*
X222526Y943205D01*
X222526Y949437D01*
X222553Y949582D01*
X222526Y949705D01*
X222526Y954640D01*
X222365Y955433D01*
X221931Y956077D01*
X221510Y956498D01*
X221510Y958538D01*
X242290Y958538D01*
X242290Y956498D01*
X241869Y956077D01*
X241423Y955403D01*
X241274Y954640D01*
X241274Y949663D01*
X241247Y949518D01*
X241274Y949395D01*
X241274Y944118D01*
X241435Y943325D01*
X241892Y942658D01*
X242574Y942223D01*
X243306Y942086D01*
X261297Y942086D01*
X311502Y891881D01*
X312176Y891435D01*
X312939Y891286D01*
X314368Y891286D01*
X315161Y891447D01*
X315828Y891904D01*
X316263Y892586D01*
X316400Y893318D01*
X316400Y953000D01*
X496400Y953000D01*
X496400Y890000D01*
X337339Y890000D01*
X336546Y889839D01*
X335879Y889382D01*
X335443Y888701D01*
X335308Y887903D01*
X335494Y887116D01*
X335902Y886531D01*
X351536Y870897D01*
X351536Y805503D01*
X333519Y787486D01*
X333073Y786812D01*
X332924Y786049D01*
X332924Y783958D01*
X332695Y783613D01*
X332547Y782818D01*
X332721Y782028D01*
X332924Y781731D01*
X332924Y771258D01*
X332695Y770913D01*
X332547Y770118D01*
X332721Y769328D01*
X332924Y769031D01*
X332924Y758558D01*
X332695Y758213D01*
X332547Y757418D01*
X332721Y756628D01*
X332924Y756331D01*
X332924Y753618D01*
X333085Y752825D01*
X333542Y752158D01*
X334224Y751723D01*
X334956Y751586D01*
X336841Y751586D01*
X337633Y751747D01*
X338277Y752181D01*
X339894Y753798D01*
X341845Y754606D01*
X343955Y754606D01*
X345906Y753798D01*
X347398Y752306D01*
X348206Y750355D01*
X348206Y748245D01*
X347398Y746294D01*
X345906Y744802D01*
X343955Y743994D01*
X341845Y743994D01*
X339894Y744802D01*
X338277Y746419D01*
X337603Y746865D01*
X336841Y747014D01*
X334811Y747014D01*
X334018Y746853D01*
X333374Y746419D01*
X333142Y746187D01*
X332695Y745513D01*
X332547Y744718D01*
X332721Y743928D01*
X332924Y743631D01*
X332924Y733158D01*
X332695Y732813D01*
X332547Y732018D01*
X332721Y731228D01*
X332924Y730931D01*
X332924Y728218D01*
X333085Y727425D01*
X333542Y726758D01*
X334224Y726323D01*
X334956Y726186D01*
X336841Y726186D01*
X337633Y726347D01*
X338277Y726781D01*
X339894Y728398D01*
X341845Y729206D01*
X343955Y729206D01*
X345906Y728398D01*
X347398Y726906D01*
X348206Y724955D01*
X348206Y722845D01*
X347398Y720894D01*
X345814Y719310D01*
X345350Y718997D01*
X344908Y718320D01*
X344767Y717523D01*
X344946Y716735D01*
X345420Y716079D01*
X346111Y715660D01*
X346798Y715540D01*
X348488Y715540D01*
X348488Y703762D01*
X342210Y703762D01*
X342210Y714052D01*
X343283Y715125D01*
X343730Y715799D01*
X343878Y716594D01*
X343704Y717384D01*
X343237Y718044D01*
X342548Y718469D01*
X341846Y718594D01*
X341845Y718594D01*
X339894Y719402D01*
X338277Y721019D01*
X337603Y721465D01*
X336841Y721614D01*
X334811Y721614D01*
X334018Y721453D01*
X333374Y721019D01*
X333142Y720787D01*
X332695Y720113D01*
X332547Y719318D01*
X332721Y718528D01*
X332924Y718231D01*
X332924Y707869D01*
X332031Y706976D01*
X328168Y706976D01*
X327375Y706815D01*
X326708Y706358D01*
X326273Y705677D01*
X326136Y704944D01*
X326136Y704560D01*
X326297Y703767D01*
X326731Y703123D01*
X328348Y701506D01*
X329156Y699555D01*
X329156Y697445D01*
X328348Y695494D01*
X326856Y694002D01*
X324905Y693194D01*
X324595Y693194D01*
X323802Y693033D01*
X323135Y692576D01*
X322699Y691895D01*
X322564Y691097D01*
X322750Y690310D01*
X323158Y689725D01*
X425802Y587081D01*
X426476Y586635D01*
X427239Y586486D01*
X508947Y586486D01*
X518759Y576674D01*
X519433Y576227D01*
X520228Y576079D01*
X521018Y576253D01*
X521633Y576674D01*
X522940Y577982D01*
X526301Y579374D01*
X529939Y579374D01*
X533300Y577982D01*
X535872Y575410D01*
X537264Y572049D01*
X537264Y553171D01*
X535872Y549810D01*
X533300Y547238D01*
X529939Y545846D01*
X526301Y545846D01*
X522940Y547238D01*
X520368Y549810D01*
X518976Y553171D01*
X518976Y569149D01*
X518815Y569942D01*
X518381Y570586D01*
X515333Y573634D01*
X514659Y574081D01*
X513864Y574229D01*
X513074Y574056D01*
X512414Y573588D01*
X511989Y572900D01*
X511864Y572197D01*
X511864Y553171D01*
X510472Y549810D01*
X507900Y547238D01*
X504539Y545846D01*
X500901Y545846D01*
X497540Y547238D01*
X494968Y549810D01*
X493576Y553171D01*
X493576Y572049D01*
X494968Y575410D01*
X497540Y577982D01*
X497595Y578005D01*
X498266Y578457D01*
X498707Y579134D01*
X498849Y579931D01*
X498669Y580719D01*
X498196Y581375D01*
X497505Y581794D01*
X496818Y581914D01*
X483222Y581914D01*
X482430Y581753D01*
X481763Y581296D01*
X481327Y580615D01*
X481191Y579817D01*
X481377Y579030D01*
X481856Y578378D01*
X482445Y578005D01*
X482500Y577982D01*
X485072Y575410D01*
X486464Y572049D01*
X486464Y553171D01*
X485072Y549810D01*
X482500Y547238D01*
X479139Y545846D01*
X475501Y545846D01*
X472140Y547238D01*
X469568Y549810D01*
X468176Y553171D01*
X468176Y572049D01*
X469568Y575410D01*
X472140Y577982D01*
X472195Y578005D01*
X472866Y578457D01*
X473307Y579134D01*
X473449Y579931D01*
X473269Y580719D01*
X472796Y581375D01*
X472105Y581794D01*
X471418Y581914D01*
X457822Y581914D01*
X457030Y581753D01*
X456363Y581296D01*
X455927Y580615D01*
X455791Y579817D01*
X455977Y579030D01*
X456456Y578378D01*
X457045Y578005D01*
X457100Y577982D01*
X459672Y575410D01*
X461064Y572049D01*
X461064Y553171D01*
X459672Y549810D01*
X457100Y547238D01*
X453739Y545846D01*
X450101Y545846D01*
X446740Y547238D01*
X444168Y549810D01*
X442776Y553171D01*
X442776Y572049D01*
X444168Y575410D01*
X446740Y577982D01*
X446795Y578005D01*
X447466Y578457D01*
X447907Y579134D01*
X448049Y579931D01*
X447869Y580719D01*
X447396Y581375D01*
X446705Y581794D01*
X446018Y581914D01*
X432422Y581914D01*
X431630Y581753D01*
X430963Y581296D01*
X430527Y580615D01*
X430391Y579817D01*
X430577Y579030D01*
X431056Y578378D01*
X431645Y578005D01*
X431700Y577982D01*
X434272Y575410D01*
X435664Y572049D01*
X435664Y553171D01*
X434272Y549810D01*
X431700Y547238D01*
X428339Y545846D01*
X424701Y545846D01*
X421340Y547238D01*
X418768Y549810D01*
X417376Y553171D01*
X417376Y572049D01*
X418768Y575410D01*
X421340Y577982D01*
X423548Y578896D01*
X424218Y579348D01*
X424659Y580026D01*
X424801Y580822D01*
X424622Y581611D01*
X424207Y582210D01*
X296164Y710253D01*
X296164Y750247D01*
X309281Y763364D01*
X309727Y764038D01*
X309876Y764801D01*
X309876Y769042D01*
X310105Y769387D01*
X310253Y770182D01*
X310079Y770972D01*
X309876Y771269D01*
X309876Y771899D01*
X309715Y772692D01*
X309281Y773336D01*
X307468Y775149D01*
X306794Y775595D01*
X306031Y775744D01*
X303745Y775744D01*
X301794Y776552D01*
X300302Y778044D01*
X299494Y779995D01*
X299494Y782105D01*
X300302Y784056D01*
X301794Y785548D01*
X303745Y786356D01*
X305855Y786356D01*
X307066Y785854D01*
X307860Y785700D01*
X308651Y785867D01*
X309315Y786330D01*
X309745Y787014D01*
X309876Y787732D01*
X309876Y794442D01*
X310105Y794787D01*
X310253Y795582D01*
X310079Y796372D01*
X309876Y796669D01*
X309876Y807142D01*
X310105Y807487D01*
X310253Y808282D01*
X310079Y809072D01*
X309876Y809369D01*
X309876Y819842D01*
X310105Y820187D01*
X310253Y820982D01*
X310079Y821772D01*
X309876Y822069D01*
X309876Y832542D01*
X310105Y832887D01*
X310253Y833682D01*
X310079Y834472D01*
X309876Y834769D01*
X309876Y845242D01*
X310105Y845587D01*
X310253Y846382D01*
X310079Y847172D01*
X309876Y847469D01*
X309876Y857942D01*
X310105Y858287D01*
X310253Y859082D01*
X310079Y859872D01*
X309773Y860319D01*
X309715Y860605D01*
X309258Y861272D01*
X308577Y861707D01*
X307844Y861844D01*
X297688Y861844D01*
X296895Y861683D01*
X296228Y861226D01*
X295793Y860545D01*
X295656Y859812D01*
X295656Y811327D01*
X280873Y796544D01*
X249172Y796544D01*
X248379Y796383D01*
X247712Y795926D01*
X247277Y795245D01*
X247140Y794512D01*
X247140Y788162D01*
X237338Y788162D01*
X237338Y777360D01*
X230548Y777360D01*
X229318Y778590D01*
X228644Y779036D01*
X227849Y779184D01*
X227059Y779011D01*
X226445Y778590D01*
X226231Y778376D01*
X224688Y778376D01*
X223895Y778215D01*
X223228Y777758D01*
X222793Y777077D01*
X222656Y776344D01*
X222656Y773056D01*
X222817Y772263D01*
X223274Y771596D01*
X223956Y771161D01*
X224688Y771024D01*
X226231Y771024D01*
X226445Y770811D01*
X227119Y770364D01*
X227914Y770216D01*
X228704Y770389D01*
X229318Y770811D01*
X230548Y772040D01*
X237338Y772040D01*
X237338Y751960D01*
X230548Y751960D01*
X229318Y753190D01*
X228644Y753636D01*
X227849Y753784D01*
X227059Y753611D01*
X226445Y753190D01*
X226231Y752976D01*
X224688Y752976D01*
X223895Y752815D01*
X223228Y752358D01*
X222793Y751677D01*
X222656Y750944D01*
X222656Y747656D01*
X222817Y746863D01*
X223274Y746196D01*
X223956Y745761D01*
X224688Y745624D01*
X226231Y745624D01*
X226445Y745411D01*
X227119Y744964D01*
X227914Y744816D01*
X228704Y744989D01*
X229318Y745411D01*
X230548Y746640D01*
X237338Y746640D01*
X237338Y726560D01*
X230548Y726560D01*
X229318Y727790D01*
X228644Y728236D01*
X227849Y728384D01*
X227059Y728211D01*
X226445Y727790D01*
X226231Y727576D01*
X211969Y727576D01*
X211076Y728469D01*
X211076Y744731D01*
X211969Y745624D01*
X213512Y745624D01*
X214305Y745785D01*
X214972Y746242D01*
X215407Y746924D01*
X215544Y747656D01*
X215544Y750944D01*
X215383Y751737D01*
X214926Y752404D01*
X214245Y752839D01*
X213512Y752976D01*
X211969Y752976D01*
X210860Y754084D01*
X210458Y754672D01*
X209777Y755107D01*
X209044Y755244D01*
X207990Y755244D01*
X207197Y755083D01*
X206553Y754649D01*
X206206Y754302D01*
X204255Y753494D01*
X202145Y753494D01*
X200194Y754302D01*
X199931Y754565D01*
X199257Y755012D01*
X198462Y755160D01*
X197672Y754987D01*
X197057Y754565D01*
X196768Y754276D01*
X182532Y754276D01*
X181376Y755432D01*
X181376Y762168D01*
X182532Y763324D01*
X196768Y763324D01*
X197057Y763035D01*
X197731Y762588D01*
X198526Y762440D01*
X199316Y762613D01*
X199931Y763035D01*
X200194Y763298D01*
X202145Y764106D01*
X204255Y764106D01*
X206206Y763298D01*
X206553Y762951D01*
X207227Y762505D01*
X207990Y762356D01*
X209044Y762356D01*
X209837Y762517D01*
X210504Y762974D01*
X210939Y763656D01*
X211076Y764388D01*
X211076Y770131D01*
X211969Y771024D01*
X213512Y771024D01*
X214305Y771185D01*
X214972Y771642D01*
X215407Y772324D01*
X215544Y773056D01*
X215544Y776344D01*
X215383Y777137D01*
X214926Y777804D01*
X214245Y778239D01*
X213512Y778376D01*
X211969Y778376D01*
X211076Y779269D01*
X211076Y795531D01*
X211969Y796424D01*
X222253Y796424D01*
X223046Y796585D01*
X223690Y797019D01*
X223893Y797222D01*
X223950Y797308D01*
X230298Y803656D01*
X277085Y803656D01*
X277878Y803817D01*
X278522Y804251D01*
X287949Y813678D01*
X288395Y814352D01*
X288544Y815115D01*
X288544Y859812D01*
X288383Y860605D01*
X287926Y861272D01*
X287245Y861707D01*
X286512Y861844D01*
X285327Y861844D01*
X231040Y916131D01*
X230366Y916577D01*
X229603Y916726D01*
X223719Y916726D01*
X223402Y917043D01*
X222728Y917489D01*
X221965Y917638D01*
X221404Y917638D01*
X187343Y951699D01*
X186669Y952146D01*
X185874Y952294D01*
X185084Y952121D01*
X184424Y951653D01*
X183999Y950965D01*
X183874Y950263D01*
X183874Y949663D01*
X183847Y949518D01*
X183874Y949395D01*
X183874Y943163D01*
X183847Y943018D01*
X183874Y942895D01*
X183874Y936663D01*
X183847Y936518D01*
X183874Y936395D01*
X183874Y930163D01*
X183847Y930018D01*
X183874Y929895D01*
X183874Y923663D01*
X183847Y923518D01*
X183874Y923395D01*
X183874Y917919D01*
X182681Y916726D01*
X176896Y916726D01*
X176118Y916571D01*
X175308Y916236D01*
X148125Y916236D01*
X147332Y916075D01*
X146688Y915641D01*
X105102Y874055D01*
X103608Y873436D01*
X73429Y873436D01*
X72636Y873275D01*
X71969Y872818D01*
X71552Y872182D01*
X71532Y872133D01*
X68867Y869468D01*
X68818Y869448D01*
X68148Y868996D01*
X67707Y868319D01*
X67564Y867571D01*
X67564Y850972D01*
X67725Y850180D01*
X68159Y849536D01*
X93409Y824285D01*
X93783Y823383D01*
X94224Y822724D01*
X94528Y822419D01*
X95202Y821973D01*
X95965Y821824D01*
X105531Y821824D01*
X106424Y820931D01*
X106424Y818896D01*
X106585Y818103D01*
X107042Y817436D01*
X107724Y817001D01*
X108006Y816948D01*
X109702Y816245D01*
X124628Y801319D01*
X125302Y800873D01*
X126065Y800724D01*
X131131Y800724D01*
X132024Y799831D01*
X132024Y786569D01*
X131131Y785676D01*
X122869Y785676D01*
X121976Y786569D01*
X121976Y791635D01*
X121815Y792428D01*
X121381Y793072D01*
X109541Y804912D01*
X108867Y805359D01*
X108072Y805507D01*
X107282Y805333D01*
X106667Y804912D01*
X105531Y803776D01*
X104496Y803776D01*
X103703Y803615D01*
X103036Y803158D01*
X102601Y802477D01*
X102464Y801744D01*
X102464Y793306D01*
X102625Y792513D01*
X103082Y791846D01*
X103711Y791444D01*
X104774Y790381D01*
X104774Y779619D01*
X103881Y778726D01*
X81119Y778726D01*
X80226Y779619D01*
X80226Y790381D01*
X81119Y791274D01*
X92185Y791274D01*
X92978Y791435D01*
X93622Y791869D01*
X93741Y791988D01*
X94187Y792662D01*
X94336Y793425D01*
X94336Y801744D01*
X94175Y802537D01*
X93718Y803204D01*
X93037Y803639D01*
X92304Y803776D01*
X91269Y803776D01*
X91055Y803989D01*
X90381Y804436D01*
X89586Y804584D01*
X88796Y804411D01*
X88182Y803990D01*
X86952Y802760D01*
X80162Y802760D01*
X80162Y823221D01*
X79568Y823221D01*
X79914Y823458D01*
X80350Y824140D01*
X80485Y824937D01*
X80299Y825724D01*
X79891Y826309D01*
X63311Y842890D01*
X62636Y843336D01*
X61841Y843484D01*
X61051Y843311D01*
X60437Y842890D01*
X16559Y799012D01*
X16113Y798338D01*
X15964Y797575D01*
X15964Y608033D01*
X16125Y607240D01*
X16559Y606596D01*
X100496Y522659D01*
X101170Y522213D01*
X101933Y522064D01*
X118024Y522064D01*
X118816Y522225D01*
X119483Y522682D01*
X119919Y523364D01*
X120055Y524161D01*
X119869Y524948D01*
X119461Y525533D01*
X31044Y613950D01*
X31044Y735655D01*
X30883Y736447D01*
X30449Y737091D01*
X30102Y737438D01*
X29294Y739389D01*
X29294Y741178D01*
X29133Y741971D01*
X28676Y742638D01*
X27995Y743073D01*
X27262Y743210D01*
X22698Y743210D01*
X21210Y744698D01*
X21210Y761238D01*
X47790Y761238D01*
X47790Y744698D01*
X46302Y743210D01*
X41938Y743210D01*
X41145Y743049D01*
X40478Y742592D01*
X40043Y741911D01*
X39906Y741178D01*
X39906Y739389D01*
X39098Y737438D01*
X38751Y737091D01*
X38305Y736417D01*
X38156Y735655D01*
X38156Y617737D01*
X38317Y616945D01*
X38751Y616300D01*
X122780Y532271D01*
X123455Y531825D01*
X124217Y531676D01*
X573332Y531676D01*
X574125Y531837D01*
X574792Y532294D01*
X575227Y532976D01*
X575364Y533708D01*
X575364Y545208D01*
X575203Y546000D01*
X574746Y546667D01*
X574110Y547085D01*
X573740Y547238D01*
X571168Y549810D01*
X569776Y553171D01*
X569776Y572049D01*
X571168Y575410D01*
X573740Y577982D01*
X574110Y578135D01*
X574780Y578587D01*
X575221Y579265D01*
X575364Y580012D01*
X575364Y593093D01*
X622966Y640695D01*
X623412Y641369D01*
X623561Y642164D01*
X623406Y642909D01*
X623283Y643206D01*
X623283Y646794D01*
X624656Y650108D01*
X627192Y652644D01*
X630506Y654017D01*
X634094Y654017D01*
X634391Y653894D01*
X635185Y653739D01*
X635976Y653906D01*
X636605Y654334D01*
X649003Y666732D01*
X649449Y667406D01*
X649598Y668169D01*
X649598Y834687D01*
X649437Y835479D01*
X648980Y836146D01*
X648299Y836582D01*
X647501Y836718D01*
X646714Y836531D01*
X646062Y836053D01*
X645689Y835464D01*
X644259Y832013D01*
X641187Y828941D01*
X637173Y827278D01*
X632827Y827278D01*
X628813Y828941D01*
X625741Y832013D01*
X624078Y836027D01*
X624078Y838697D01*
X623917Y839490D01*
X623483Y840134D01*
X599086Y864531D01*
X598412Y864977D01*
X597649Y865126D01*
X589801Y865126D01*
X589008Y864965D01*
X588364Y864531D01*
X578919Y855086D01*
X578473Y854412D01*
X578324Y853649D01*
X578324Y842069D01*
X577431Y841176D01*
X563963Y841176D01*
X563170Y841015D01*
X562503Y840558D01*
X562067Y839877D01*
X561932Y839079D01*
X562118Y838292D01*
X562526Y837707D01*
X564414Y835819D01*
X565088Y835373D01*
X565851Y835224D01*
X577431Y835224D01*
X578324Y834331D01*
X578324Y823069D01*
X577431Y822176D01*
X562169Y822176D01*
X561276Y823069D01*
X561276Y831649D01*
X561115Y832442D01*
X560681Y833086D01*
X559793Y833974D01*
X559119Y834421D01*
X558324Y834569D01*
X557534Y834396D01*
X556874Y833928D01*
X556449Y833240D01*
X556331Y832576D01*
X555431Y831676D01*
X552326Y831676D01*
X551534Y831515D01*
X550867Y831058D01*
X550431Y830377D01*
X550295Y829579D01*
X550449Y828866D01*
X551406Y826555D01*
X551406Y824445D01*
X550598Y822494D01*
X549106Y821002D01*
X547155Y820194D01*
X545045Y820194D01*
X544846Y820276D01*
X544052Y820431D01*
X543261Y820264D01*
X542597Y819801D01*
X542167Y819117D01*
X542036Y818399D01*
X542036Y812510D01*
X542197Y811717D01*
X542631Y811073D01*
X544248Y809456D01*
X545056Y807505D01*
X545056Y805395D01*
X544248Y803444D01*
X542756Y801952D01*
X540805Y801144D01*
X538695Y801144D01*
X536744Y801952D01*
X535252Y803444D01*
X534444Y805395D01*
X534444Y807505D01*
X535252Y809456D01*
X536869Y811073D01*
X537315Y811747D01*
X537464Y812510D01*
X537464Y823711D01*
X537303Y824504D01*
X536869Y825148D01*
X526455Y835562D01*
X525781Y836009D01*
X524986Y836157D01*
X524196Y835984D01*
X523536Y835516D01*
X523111Y834828D01*
X522986Y834125D01*
X522986Y818860D01*
X523147Y818067D01*
X523581Y817423D01*
X525198Y815806D01*
X526006Y813855D01*
X526006Y811745D01*
X525198Y809794D01*
X523706Y808302D01*
X521755Y807494D01*
X519645Y807494D01*
X517694Y808302D01*
X516153Y809844D01*
X515775Y810403D01*
X515098Y810845D01*
X514301Y810987D01*
X513513Y810807D01*
X512857Y810334D01*
X512537Y809833D01*
X511006Y808302D01*
X509055Y807494D01*
X506945Y807494D01*
X505734Y807996D01*
X504940Y808150D01*
X504149Y807983D01*
X503485Y807520D01*
X503055Y806836D01*
X502924Y806118D01*
X502924Y796658D01*
X502695Y796313D01*
X502547Y795518D01*
X502721Y794728D01*
X502924Y794431D01*
X502924Y791718D01*
X503085Y790925D01*
X503542Y790258D01*
X504224Y789823D01*
X504956Y789686D01*
X566097Y789686D01*
X607826Y747957D01*
X608500Y747511D01*
X609263Y747362D01*
X622129Y747362D01*
X622922Y747523D01*
X623589Y747980D01*
X624007Y748616D01*
X624656Y750184D01*
X627192Y752720D01*
X630506Y754093D01*
X634094Y754093D01*
X637408Y752720D01*
X639944Y750184D01*
X641317Y746870D01*
X641317Y743282D01*
X639944Y739968D01*
X637408Y737432D01*
X634094Y736059D01*
X630506Y736059D01*
X627192Y737432D01*
X624656Y739968D01*
X624007Y741536D01*
X623555Y742206D01*
X622877Y742648D01*
X622129Y742790D01*
X606527Y742790D01*
X564798Y784519D01*
X564124Y784965D01*
X563361Y785114D01*
X504811Y785114D01*
X504018Y784953D01*
X503374Y784519D01*
X503142Y784287D01*
X502695Y783613D01*
X502547Y782818D01*
X502721Y782028D01*
X502924Y781731D01*
X502924Y779018D01*
X503085Y778225D01*
X503542Y777558D01*
X504224Y777123D01*
X504956Y776986D01*
X527997Y776986D01*
X607064Y697919D01*
X607738Y697473D01*
X608501Y697324D01*
X622129Y697324D01*
X622922Y697485D01*
X623589Y697942D01*
X624007Y698578D01*
X624656Y700146D01*
X627192Y702682D01*
X630506Y704055D01*
X634094Y704055D01*
X637408Y702682D01*
X639944Y700146D01*
X641317Y696832D01*
X641317Y693244D01*
X639944Y689930D01*
X637408Y687394D01*
X634094Y686021D01*
X630506Y686021D01*
X627192Y687394D01*
X624656Y689930D01*
X624007Y691498D01*
X623555Y692168D01*
X622877Y692610D01*
X622129Y692752D01*
X605765Y692752D01*
X526698Y771819D01*
X526024Y772265D01*
X525261Y772414D01*
X504811Y772414D01*
X504018Y772253D01*
X503374Y771819D01*
X503142Y771587D01*
X502695Y770913D01*
X502547Y770118D01*
X502721Y769328D01*
X502924Y769031D01*
X502924Y766318D01*
X503085Y765525D01*
X503542Y764858D01*
X504224Y764423D01*
X504956Y764286D01*
X515297Y764286D01*
X606810Y672773D01*
X607484Y672327D01*
X608247Y672178D01*
X622129Y672178D01*
X622922Y672339D01*
X623589Y672796D01*
X624007Y673432D01*
X624656Y675000D01*
X627192Y677536D01*
X630506Y678909D01*
X634094Y678909D01*
X637408Y677536D01*
X639944Y675000D01*
X641317Y671686D01*
X641317Y668098D01*
X639944Y664784D01*
X637408Y662248D01*
X634094Y660875D01*
X630506Y660875D01*
X627192Y662248D01*
X624656Y664784D01*
X624007Y666352D01*
X623555Y667022D01*
X622877Y667464D01*
X622129Y667606D01*
X605511Y667606D01*
X535825Y737292D01*
X535151Y737739D01*
X534356Y737887D01*
X533566Y737714D01*
X532906Y737246D01*
X532481Y736558D01*
X532356Y735855D01*
X532356Y735545D01*
X531548Y733594D01*
X530056Y732102D01*
X528105Y731294D01*
X525819Y731294D01*
X525026Y731133D01*
X524382Y730699D01*
X503519Y709836D01*
X503073Y709162D01*
X502924Y708399D01*
X502924Y707869D01*
X502031Y706976D01*
X480769Y706976D01*
X479876Y707869D01*
X479876Y718242D01*
X480105Y718587D01*
X480253Y719382D01*
X480079Y720172D01*
X479658Y720787D01*
X479426Y721019D01*
X478752Y721465D01*
X477989Y721614D01*
X469610Y721614D01*
X468817Y721453D01*
X468173Y721019D01*
X466556Y719402D01*
X464605Y718594D01*
X464295Y718594D01*
X463502Y718433D01*
X462835Y717976D01*
X462399Y717295D01*
X462264Y716497D01*
X462450Y715710D01*
X462858Y715125D01*
X462864Y715119D01*
X463538Y714673D01*
X464301Y714524D01*
X468681Y714524D01*
X469574Y713631D01*
X469574Y692369D01*
X468681Y691476D01*
X458308Y691476D01*
X457963Y691705D01*
X457168Y691853D01*
X456378Y691679D01*
X455763Y691258D01*
X455712Y691206D01*
X455265Y690532D01*
X455117Y689737D01*
X455271Y688992D01*
X456156Y686855D01*
X456156Y684745D01*
X455348Y682794D01*
X453856Y681302D01*
X451905Y680494D01*
X449795Y680494D01*
X447844Y681302D01*
X446352Y682794D01*
X445544Y684745D01*
X445544Y686855D01*
X446429Y688992D01*
X446584Y689786D01*
X446416Y690577D01*
X445988Y691206D01*
X445937Y691258D01*
X445263Y691705D01*
X444468Y691853D01*
X443678Y691679D01*
X443381Y691476D01*
X432908Y691476D01*
X432563Y691705D01*
X431768Y691853D01*
X430978Y691679D01*
X430681Y691476D01*
X420208Y691476D01*
X419863Y691705D01*
X419068Y691853D01*
X418278Y691679D01*
X417981Y691476D01*
X407508Y691476D01*
X407163Y691705D01*
X406368Y691853D01*
X405578Y691679D01*
X405281Y691476D01*
X394808Y691476D01*
X394463Y691705D01*
X393668Y691853D01*
X392878Y691679D01*
X392581Y691476D01*
X382108Y691476D01*
X381763Y691705D01*
X380968Y691853D01*
X380178Y691679D01*
X379881Y691476D01*
X369408Y691476D01*
X369063Y691705D01*
X368268Y691853D01*
X367478Y691679D01*
X366863Y691258D01*
X366812Y691206D01*
X366365Y690532D01*
X366217Y689737D01*
X366371Y688992D01*
X367256Y686855D01*
X367256Y684745D01*
X366448Y682794D01*
X364956Y681302D01*
X363005Y680494D01*
X360895Y680494D01*
X358944Y681302D01*
X357452Y682794D01*
X356644Y684745D01*
X356644Y686855D01*
X356973Y687650D01*
X357128Y688444D01*
X356961Y689235D01*
X356498Y689899D01*
X355813Y690329D01*
X355096Y690460D01*
X350012Y690460D01*
X350012Y715540D01*
X354802Y715540D01*
X355223Y715119D01*
X355897Y714673D01*
X356660Y714524D01*
X367192Y714524D01*
X367537Y714295D01*
X368332Y714147D01*
X369122Y714321D01*
X369419Y714524D01*
X379892Y714524D01*
X380237Y714295D01*
X381032Y714147D01*
X381822Y714321D01*
X382119Y714524D01*
X392592Y714524D01*
X392937Y714295D01*
X393732Y714147D01*
X394522Y714321D01*
X394819Y714524D01*
X405292Y714524D01*
X405637Y714295D01*
X406432Y714147D01*
X407222Y714321D01*
X407519Y714524D01*
X417992Y714524D01*
X418337Y714295D01*
X419132Y714147D01*
X419922Y714321D01*
X420219Y714524D01*
X430692Y714524D01*
X431037Y714295D01*
X431832Y714147D01*
X432622Y714321D01*
X432919Y714524D01*
X443392Y714524D01*
X443737Y714295D01*
X444532Y714147D01*
X445322Y714321D01*
X445619Y714524D01*
X452087Y714524D01*
X452880Y714685D01*
X453547Y715142D01*
X453983Y715824D01*
X454118Y716621D01*
X453932Y717408D01*
X453524Y717993D01*
X447168Y724349D01*
X446494Y724795D01*
X445731Y724944D01*
X443445Y724944D01*
X441494Y725752D01*
X440002Y727244D01*
X439194Y729195D01*
X439194Y731305D01*
X440002Y733256D01*
X441494Y734748D01*
X443445Y735556D01*
X445555Y735556D01*
X447506Y734748D01*
X448998Y733256D01*
X449806Y731305D01*
X449806Y729019D01*
X449967Y728226D01*
X450401Y727582D01*
X454775Y723208D01*
X455449Y722761D01*
X456244Y722613D01*
X457034Y722786D01*
X457694Y723254D01*
X458119Y723942D01*
X458244Y724645D01*
X458244Y724955D01*
X459052Y726906D01*
X460544Y728398D01*
X462495Y729206D01*
X464885Y729206D01*
X465677Y729367D01*
X466344Y729824D01*
X466780Y730506D01*
X466915Y731303D01*
X466729Y732090D01*
X466321Y732675D01*
X465402Y733594D01*
X464594Y735545D01*
X464594Y737655D01*
X465402Y739606D01*
X466944Y741147D01*
X467503Y741525D01*
X467945Y742202D01*
X468087Y742999D01*
X467907Y743787D01*
X467434Y744443D01*
X466933Y744763D01*
X465402Y746294D01*
X464594Y748245D01*
X464594Y750355D01*
X465402Y752306D01*
X466894Y753798D01*
X468845Y754606D01*
X470955Y754606D01*
X472906Y753798D01*
X474523Y752181D01*
X475197Y751735D01*
X475960Y751586D01*
X477844Y751586D01*
X478637Y751747D01*
X479304Y752204D01*
X479739Y752886D01*
X479876Y753618D01*
X479876Y756342D01*
X480105Y756687D01*
X480253Y757482D01*
X480079Y758272D01*
X479876Y758569D01*
X479876Y769042D01*
X480105Y769387D01*
X480253Y770182D01*
X480079Y770972D01*
X479876Y771269D01*
X479876Y781742D01*
X480105Y782087D01*
X480253Y782882D01*
X480079Y783672D01*
X479876Y783969D01*
X479876Y794442D01*
X480105Y794787D01*
X480253Y795582D01*
X480079Y796372D01*
X479876Y796669D01*
X479876Y807142D01*
X480105Y807487D01*
X480253Y808282D01*
X480079Y809072D01*
X479876Y809369D01*
X479876Y819842D01*
X480105Y820187D01*
X480253Y820982D01*
X480079Y821772D01*
X479876Y822069D01*
X479876Y832542D01*
X480105Y832887D01*
X480253Y833682D01*
X480079Y834472D01*
X479876Y834769D01*
X479876Y845242D01*
X480105Y845587D01*
X480253Y846382D01*
X480079Y847172D01*
X479876Y847469D01*
X479876Y857942D01*
X480105Y858287D01*
X480253Y859082D01*
X480079Y859872D01*
X479876Y860169D01*
X479876Y870690D01*
X479715Y871483D01*
X479281Y872127D01*
X478860Y872548D01*
X478860Y877338D01*
X503940Y877338D01*
X503940Y872548D01*
X503519Y872127D01*
X503073Y871453D01*
X502924Y870690D01*
X502924Y866401D01*
X503085Y865608D01*
X503519Y864964D01*
X535807Y832676D01*
X536481Y832229D01*
X537276Y832081D01*
X538066Y832254D01*
X538726Y832722D01*
X539151Y833410D01*
X539276Y834113D01*
X539276Y843831D01*
X540169Y844724D01*
X554482Y844724D01*
X555275Y844885D01*
X555942Y845342D01*
X556377Y846024D01*
X556514Y846756D01*
X556514Y863094D01*
X556353Y863887D01*
X555896Y864554D01*
X555215Y864989D01*
X554482Y865126D01*
X550669Y865126D01*
X549776Y866019D01*
X549776Y880281D01*
X550708Y881213D01*
X551155Y881887D01*
X551303Y882682D01*
X551129Y883472D01*
X550708Y884087D01*
X549776Y885019D01*
X549776Y899281D01*
X550669Y900174D01*
X566931Y900174D01*
X567959Y899146D01*
X567985Y899020D01*
X568442Y898353D01*
X569124Y897917D01*
X569921Y897782D01*
X570708Y897968D01*
X571293Y898376D01*
X590024Y917107D01*
X590471Y917781D01*
X590619Y918576D01*
X590446Y919366D01*
X589978Y920026D01*
X589290Y920451D01*
X588587Y920576D01*
X578269Y920576D01*
X577376Y921469D01*
X577376Y922782D01*
X577215Y923575D01*
X576758Y924242D01*
X576077Y924677D01*
X575344Y924814D01*
X572006Y924814D01*
X571213Y924653D01*
X570546Y924196D01*
X570111Y923515D01*
X569974Y922782D01*
X569974Y917699D01*
X569081Y916806D01*
X554819Y916806D01*
X554605Y917019D01*
X553931Y917466D01*
X553136Y917614D01*
X552346Y917441D01*
X551732Y917020D01*
X550502Y915790D01*
X543712Y915790D01*
X543712Y935870D01*
X550502Y935870D01*
X551732Y934641D01*
X552406Y934194D01*
X553201Y934046D01*
X553991Y934219D01*
X554605Y934641D01*
X554819Y934854D01*
X558414Y934854D01*
X559207Y935015D01*
X559874Y935472D01*
X560310Y936154D01*
X560445Y936951D01*
X560292Y937664D01*
X559844Y938745D01*
X559844Y940855D01*
X560652Y942806D01*
X562269Y944423D01*
X562715Y945097D01*
X562864Y945860D01*
X562864Y957954D01*
X562703Y958747D01*
X562246Y959414D01*
X561565Y959849D01*
X560832Y959986D01*
X554819Y959986D01*
X553887Y960918D01*
X553213Y961365D01*
X552418Y961513D01*
X551628Y961339D01*
X551013Y960918D01*
X550081Y959986D01*
X535819Y959986D01*
X534926Y960879D01*
X534926Y977141D01*
X535819Y978034D01*
X537362Y978034D01*
X538155Y978195D01*
X538822Y978652D01*
X539257Y979334D01*
X539394Y980066D01*
X539394Y984927D01*
X539539Y985145D01*
X539687Y985940D01*
X539514Y986730D01*
X539046Y987390D01*
X538358Y987815D01*
X537655Y987940D01*
X30277Y987940D01*
X29485Y987779D01*
X28818Y987322D01*
X28382Y986641D01*
X28246Y985843D01*
X28368Y985213D01*
X29099Y983205D01*
X29248Y982884D01*
X29737Y982037D01*
X30310Y979900D01*
X30363Y979731D01*
X31520Y976553D01*
X31520Y967327D01*
X30363Y964149D01*
X30310Y963980D01*
X29737Y961843D01*
X29248Y960996D01*
X29099Y960675D01*
X28365Y958658D01*
X26985Y957014D01*
X26782Y956724D01*
X26293Y955877D01*
X24728Y954313D01*
X24609Y954182D01*
X22435Y951591D01*
X14445Y946978D01*
X11115Y946391D01*
X10942Y946353D01*
X8804Y945780D01*
X7826Y945780D01*
X7474Y945749D01*
X5360Y945376D01*
X3246Y945749D01*
X2894Y945780D01*
X1916Y945780D01*
X-222Y946353D01*
X-395Y946391D01*
X-3725Y946978D01*
X-7592Y949211D01*
X-8359Y949468D01*
X-9165Y949405D01*
X-9883Y949033D01*
X-10399Y948411D01*
X-10640Y947451D01*
X-10640Y555949D01*
X-10479Y555156D01*
X-10022Y554489D01*
X-9341Y554054D01*
X-8543Y553918D01*
X-7592Y554189D01*
X-3725Y556422D01*
X-395Y557009D01*
X-222Y557047D01*
X1916Y557620D01*
X2894Y557620D01*
X3246Y557651D01*
X5360Y558024D01*
X7474Y557651D01*
X7826Y557620D01*
X8804Y557620D01*
X10942Y557047D01*
X11115Y557009D01*
X14445Y556422D01*
X22435Y551809D01*
X24609Y549218D01*
X24728Y549087D01*
X26293Y547523D01*
X26782Y546676D01*
X26985Y546386D01*
X28365Y544742D01*
X29099Y542725D01*
X29248Y542404D01*
X29737Y541557D01*
X30310Y539420D01*
X30363Y539251D01*
X31520Y536073D01*
X31520Y526847D01*
X30363Y523669D01*
X30310Y523500D01*
X29737Y521363D01*
X29248Y520516D01*
X29099Y520195D01*
X28368Y518187D01*
X28248Y517387D01*
X28450Y516604D01*
X28941Y515961D01*
X29644Y515561D01*
X30277Y515460D01*
X91295Y515460D01*
X92087Y515621D01*
G37*
%LPC*%
G36*
X221510Y960062D02*
X221510Y962102D01*
X223298Y963890D01*
X231138Y963890D01*
X231138Y960062D01*
X221510Y960062D01*
G37*
G36*
X232662Y960062D02*
X232662Y963890D01*
X240502Y963890D01*
X242290Y962102D01*
X242290Y960062D01*
X232662Y960062D01*
G37*
G36*
X533910Y926592D02*
X533910Y934382D01*
X535398Y935870D01*
X542188Y935870D01*
X542188Y926592D01*
X533910Y926592D01*
G37*
G36*
X535398Y915790D02*
X533910Y917278D01*
X533910Y925068D01*
X542188Y925068D01*
X542188Y915790D01*
X535398Y915790D01*
G37*
G36*
X478860Y878862D02*
X478860Y883652D01*
X480348Y885140D01*
X490638Y885140D01*
X490638Y878862D01*
X478860Y878862D01*
G37*
G36*
X492162Y878862D02*
X492162Y885140D01*
X502452Y885140D01*
X503940Y883652D01*
X503940Y878862D01*
X492162Y878862D01*
G37*
G36*
X157862Y823360D02*
X157862Y837440D01*
X163152Y837440D01*
X164382Y836211D01*
X165056Y835764D01*
X165851Y835616D01*
X166641Y835789D01*
X167255Y836211D01*
X167555Y836510D01*
X167925Y836585D01*
X168592Y837042D01*
X169027Y837724D01*
X169164Y838456D01*
X169164Y846582D01*
X169003Y847375D01*
X168546Y848042D01*
X167865Y848477D01*
X167132Y848614D01*
X157156Y848614D01*
X156363Y848453D01*
X155696Y847996D01*
X155261Y847315D01*
X155124Y846582D01*
X155124Y841769D01*
X154264Y840909D01*
X153817Y840235D01*
X153669Y839440D01*
X153843Y838650D01*
X154311Y837990D01*
X154999Y837565D01*
X155701Y837440D01*
X156338Y837440D01*
X156338Y831162D01*
X149560Y831162D01*
X149560Y835952D01*
X151015Y837407D01*
X151462Y838081D01*
X151610Y838876D01*
X151436Y839666D01*
X150969Y840326D01*
X150280Y840751D01*
X149578Y840876D01*
X147469Y840876D01*
X146576Y841769D01*
X146576Y860031D01*
X147469Y860924D01*
X149578Y860924D01*
X150371Y861085D01*
X151038Y861542D01*
X151474Y862224D01*
X151609Y863021D01*
X151423Y863808D01*
X151015Y864393D01*
X149560Y865848D01*
X149560Y870638D01*
X156338Y870638D01*
X156338Y864360D01*
X155701Y864360D01*
X154908Y864199D01*
X154241Y863742D01*
X153806Y863061D01*
X153670Y862263D01*
X153856Y861476D01*
X154264Y860891D01*
X155124Y860031D01*
X155124Y855218D01*
X155285Y854425D01*
X155742Y853758D01*
X156424Y853323D01*
X157156Y853186D01*
X167132Y853186D01*
X167925Y853347D01*
X168592Y853804D01*
X169027Y854486D01*
X169164Y855218D01*
X169164Y863344D01*
X169003Y864137D01*
X168546Y864804D01*
X167865Y865239D01*
X167546Y865299D01*
X167255Y865589D01*
X166581Y866036D01*
X165786Y866184D01*
X164996Y866011D01*
X164382Y865590D01*
X163152Y864360D01*
X157862Y864360D01*
X157862Y878440D01*
X163152Y878440D01*
X164382Y877211D01*
X165056Y876764D01*
X165851Y876616D01*
X166641Y876789D01*
X167255Y877211D01*
X167469Y877424D01*
X177515Y877424D01*
X178307Y877585D01*
X178974Y878042D01*
X179392Y878678D01*
X179652Y879306D01*
X181144Y880798D01*
X183095Y881606D01*
X185205Y881606D01*
X187156Y880798D01*
X188648Y879306D01*
X189456Y877355D01*
X189456Y875245D01*
X188648Y873294D01*
X187156Y871802D01*
X185205Y870994D01*
X182919Y870994D01*
X182126Y870833D01*
X181482Y870399D01*
X180219Y869136D01*
X179773Y868462D01*
X179624Y867699D01*
X179624Y866269D01*
X178731Y865376D01*
X175768Y865376D01*
X174975Y865215D01*
X174308Y864758D01*
X173873Y864077D01*
X173736Y863344D01*
X173736Y838456D01*
X173897Y837663D01*
X174354Y836996D01*
X175036Y836561D01*
X175768Y836424D01*
X178731Y836424D01*
X179624Y835531D01*
X179624Y825269D01*
X178731Y824376D01*
X167469Y824376D01*
X167255Y824589D01*
X166581Y825036D01*
X165786Y825184D01*
X164996Y825011D01*
X164382Y824590D01*
X163152Y823360D01*
X157862Y823360D01*
G37*
G36*
X259295Y820194D02*
X257344Y821002D01*
X255852Y822494D01*
X255592Y823122D01*
X255140Y823792D01*
X254462Y824234D01*
X253715Y824376D01*
X243669Y824376D01*
X243455Y824589D01*
X242781Y825036D01*
X241986Y825184D01*
X241196Y825011D01*
X240582Y824590D01*
X239352Y823360D01*
X234062Y823360D01*
X234062Y837440D01*
X239352Y837440D01*
X240582Y836211D01*
X241256Y835764D01*
X242051Y835616D01*
X242841Y835789D01*
X243455Y836211D01*
X243755Y836510D01*
X244125Y836585D01*
X244792Y837042D01*
X245227Y837724D01*
X245364Y838456D01*
X245364Y846582D01*
X245203Y847375D01*
X244746Y848042D01*
X244065Y848477D01*
X243332Y848614D01*
X233356Y848614D01*
X232563Y848453D01*
X231896Y847996D01*
X231461Y847315D01*
X231324Y846582D01*
X231324Y841769D01*
X230464Y840909D01*
X230017Y840235D01*
X229869Y839440D01*
X230043Y838650D01*
X230511Y837990D01*
X231199Y837565D01*
X231901Y837440D01*
X232538Y837440D01*
X232538Y831162D01*
X225760Y831162D01*
X225760Y835952D01*
X227215Y837407D01*
X227662Y838081D01*
X227810Y838876D01*
X227636Y839666D01*
X227169Y840326D01*
X226480Y840751D01*
X225778Y840876D01*
X223669Y840876D01*
X222776Y841769D01*
X222776Y860031D01*
X223669Y860924D01*
X225778Y860924D01*
X226571Y861085D01*
X227238Y861542D01*
X227674Y862224D01*
X227809Y863021D01*
X227623Y863808D01*
X227215Y864393D01*
X225760Y865848D01*
X225760Y870638D01*
X232538Y870638D01*
X232538Y864360D01*
X231901Y864360D01*
X231108Y864199D01*
X230441Y863742D01*
X230006Y863061D01*
X229870Y862263D01*
X230056Y861476D01*
X230464Y860891D01*
X231324Y860031D01*
X231324Y855218D01*
X231485Y854425D01*
X231942Y853758D01*
X232624Y853323D01*
X233356Y853186D01*
X243332Y853186D01*
X244125Y853347D01*
X244792Y853804D01*
X245227Y854486D01*
X245364Y855218D01*
X245364Y863344D01*
X245203Y864137D01*
X244746Y864804D01*
X244065Y865239D01*
X243746Y865299D01*
X243455Y865589D01*
X242781Y866036D01*
X241986Y866184D01*
X241196Y866011D01*
X240582Y865590D01*
X239352Y864360D01*
X234062Y864360D01*
X234062Y878440D01*
X239352Y878440D01*
X240582Y877211D01*
X241256Y876764D01*
X242051Y876616D01*
X242841Y876789D01*
X243455Y877211D01*
X243669Y877424D01*
X254931Y877424D01*
X255824Y876531D01*
X255824Y866269D01*
X254931Y865376D01*
X251968Y865376D01*
X251175Y865215D01*
X250508Y864758D01*
X250073Y864077D01*
X249936Y863344D01*
X249936Y838456D01*
X250097Y837663D01*
X250554Y836996D01*
X251236Y836561D01*
X251968Y836424D01*
X254931Y836424D01*
X255824Y835531D01*
X255824Y834101D01*
X255985Y833308D01*
X256419Y832664D01*
X257682Y831401D01*
X258356Y830955D01*
X259119Y830806D01*
X261405Y830806D01*
X263356Y829998D01*
X264848Y828506D01*
X265656Y826555D01*
X265656Y824445D01*
X264848Y822494D01*
X263356Y821002D01*
X261405Y820194D01*
X259295Y820194D01*
G37*
G36*
X149560Y872162D02*
X149560Y876952D01*
X151048Y878440D01*
X156338Y878440D01*
X156338Y872162D01*
X149560Y872162D01*
G37*
G36*
X225760Y872162D02*
X225760Y876952D01*
X227248Y878440D01*
X232538Y878440D01*
X232538Y872162D01*
X225760Y872162D01*
G37*
G36*
X378812Y775560D02*
X378812Y785512D01*
X368860Y785512D01*
X368860Y792452D01*
X368896Y792488D01*
X369343Y793162D01*
X369491Y793957D01*
X369317Y794747D01*
X368896Y795362D01*
X368860Y795398D01*
X368860Y802338D01*
X378812Y802338D01*
X378812Y803862D01*
X368860Y803862D01*
X368860Y810802D01*
X368896Y810838D01*
X369343Y811512D01*
X369491Y812307D01*
X369317Y813097D01*
X368896Y813712D01*
X368860Y813748D01*
X368860Y820688D01*
X378812Y820688D01*
X378812Y830640D01*
X385752Y830640D01*
X385788Y830604D01*
X386462Y830157D01*
X387257Y830009D01*
X388047Y830183D01*
X388662Y830604D01*
X388698Y830640D01*
X395638Y830640D01*
X395638Y820688D01*
X397162Y820688D01*
X397162Y830640D01*
X404102Y830640D01*
X404138Y830604D01*
X404812Y830157D01*
X405607Y830009D01*
X406397Y830183D01*
X407012Y830604D01*
X407048Y830640D01*
X413988Y830640D01*
X413988Y820688D01*
X423940Y820688D01*
X423940Y813748D01*
X423904Y813712D01*
X423457Y813038D01*
X423309Y812243D01*
X423483Y811453D01*
X423904Y810838D01*
X423940Y810802D01*
X423940Y803862D01*
X413988Y803862D01*
X413988Y802338D01*
X423940Y802338D01*
X423940Y795398D01*
X423904Y795362D01*
X423457Y794688D01*
X423309Y793893D01*
X423483Y793103D01*
X423904Y792488D01*
X423940Y792452D01*
X423940Y785512D01*
X413988Y785512D01*
X413988Y775560D01*
X407048Y775560D01*
X407012Y775596D01*
X406338Y776043D01*
X405543Y776191D01*
X404753Y776017D01*
X404138Y775596D01*
X404102Y775560D01*
X397162Y775560D01*
X397162Y785512D01*
X395638Y785512D01*
X395638Y775560D01*
X388698Y775560D01*
X388662Y775596D01*
X387988Y776043D01*
X387193Y776191D01*
X386403Y776017D01*
X385788Y775596D01*
X385752Y775560D01*
X378812Y775560D01*
G37*
G36*
X368860Y822212D02*
X368860Y829152D01*
X370348Y830640D01*
X377288Y830640D01*
X377288Y822212D01*
X368860Y822212D01*
G37*
G36*
X415512Y822212D02*
X415512Y830640D01*
X422452Y830640D01*
X423940Y829152D01*
X423940Y822212D01*
X415512Y822212D01*
G37*
G36*
X227248Y823360D02*
X225760Y824848D01*
X225760Y829638D01*
X232538Y829638D01*
X232538Y823360D01*
X227248Y823360D01*
G37*
G36*
X151048Y823360D02*
X149560Y824848D01*
X149560Y829638D01*
X156338Y829638D01*
X156338Y823360D01*
X151048Y823360D01*
G37*
G36*
X70360Y813562D02*
X70360Y821352D01*
X71848Y822840D01*
X78454Y822840D01*
X78638Y822877D01*
X78638Y813562D01*
X70360Y813562D01*
G37*
G36*
X71848Y802760D02*
X70360Y804248D01*
X70360Y812038D01*
X78638Y812038D01*
X78638Y802760D01*
X71848Y802760D01*
G37*
G36*
X158832Y735276D02*
X158460Y735649D01*
X157785Y736095D01*
X157023Y736244D01*
X141927Y736244D01*
X130090Y748081D01*
X129416Y748527D01*
X128653Y748676D01*
X122869Y748676D01*
X121976Y749569D01*
X121976Y762831D01*
X122869Y763724D01*
X131131Y763724D01*
X132024Y762831D01*
X132024Y762296D01*
X132185Y761503D01*
X132642Y760836D01*
X133324Y760401D01*
X134056Y760264D01*
X144075Y760264D01*
X144868Y760425D01*
X145512Y760859D01*
X150098Y765445D01*
X151592Y766064D01*
X163558Y766064D01*
X163982Y765889D01*
X164776Y765734D01*
X165567Y765901D01*
X166196Y766329D01*
X168569Y768702D01*
X169015Y769376D01*
X169164Y770139D01*
X169164Y776344D01*
X169003Y777137D01*
X168546Y777804D01*
X167865Y778239D01*
X167132Y778376D01*
X161169Y778376D01*
X160276Y779269D01*
X160276Y795531D01*
X161169Y796424D01*
X175431Y796424D01*
X175645Y796211D01*
X176319Y795764D01*
X177114Y795616D01*
X177904Y795789D01*
X178518Y796211D01*
X179748Y797440D01*
X186538Y797440D01*
X186538Y777360D01*
X179748Y777360D01*
X178518Y778590D01*
X177844Y779036D01*
X177049Y779184D01*
X176259Y779011D01*
X175645Y778590D01*
X175345Y778290D01*
X174975Y778215D01*
X174308Y777758D01*
X173873Y777077D01*
X173736Y776344D01*
X173736Y767403D01*
X172799Y766466D01*
X172353Y765792D01*
X172204Y764997D01*
X172378Y764207D01*
X172799Y763593D01*
X174224Y762168D01*
X174224Y754946D01*
X174385Y754154D01*
X174819Y753509D01*
X175240Y753089D01*
X175240Y750062D01*
X156660Y750062D01*
X156660Y753089D01*
X157081Y753509D01*
X157527Y754184D01*
X157676Y754946D01*
X157676Y755904D01*
X157515Y756697D01*
X157058Y757364D01*
X156377Y757799D01*
X155644Y757936D01*
X154925Y757936D01*
X154132Y757775D01*
X153488Y757341D01*
X148902Y752755D01*
X147408Y752136D01*
X140999Y752136D01*
X140206Y751975D01*
X139539Y751518D01*
X139103Y750837D01*
X138968Y750039D01*
X139154Y749252D01*
X139562Y748667D01*
X144278Y743951D01*
X144952Y743505D01*
X145715Y743356D01*
X154628Y743356D01*
X155421Y743517D01*
X156088Y743974D01*
X156523Y744656D01*
X156660Y745388D01*
X156660Y748538D01*
X175240Y748538D01*
X175240Y745512D01*
X174819Y745091D01*
X174373Y744416D01*
X174224Y743654D01*
X174224Y736432D01*
X173068Y735276D01*
X158832Y735276D01*
G37*
G36*
X188062Y788162D02*
X188062Y797440D01*
X194852Y797440D01*
X196340Y795952D01*
X196340Y788162D01*
X188062Y788162D01*
G37*
G36*
X188062Y777360D02*
X188062Y786638D01*
X196340Y786638D01*
X196340Y778848D01*
X194852Y777360D01*
X188062Y777360D01*
G37*
G36*
X238862Y777360D02*
X238862Y786638D01*
X247140Y786638D01*
X247140Y778848D01*
X245652Y777360D01*
X238862Y777360D01*
G37*
G36*
X415512Y775560D02*
X415512Y783988D01*
X423940Y783988D01*
X423940Y777048D01*
X422452Y775560D01*
X415512Y775560D01*
G37*
G36*
X370348Y775560D02*
X368860Y777048D01*
X368860Y783988D01*
X377288Y783988D01*
X377288Y775560D01*
X370348Y775560D01*
G37*
G36*
X21210Y762762D02*
X21210Y779302D01*
X22698Y780790D01*
X33738Y780790D01*
X33738Y762762D01*
X21210Y762762D01*
G37*
G36*
X35262Y762762D02*
X35262Y780790D01*
X46302Y780790D01*
X47790Y779302D01*
X47790Y762762D01*
X35262Y762762D01*
G37*
G36*
X622267Y770730D02*
X622267Y771964D01*
X623794Y775651D01*
X626617Y778474D01*
X630304Y780001D01*
X631538Y780001D01*
X631538Y770730D01*
X622267Y770730D01*
G37*
G36*
X633062Y770730D02*
X633062Y780001D01*
X634296Y780001D01*
X637983Y778474D01*
X640806Y775651D01*
X642333Y771964D01*
X642333Y770730D01*
X633062Y770730D01*
G37*
G36*
X238862Y762762D02*
X238862Y772040D01*
X245652Y772040D01*
X247140Y770552D01*
X247140Y762762D01*
X238862Y762762D01*
G37*
G36*
X79210Y762762D02*
X79210Y767802D01*
X80698Y769290D01*
X91738Y769290D01*
X91738Y762762D01*
X79210Y762762D01*
G37*
G36*
X93262Y762762D02*
X93262Y769290D01*
X104302Y769290D01*
X105790Y767802D01*
X105790Y762762D01*
X93262Y762762D01*
G37*
G36*
X633062Y759935D02*
X633062Y769206D01*
X642333Y769206D01*
X642333Y767972D01*
X640806Y764285D01*
X637983Y761462D01*
X634296Y759935D01*
X633062Y759935D01*
G37*
G36*
X630304Y759935D02*
X626617Y761462D01*
X623794Y764285D01*
X622267Y767972D01*
X622267Y769206D01*
X631538Y769206D01*
X631538Y759935D01*
X630304Y759935D01*
G37*
G36*
X238862Y751960D02*
X238862Y761238D01*
X247140Y761238D01*
X247140Y753448D01*
X245652Y751960D01*
X238862Y751960D01*
G37*
G36*
X93262Y754710D02*
X93262Y761238D01*
X105790Y761238D01*
X105790Y756198D01*
X104302Y754710D01*
X93262Y754710D01*
G37*
G36*
X80698Y754710D02*
X79210Y756198D01*
X79210Y761238D01*
X91738Y761238D01*
X91738Y754710D01*
X80698Y754710D01*
G37*
G36*
X55347Y638236D02*
X52016Y639616D01*
X49466Y642166D01*
X48086Y645497D01*
X48086Y649103D01*
X49466Y652434D01*
X52016Y654984D01*
X54515Y656019D01*
X55174Y656460D01*
X84031Y685316D01*
X84477Y685991D01*
X84626Y686753D01*
X84626Y730694D01*
X84465Y731487D01*
X84008Y732154D01*
X83327Y732589D01*
X82594Y732726D01*
X81119Y732726D01*
X80226Y733619D01*
X80226Y744381D01*
X81119Y745274D01*
X86797Y745274D01*
X87589Y745435D01*
X87796Y745574D01*
X90934Y746874D01*
X94066Y746874D01*
X97224Y745566D01*
X97441Y745423D01*
X98203Y745274D01*
X103881Y745274D01*
X104774Y744381D01*
X104774Y733619D01*
X103881Y732726D01*
X102406Y732726D01*
X101613Y732565D01*
X100946Y732108D01*
X100511Y731427D01*
X100374Y730694D01*
X100374Y716026D01*
X100535Y715233D01*
X100992Y714566D01*
X101674Y714131D01*
X102406Y713994D01*
X114727Y713994D01*
X115520Y714155D01*
X116164Y714589D01*
X116719Y715144D01*
X130981Y715144D01*
X131195Y714931D01*
X131869Y714484D01*
X132664Y714336D01*
X133454Y714509D01*
X134068Y714931D01*
X135298Y716160D01*
X142088Y716160D01*
X142088Y696080D01*
X135298Y696080D01*
X134068Y697310D01*
X133394Y697756D01*
X132599Y697904D01*
X131809Y697731D01*
X131195Y697310D01*
X130981Y697096D01*
X116719Y697096D01*
X116164Y697651D01*
X115490Y698097D01*
X114727Y698246D01*
X102406Y698246D01*
X101613Y698085D01*
X100946Y697628D01*
X100511Y696947D01*
X100374Y696214D01*
X100374Y681084D01*
X99175Y678190D01*
X79628Y658643D01*
X79182Y657969D01*
X79033Y657174D01*
X79207Y656384D01*
X79675Y655724D01*
X80363Y655299D01*
X81065Y655174D01*
X179070Y655174D01*
X179848Y655329D01*
X182347Y656364D01*
X185953Y656364D01*
X189284Y654984D01*
X191834Y652434D01*
X193214Y649103D01*
X193214Y645497D01*
X191834Y642166D01*
X189284Y639616D01*
X185953Y638236D01*
X182347Y638236D01*
X179848Y639271D01*
X179070Y639426D01*
X62230Y639426D01*
X61452Y639271D01*
X58953Y638236D01*
X55347Y638236D01*
G37*
G36*
X238862Y737362D02*
X238862Y746640D01*
X245652Y746640D01*
X247140Y745152D01*
X247140Y737362D01*
X238862Y737362D01*
G37*
G36*
X182532Y735276D02*
X181376Y736432D01*
X181376Y743168D01*
X182532Y744324D01*
X196768Y744324D01*
X197924Y743168D01*
X197924Y736432D01*
X196768Y735276D01*
X182532Y735276D01*
G37*
G36*
X238862Y726560D02*
X238862Y735838D01*
X247140Y735838D01*
X247140Y728048D01*
X245652Y726560D01*
X238862Y726560D01*
G37*
G36*
X630506Y710913D02*
X627192Y712286D01*
X624656Y714822D01*
X623283Y718136D01*
X623283Y721724D01*
X624656Y725038D01*
X627192Y727574D01*
X630506Y728947D01*
X634094Y728947D01*
X637408Y727574D01*
X639944Y725038D01*
X641317Y721724D01*
X641317Y718136D01*
X639944Y714822D01*
X637408Y712286D01*
X634094Y710913D01*
X630506Y710913D01*
G37*
G36*
X143612Y706882D02*
X143612Y716160D01*
X150402Y716160D01*
X151890Y714672D01*
X151890Y706882D01*
X143612Y706882D01*
G37*
G36*
X143612Y696080D02*
X143612Y705358D01*
X151890Y705358D01*
X151890Y697568D01*
X150402Y696080D01*
X143612Y696080D01*
G37*
G36*
X343698Y690460D02*
X342210Y691948D01*
X342210Y702238D01*
X348488Y702238D01*
X348488Y690460D01*
X343698Y690460D01*
G37*
G36*
X212170Y598062D02*
X212170Y599305D01*
X213705Y603010D01*
X216540Y605845D01*
X220245Y607380D01*
X221488Y607380D01*
X221488Y598062D01*
X212170Y598062D01*
G37*
G36*
X85170Y598062D02*
X85170Y599305D01*
X86705Y603010D01*
X89540Y605845D01*
X93245Y607380D01*
X94488Y607380D01*
X94488Y598062D01*
X85170Y598062D01*
G37*
G36*
X96012Y598062D02*
X96012Y607380D01*
X97255Y607380D01*
X100960Y605845D01*
X103795Y603010D01*
X105330Y599305D01*
X105330Y598062D01*
X96012Y598062D01*
G37*
G36*
X223012Y598062D02*
X223012Y607380D01*
X224255Y607380D01*
X227960Y605845D01*
X230795Y603010D01*
X232330Y599305D01*
X232330Y598062D01*
X223012Y598062D01*
G37*
G36*
X93245Y587220D02*
X89540Y588755D01*
X86705Y591590D01*
X85170Y595295D01*
X85170Y596538D01*
X94488Y596538D01*
X94488Y587220D01*
X93245Y587220D01*
G37*
G36*
X96012Y587220D02*
X96012Y596538D01*
X105330Y596538D01*
X105330Y595295D01*
X103795Y591590D01*
X100960Y588755D01*
X97255Y587220D01*
X96012Y587220D01*
G37*
G36*
X223012Y587220D02*
X223012Y596538D01*
X232330Y596538D01*
X232330Y595295D01*
X230795Y591590D01*
X227960Y588755D01*
X224255Y587220D01*
X223012Y587220D01*
G37*
G36*
X220245Y587220D02*
X216540Y588755D01*
X213705Y591590D01*
X212170Y595295D01*
X212170Y596538D01*
X221488Y596538D01*
X221488Y587220D01*
X220245Y587220D01*
G37*
G36*
X272301Y545846D02*
X268940Y547238D01*
X266368Y549810D01*
X264976Y553171D01*
X264976Y572049D01*
X266368Y575410D01*
X268940Y577982D01*
X272301Y579374D01*
X275939Y579374D01*
X279300Y577982D01*
X281872Y575410D01*
X283264Y572049D01*
X283264Y553171D01*
X281872Y549810D01*
X279300Y547238D01*
X275939Y545846D01*
X272301Y545846D01*
G37*
G36*
X297701Y545846D02*
X294340Y547238D01*
X291768Y549810D01*
X290376Y553171D01*
X290376Y572049D01*
X291768Y575410D01*
X294340Y577982D01*
X297701Y579374D01*
X301339Y579374D01*
X304700Y577982D01*
X307272Y575410D01*
X308664Y572049D01*
X308664Y553171D01*
X307272Y549810D01*
X304700Y547238D01*
X301339Y545846D01*
X297701Y545846D01*
G37*
G36*
X323101Y545846D02*
X319740Y547238D01*
X317168Y549810D01*
X315776Y553171D01*
X315776Y572049D01*
X317168Y575410D01*
X319740Y577982D01*
X323101Y579374D01*
X326739Y579374D01*
X330100Y577982D01*
X332672Y575410D01*
X334064Y572049D01*
X334064Y553171D01*
X332672Y549810D01*
X330100Y547238D01*
X326739Y545846D01*
X323101Y545846D01*
G37*
G36*
X348501Y545846D02*
X345140Y547238D01*
X342568Y549810D01*
X341176Y553171D01*
X341176Y572049D01*
X342568Y575410D01*
X345140Y577982D01*
X348501Y579374D01*
X352139Y579374D01*
X355500Y577982D01*
X358072Y575410D01*
X359464Y572049D01*
X359464Y553171D01*
X358072Y549810D01*
X355500Y547238D01*
X352139Y545846D01*
X348501Y545846D01*
G37*
G36*
X373901Y545846D02*
X370540Y547238D01*
X367968Y549810D01*
X366576Y553171D01*
X366576Y572049D01*
X367968Y575410D01*
X370540Y577982D01*
X373901Y579374D01*
X377539Y579374D01*
X380900Y577982D01*
X383472Y575410D01*
X384864Y572049D01*
X384864Y553171D01*
X383472Y549810D01*
X380900Y547238D01*
X377539Y545846D01*
X373901Y545846D01*
G37*
G36*
X399301Y545846D02*
X395940Y547238D01*
X393368Y549810D01*
X391976Y553171D01*
X391976Y572049D01*
X393368Y575410D01*
X395940Y577982D01*
X399301Y579374D01*
X402939Y579374D01*
X406300Y577982D01*
X408872Y575410D01*
X410264Y572049D01*
X410264Y553171D01*
X408872Y549810D01*
X406300Y547238D01*
X402939Y545846D01*
X399301Y545846D01*
G37*
G36*
X551701Y545846D02*
X548340Y547238D01*
X545768Y549810D01*
X544376Y553171D01*
X544376Y572049D01*
X545768Y575410D01*
X548340Y577982D01*
X551701Y579374D01*
X555339Y579374D01*
X558700Y577982D01*
X561272Y575410D01*
X562664Y572049D01*
X562664Y553171D01*
X561272Y549810D01*
X558700Y547238D01*
X555339Y545846D01*
X551701Y545846D01*
G37*
%LPD*%
G36*
X576137Y929547D02*
X576804Y930004D01*
X577239Y930686D01*
X577376Y931418D01*
X577376Y932731D01*
X578269Y933624D01*
X593531Y933624D01*
X594432Y932723D01*
X594585Y931970D01*
X595042Y931303D01*
X595724Y930867D01*
X596521Y930732D01*
X597308Y930918D01*
X597893Y931326D01*
X598781Y932214D01*
X599227Y932888D01*
X599376Y933651D01*
X599376Y942231D01*
X600269Y943124D01*
X615531Y943124D01*
X616424Y942231D01*
X616424Y937768D01*
X616585Y936975D01*
X617042Y936308D01*
X617724Y935873D01*
X618456Y935736D01*
X620511Y935736D01*
X621304Y935897D01*
X621948Y936331D01*
X623483Y937866D01*
X623929Y938540D01*
X624078Y939303D01*
X624078Y941973D01*
X625741Y945987D01*
X628813Y949059D01*
X631260Y950073D01*
X631931Y950525D01*
X632372Y951203D01*
X632514Y951999D01*
X632334Y952787D01*
X631861Y953443D01*
X631260Y953827D01*
X628238Y955079D01*
X624879Y958438D01*
X623062Y962825D01*
X623062Y964438D01*
X635762Y964438D01*
X635762Y965962D01*
X623062Y965962D01*
X623062Y967575D01*
X624879Y971962D01*
X628238Y975321D01*
X629479Y975835D01*
X630150Y976287D01*
X630591Y976964D01*
X630733Y977761D01*
X630553Y978549D01*
X630080Y979205D01*
X629388Y979624D01*
X628701Y979744D01*
X572006Y979744D01*
X571213Y979583D01*
X570546Y979126D01*
X570111Y978445D01*
X569974Y977712D01*
X569974Y960879D01*
X568983Y959887D01*
X568675Y959825D01*
X568008Y959368D01*
X567573Y958687D01*
X567436Y957954D01*
X567436Y945860D01*
X567597Y945067D01*
X568031Y944423D01*
X569648Y942806D01*
X570456Y940855D01*
X570456Y938745D01*
X569545Y936545D01*
X569385Y936303D01*
X569236Y935508D01*
X569410Y934718D01*
X569831Y934104D01*
X569974Y933961D01*
X569974Y931418D01*
X570135Y930625D01*
X570592Y929958D01*
X571274Y929523D01*
X572006Y929386D01*
X575344Y929386D01*
X576137Y929547D01*
G37*
G36*
X663415Y515621D02*
X664082Y516078D01*
X664518Y516760D01*
X664654Y517557D01*
X664532Y518187D01*
X663801Y520195D01*
X663652Y520516D01*
X663163Y521363D01*
X662590Y523500D01*
X662537Y523669D01*
X661380Y526847D01*
X661380Y536073D01*
X662537Y539251D01*
X662590Y539420D01*
X663163Y541557D01*
X663652Y542404D01*
X663801Y542725D01*
X664535Y544742D01*
X665915Y546386D01*
X666118Y546676D01*
X666607Y547523D01*
X668172Y549087D01*
X668291Y549218D01*
X670465Y551809D01*
X678455Y556422D01*
X681785Y557009D01*
X681958Y557047D01*
X684096Y557620D01*
X685074Y557620D01*
X685426Y557651D01*
X687540Y558024D01*
X689654Y557651D01*
X690006Y557620D01*
X690984Y557620D01*
X693122Y557047D01*
X693295Y557009D01*
X696625Y556422D01*
X700492Y554189D01*
X701259Y553932D01*
X702065Y553995D01*
X702783Y554367D01*
X703299Y554989D01*
X703540Y555949D01*
X703540Y947630D01*
X703379Y948423D01*
X702922Y949090D01*
X702241Y949525D01*
X701443Y949661D01*
X700492Y949390D01*
X696315Y946978D01*
X692985Y946391D01*
X692812Y946353D01*
X690674Y945780D01*
X689696Y945780D01*
X689344Y945749D01*
X687230Y945376D01*
X685116Y945749D01*
X684764Y945780D01*
X683786Y945780D01*
X681648Y946353D01*
X681475Y946391D01*
X678145Y946978D01*
X670155Y951591D01*
X667981Y954182D01*
X667862Y954313D01*
X666783Y955391D01*
X666109Y955838D01*
X665314Y955986D01*
X664524Y955813D01*
X663864Y955345D01*
X663439Y954657D01*
X663314Y953955D01*
X663314Y919190D01*
X663475Y918397D01*
X663909Y917753D01*
X664256Y917406D01*
X665064Y915455D01*
X665064Y913345D01*
X664256Y911394D01*
X662764Y909902D01*
X660813Y909094D01*
X658703Y909094D01*
X656752Y909902D01*
X655260Y911394D01*
X654452Y913345D01*
X654452Y915455D01*
X655260Y917406D01*
X655607Y917753D01*
X656053Y918427D01*
X656202Y919190D01*
X656202Y956447D01*
X656041Y957240D01*
X655607Y957884D01*
X650180Y963311D01*
X649506Y963757D01*
X648711Y963906D01*
X647921Y963732D01*
X647261Y963264D01*
X646866Y962651D01*
X645121Y958438D01*
X641762Y955079D01*
X638740Y953827D01*
X638069Y953376D01*
X637628Y952698D01*
X637486Y951902D01*
X637666Y951113D01*
X638139Y950457D01*
X638740Y950073D01*
X641187Y949059D01*
X644259Y945987D01*
X645922Y941973D01*
X645922Y937627D01*
X644259Y933613D01*
X641187Y930541D01*
X637412Y928977D01*
X636742Y928525D01*
X636300Y927848D01*
X636159Y927051D01*
X636338Y926263D01*
X636812Y925607D01*
X637412Y925223D01*
X641187Y923659D01*
X644259Y920587D01*
X645922Y916573D01*
X645922Y912227D01*
X645562Y911359D01*
X645408Y910565D01*
X645575Y909774D01*
X646003Y909145D01*
X664445Y890702D01*
X665064Y889208D01*
X665064Y634792D01*
X664445Y633298D01*
X610751Y579604D01*
X610305Y578930D01*
X610156Y578135D01*
X610330Y577345D01*
X610751Y576730D01*
X612072Y575410D01*
X613464Y572049D01*
X613464Y553171D01*
X612072Y549810D01*
X609389Y547128D01*
X608968Y546844D01*
X608527Y546166D01*
X608384Y545418D01*
X608384Y523702D01*
X607765Y522208D01*
X604486Y518929D01*
X604040Y518255D01*
X603891Y517460D01*
X604065Y516670D01*
X604533Y516010D01*
X605221Y515585D01*
X605923Y515460D01*
X662623Y515460D01*
X663415Y515621D01*
G37*
%LPC*%
G36*
X630482Y563372D02*
X630482Y580390D01*
X631741Y580390D01*
X635475Y578843D01*
X638333Y575985D01*
X639880Y572251D01*
X639880Y563372D01*
X630482Y563372D01*
G37*
G36*
X619560Y563372D02*
X619560Y572251D01*
X621107Y575985D01*
X623965Y578843D01*
X627699Y580390D01*
X628958Y580390D01*
X628958Y563372D01*
X619560Y563372D01*
G37*
G36*
X630482Y544830D02*
X630482Y561848D01*
X639880Y561848D01*
X639880Y552969D01*
X638333Y549235D01*
X635475Y546377D01*
X631741Y544830D01*
X630482Y544830D01*
G37*
G36*
X627699Y544830D02*
X623965Y546377D01*
X621107Y549235D01*
X619560Y552969D01*
X619560Y561848D01*
X628958Y561848D01*
X628958Y544830D01*
X627699Y544830D01*
G37*
%LPD*%
G36*
X337633Y853347D02*
X338277Y853781D01*
X339894Y855398D01*
X341845Y856206D01*
X343955Y856206D01*
X344154Y856124D01*
X344948Y855969D01*
X345739Y856136D01*
X346403Y856599D01*
X346833Y857284D01*
X346964Y858001D01*
X346964Y868161D01*
X346803Y868954D01*
X346369Y869598D01*
X337409Y878558D01*
X336735Y879005D01*
X335940Y879153D01*
X335150Y878980D01*
X334490Y878512D01*
X334321Y878238D01*
X334321Y878862D01*
X308860Y878862D01*
X308860Y883652D01*
X309626Y884418D01*
X310072Y885092D01*
X310221Y885887D01*
X310047Y886677D01*
X309626Y887291D01*
X259998Y936919D01*
X259324Y937365D01*
X258561Y937514D01*
X254751Y937514D01*
X253958Y937353D01*
X253291Y936896D01*
X252856Y936215D01*
X252720Y935417D01*
X252874Y934704D01*
X252956Y934505D01*
X252956Y932395D01*
X252148Y930444D01*
X250606Y928903D01*
X250047Y928525D01*
X249605Y927848D01*
X249463Y927051D01*
X249643Y926263D01*
X250116Y925607D01*
X250617Y925287D01*
X252148Y923756D01*
X252956Y921805D01*
X252956Y919695D01*
X252148Y917744D01*
X250656Y916252D01*
X248705Y915444D01*
X246691Y915444D01*
X245898Y915283D01*
X245231Y914826D01*
X244795Y914145D01*
X244660Y913347D01*
X244846Y912560D01*
X245254Y911975D01*
X287678Y869551D01*
X288352Y869105D01*
X289115Y868956D01*
X307546Y868956D01*
X308339Y869117D01*
X309006Y869574D01*
X309442Y870256D01*
X309577Y871053D01*
X309391Y871840D01*
X308983Y872425D01*
X308860Y872548D01*
X308860Y877338D01*
X333979Y877338D01*
X333940Y877121D01*
X333940Y872548D01*
X333519Y872127D01*
X333073Y871453D01*
X332924Y870690D01*
X332924Y860158D01*
X332695Y859813D01*
X332547Y859018D01*
X332721Y858228D01*
X332924Y857931D01*
X332924Y855218D01*
X333085Y854425D01*
X333542Y853758D01*
X334224Y853323D01*
X334956Y853186D01*
X336841Y853186D01*
X337633Y853347D01*
G37*
D10*
X57150Y647300D03*
X95250Y597300D03*
D11*
X123850Y706120D03*
X142850Y706120D03*
X98400Y812800D03*
X79400Y812800D03*
X168300Y787400D03*
X187300Y787400D03*
X219100Y762000D03*
X238100Y762000D03*
X219100Y736600D03*
X238100Y736600D03*
X219100Y787400D03*
X238100Y787400D03*
X542950Y925830D03*
X561950Y925830D03*
D12*
X63500Y952500D03*
D13*
X63500Y927500D03*
X63500Y902500D03*
X63500Y877500D03*
D14*
X127000Y756200D03*
X127000Y793200D03*
D15*
X632300Y645000D03*
X632300Y669892D03*
X632300Y695038D03*
X632300Y719930D03*
X632300Y745076D03*
X632300Y769968D03*
D16*
X635000Y838200D03*
X635000Y863600D03*
X635000Y889000D03*
X635000Y914400D03*
X635000Y939800D03*
X635000Y965200D03*
D17*
X274120Y570230D02*
X274120Y554990D01*
X299520Y554990D02*
X299520Y570230D01*
X324920Y570230D02*
X324920Y554990D01*
X350320Y554990D02*
X350320Y570230D01*
X375720Y570230D02*
X375720Y554990D01*
X401120Y554990D02*
X401120Y570230D01*
X426520Y570230D02*
X426520Y554990D01*
X451920Y554990D02*
X451920Y570230D01*
X477320Y570230D02*
X477320Y554990D01*
X502720Y554990D02*
X502720Y570230D01*
X528120Y570230D02*
X528120Y554990D01*
X553520Y554990D02*
X553520Y570230D01*
X578920Y570230D02*
X578920Y554990D01*
X604320Y554990D02*
X604320Y570230D01*
X629720Y570230D02*
X629720Y554990D01*
D18*
X596900Y873150D03*
X596900Y892150D03*
X558800Y892150D03*
X558800Y873150D03*
D11*
X561950Y969010D03*
X542950Y969010D03*
D19*
X157100Y830400D03*
X173100Y830400D03*
X173100Y871400D03*
X157100Y871400D03*
D20*
X150850Y850900D03*
D19*
X233300Y830400D03*
X249300Y830400D03*
X249300Y871400D03*
X233300Y871400D03*
D20*
X227050Y850900D03*
D10*
X184150Y647300D03*
X222250Y597300D03*
D21*
X547800Y838200D03*
X569800Y847700D03*
X569800Y828700D03*
X585900Y927100D03*
X607900Y936600D03*
X607900Y917600D03*
D22*
X321400Y878100D03*
X321400Y865400D03*
X321400Y852700D03*
X321400Y840000D03*
X321400Y827300D03*
X321400Y814600D03*
X321400Y801900D03*
X321400Y789200D03*
X321400Y776500D03*
X321400Y763800D03*
X321400Y751100D03*
X321400Y738400D03*
X321400Y725700D03*
X321400Y713000D03*
D23*
X349250Y703000D03*
X361950Y703000D03*
X374650Y703000D03*
X387350Y703000D03*
X400050Y703000D03*
X412750Y703000D03*
X425450Y703000D03*
X438150Y703000D03*
X450850Y703000D03*
X463550Y703000D03*
D22*
X491400Y713000D03*
X491400Y725700D03*
X491400Y738400D03*
X491400Y751100D03*
X491400Y763800D03*
X491400Y776500D03*
X491400Y789200D03*
X491400Y801900D03*
X491400Y814600D03*
X491400Y827300D03*
X491400Y840000D03*
X491400Y852700D03*
X491400Y865400D03*
X491400Y878100D03*
D24*
X378050Y821450D03*
X396400Y821450D03*
X414750Y821450D03*
X378050Y803100D03*
X396400Y803100D03*
X414750Y803100D03*
X378050Y784750D03*
X396400Y784750D03*
X414750Y784750D03*
D25*
X387225Y821450D03*
X405575Y821450D03*
X378050Y812275D03*
X396400Y812275D03*
X414750Y812275D03*
X387225Y803100D03*
X405575Y803100D03*
X378050Y793925D03*
X396400Y793925D03*
X414750Y793925D03*
X387225Y784750D03*
X405575Y784750D03*
D26*
X92500Y739000D03*
X92500Y762000D03*
X92500Y785000D03*
D27*
X34500Y762000D03*
D28*
X159650Y761350D02*
X159650Y756250D01*
X159650Y761350D02*
X172250Y761350D01*
X172250Y756250D01*
X159650Y756250D01*
X159650Y757105D02*
X172250Y757105D01*
X172250Y757960D02*
X159650Y757960D01*
X159650Y758815D02*
X172250Y758815D01*
X172250Y759670D02*
X159650Y759670D01*
X159650Y760525D02*
X172250Y760525D01*
X159650Y751850D02*
X159650Y746750D01*
X159650Y751850D02*
X172250Y751850D01*
X172250Y746750D01*
X159650Y746750D01*
X159650Y747605D02*
X172250Y747605D01*
X172250Y748460D02*
X159650Y748460D01*
X159650Y749315D02*
X172250Y749315D01*
X172250Y750170D02*
X159650Y750170D01*
X159650Y751025D02*
X172250Y751025D01*
X159650Y742350D02*
X159650Y737250D01*
X159650Y742350D02*
X172250Y742350D01*
X172250Y737250D01*
X159650Y737250D01*
X159650Y738105D02*
X172250Y738105D01*
X172250Y738960D02*
X159650Y738960D01*
X159650Y739815D02*
X172250Y739815D01*
X172250Y740670D02*
X159650Y740670D01*
X159650Y741525D02*
X172250Y741525D01*
X183350Y742350D02*
X183350Y737250D01*
X183350Y742350D02*
X195950Y742350D01*
X195950Y737250D01*
X183350Y737250D01*
X183350Y738105D02*
X195950Y738105D01*
X195950Y738960D02*
X183350Y738960D01*
X183350Y739815D02*
X195950Y739815D01*
X195950Y740670D02*
X183350Y740670D01*
X183350Y741525D02*
X195950Y741525D01*
X183350Y756250D02*
X183350Y761350D01*
X195950Y761350D01*
X195950Y756250D01*
X183350Y756250D01*
X183350Y757105D02*
X195950Y757105D01*
X195950Y757960D02*
X183350Y757960D01*
X183350Y758815D02*
X195950Y758815D01*
X195950Y759670D02*
X183350Y759670D01*
X183350Y760525D02*
X195950Y760525D01*
D29*
X224562Y921838D02*
X239238Y921838D01*
X239238Y918762D01*
X224562Y918762D01*
X224562Y921838D01*
X224562Y919736D02*
X239238Y919736D01*
X239238Y920710D02*
X224562Y920710D01*
X224562Y921684D02*
X239238Y921684D01*
X239238Y928338D02*
X224562Y928338D01*
X239238Y928338D02*
X239238Y925262D01*
X224562Y925262D01*
X224562Y928338D01*
X224562Y926236D02*
X239238Y926236D01*
X239238Y927210D02*
X224562Y927210D01*
X224562Y928184D02*
X239238Y928184D01*
X239238Y934838D02*
X224562Y934838D01*
X239238Y934838D02*
X239238Y931762D01*
X224562Y931762D01*
X224562Y934838D01*
X224562Y932736D02*
X239238Y932736D01*
X239238Y933710D02*
X224562Y933710D01*
X224562Y934684D02*
X239238Y934684D01*
X239238Y941338D02*
X224562Y941338D01*
X239238Y941338D02*
X239238Y938262D01*
X224562Y938262D01*
X224562Y941338D01*
X224562Y939236D02*
X239238Y939236D01*
X239238Y940210D02*
X224562Y940210D01*
X224562Y941184D02*
X239238Y941184D01*
X239238Y947838D02*
X224562Y947838D01*
X239238Y947838D02*
X239238Y944762D01*
X224562Y944762D01*
X224562Y947838D01*
X224562Y945736D02*
X239238Y945736D01*
X239238Y946710D02*
X224562Y946710D01*
X224562Y947684D02*
X239238Y947684D01*
X239238Y954338D02*
X224562Y954338D01*
X239238Y954338D02*
X239238Y951262D01*
X224562Y951262D01*
X224562Y954338D01*
X224562Y952236D02*
X239238Y952236D01*
X239238Y953210D02*
X224562Y953210D01*
X224562Y954184D02*
X239238Y954184D01*
X239238Y960838D02*
X224562Y960838D01*
X239238Y960838D02*
X239238Y957762D01*
X224562Y957762D01*
X224562Y960838D01*
X224562Y958736D02*
X239238Y958736D01*
X239238Y959710D02*
X224562Y959710D01*
X224562Y960684D02*
X239238Y960684D01*
X181838Y960838D02*
X167162Y960838D01*
X181838Y960838D02*
X181838Y957762D01*
X167162Y957762D01*
X167162Y960838D01*
X167162Y958736D02*
X181838Y958736D01*
X181838Y959710D02*
X167162Y959710D01*
X167162Y960684D02*
X181838Y960684D01*
X181838Y954338D02*
X167162Y954338D01*
X181838Y954338D02*
X181838Y951262D01*
X167162Y951262D01*
X167162Y954338D01*
X167162Y952236D02*
X181838Y952236D01*
X181838Y953210D02*
X167162Y953210D01*
X167162Y954184D02*
X181838Y954184D01*
X181838Y947838D02*
X167162Y947838D01*
X181838Y947838D02*
X181838Y944762D01*
X167162Y944762D01*
X167162Y947838D01*
X167162Y945736D02*
X181838Y945736D01*
X181838Y946710D02*
X167162Y946710D01*
X167162Y947684D02*
X181838Y947684D01*
X181838Y941338D02*
X167162Y941338D01*
X181838Y941338D02*
X181838Y938262D01*
X167162Y938262D01*
X167162Y941338D01*
X167162Y939236D02*
X181838Y939236D01*
X181838Y940210D02*
X167162Y940210D01*
X167162Y941184D02*
X181838Y941184D01*
X181838Y934838D02*
X167162Y934838D01*
X181838Y934838D02*
X181838Y931762D01*
X167162Y931762D01*
X167162Y934838D01*
X167162Y932736D02*
X181838Y932736D01*
X181838Y933710D02*
X167162Y933710D01*
X167162Y934684D02*
X181838Y934684D01*
X181838Y928338D02*
X167162Y928338D01*
X181838Y928338D02*
X181838Y925262D01*
X167162Y925262D01*
X167162Y928338D01*
X167162Y926236D02*
X181838Y926236D01*
X181838Y927210D02*
X167162Y927210D01*
X167162Y928184D02*
X181838Y928184D01*
X181838Y921838D02*
X167162Y921838D01*
X181838Y921838D02*
X181838Y918762D01*
X167162Y918762D01*
X167162Y921838D01*
X167162Y919736D02*
X181838Y919736D01*
X181838Y920710D02*
X167162Y920710D01*
X167162Y921684D02*
X181838Y921684D01*
D30*
X400050Y806450D02*
X406400Y806450D01*
X400050Y806450D02*
X396400Y803100D01*
X405575Y803100D02*
X406400Y806450D01*
X393700Y800100D02*
X393700Y793750D01*
X393700Y800100D02*
X396400Y803100D01*
X387350Y787400D02*
X381000Y787400D01*
X387350Y787400D02*
X387225Y784750D01*
X381000Y787400D02*
X378050Y784750D01*
X406400Y819150D02*
X412750Y819150D01*
X406400Y819150D02*
X405575Y821450D01*
X406400Y787400D02*
X400050Y787400D01*
X405575Y784750D02*
X406400Y787400D01*
X400050Y787400D02*
X396400Y784750D01*
X381000Y793750D02*
X381000Y800100D01*
X381000Y793750D02*
X378050Y793925D01*
X381000Y800100D02*
X378050Y803100D01*
X381000Y812800D02*
X381000Y819150D01*
X381000Y812800D02*
X378050Y812275D01*
X381000Y806450D02*
X387350Y806450D01*
X387225Y803100D01*
X381000Y806450D02*
X378050Y803100D01*
X393700Y812800D02*
X393700Y819150D01*
X393700Y812800D02*
X396400Y812275D01*
X393700Y819150D02*
X396400Y821450D01*
X412750Y800100D02*
X412750Y793750D01*
X414750Y793925D01*
X412750Y800100D02*
X414750Y803100D01*
X412750Y812800D02*
X412750Y819150D01*
X412750Y812800D02*
X414750Y812275D01*
X412750Y819150D02*
X414750Y821450D01*
X387350Y819150D02*
X381000Y819150D01*
X387350Y819150D02*
X387225Y821450D01*
X381000Y819150D02*
X378050Y821450D01*
X393700Y793750D02*
X393700Y787400D01*
X393700Y793750D02*
X396400Y793925D01*
X393700Y787400D02*
X396400Y784750D01*
D31*
X203200Y723900D03*
X63500Y774700D03*
X73500Y596900D03*
X177800Y596900D03*
X386080Y748030D03*
X290830Y876300D03*
X604520Y805180D03*
X597060Y955962D03*
X137000Y972042D03*
X649758Y587370D03*
D32*
X184150Y647300D02*
X57150Y647300D01*
X92500Y682650D01*
X92500Y711200D01*
X92500Y739000D01*
X92500Y711200D02*
X97580Y706120D01*
X123850Y706120D01*
D33*
X92500Y785000D02*
X98400Y790900D01*
X98400Y812800D01*
X107400Y812800D01*
X127000Y793200D01*
X98400Y812800D02*
X89964Y821236D01*
X89964Y821983D01*
X63500Y848447D02*
X63500Y877500D01*
X63500Y848447D02*
X89964Y821983D01*
X102800Y877500D02*
X63500Y877500D01*
X102800Y877500D02*
X145600Y920300D01*
X174500Y920300D01*
X604320Y578920D02*
X604320Y562610D01*
X604320Y524510D01*
X597810Y518000D01*
X63500Y851700D02*
X63500Y877500D01*
X63500Y851700D02*
X11900Y800100D01*
X99408Y518000D02*
X597810Y518000D01*
X11900Y605508D02*
X11900Y800100D01*
X11900Y605508D02*
X99408Y518000D01*
X635000Y914400D02*
X661000Y888400D01*
X661000Y635600D01*
X604320Y578920D01*
X146600Y756200D02*
X127000Y756200D01*
X146600Y756200D02*
X152400Y762000D01*
X162750Y762000D01*
X165950Y758800D01*
D30*
X171450Y768350D02*
X171450Y787400D01*
X171450Y768350D02*
X165100Y762000D01*
X168300Y787400D02*
X171450Y787400D01*
X165100Y762000D02*
X162750Y762000D01*
D34*
X143400Y739800D02*
X127000Y756200D01*
X143400Y739800D02*
X165950Y739800D01*
X189650Y758800D02*
X203200Y758800D01*
X215900Y758800D01*
X219100Y762000D01*
X219100Y787400D01*
X219100Y762000D02*
X219100Y736600D01*
X219100Y787400D02*
X228044Y796344D01*
X228044Y796373D01*
X231771Y800100D01*
X279400Y800100D01*
X292100Y812800D01*
X292100Y863600D01*
X293900Y865400D02*
X286800Y865400D01*
X231900Y920300D01*
X231006Y921194D01*
X222877Y921194D01*
X184771Y959300D02*
X174500Y959300D01*
X184771Y959300D02*
X222877Y921194D01*
X578920Y591620D02*
X578920Y562610D01*
X578920Y591620D02*
X632300Y645000D01*
X578920Y562610D02*
X578920Y528120D01*
D31*
X34600Y740444D03*
X203200Y758800D03*
D34*
X542950Y969010D02*
X542950Y983300D01*
X293900Y865400D02*
X292100Y863600D01*
X293900Y865400D02*
X321400Y865400D01*
X34600Y740444D02*
X34600Y615423D01*
X121903Y528120D02*
X578920Y528120D01*
X121903Y528120D02*
X34600Y615423D01*
D31*
X653154Y863600D03*
X659758Y914400D03*
D34*
X635220Y983300D02*
X542950Y983300D01*
X659758Y958762D02*
X659758Y914400D01*
X659758Y958762D02*
X635220Y983300D01*
X653154Y665854D02*
X632300Y645000D01*
X653154Y665854D02*
X653154Y863600D01*
D30*
X508000Y825500D02*
X495300Y825500D01*
X491400Y827300D01*
D31*
X508000Y825500D03*
D30*
X508000Y838200D02*
X495300Y838200D01*
X491400Y840000D01*
D31*
X508000Y838200D03*
D30*
X171450Y850900D02*
X171450Y869950D01*
X171450Y850900D02*
X171450Y831850D01*
X173100Y830400D01*
X171450Y869950D02*
X173100Y871400D01*
X171450Y850900D02*
X150850Y850900D01*
X565150Y927100D02*
X585900Y927100D01*
X565150Y927100D02*
X565150Y939800D01*
X565150Y965200D01*
X561950Y969010D01*
X565150Y927100D02*
X561950Y925830D01*
X342900Y850900D02*
X323850Y850900D01*
X321400Y852700D01*
X184150Y876300D02*
X177800Y869950D01*
X173100Y871400D01*
D31*
X342900Y850900D03*
X565150Y939800D03*
X184150Y876300D03*
D30*
X234950Y933450D02*
X247650Y933450D01*
X304800Y781050D02*
X311150Y774700D01*
X317500Y774700D01*
X234950Y933450D02*
X231900Y933300D01*
X317500Y774700D02*
X321400Y776500D01*
D31*
X247650Y933450D03*
X304800Y781050D03*
D30*
X260350Y939800D02*
X231900Y939800D01*
X260350Y939800D02*
X311150Y889000D01*
X330200Y889000D01*
X349250Y869950D01*
X349250Y806450D01*
X330200Y787400D01*
X323850Y787400D01*
X321400Y789200D01*
X241300Y927100D02*
X234950Y927100D01*
X241300Y927100D02*
X247650Y920750D01*
X304800Y742950D02*
X311150Y736600D01*
X317500Y736600D01*
X234950Y927100D02*
X231900Y926800D01*
X317500Y736600D02*
X321400Y738400D01*
D31*
X247650Y920750D03*
X304800Y742950D03*
D30*
X571500Y850900D02*
X596900Y876300D01*
X571500Y850900D02*
X569800Y847700D01*
X596900Y873150D02*
X596900Y876300D01*
X596900Y869950D02*
X628650Y838200D01*
X635000Y838200D01*
X596900Y869950D02*
X596900Y873150D01*
X609600Y933450D02*
X622300Y933450D01*
X628650Y939800D01*
X635000Y939800D01*
X609600Y933450D02*
X607900Y936600D01*
X571500Y895350D02*
X558800Y895350D01*
X571500Y895350D02*
X596900Y920750D01*
X596900Y927100D01*
X603250Y933450D01*
X558800Y895350D02*
X558800Y892150D01*
X603250Y933450D02*
X607900Y936600D01*
X247650Y869950D02*
X247650Y850900D01*
X247650Y831850D01*
X249300Y830400D01*
X247650Y869950D02*
X249300Y871400D01*
X247650Y850900D02*
X227050Y850900D01*
X546100Y838200D02*
X546100Y825500D01*
X527050Y736600D02*
X501650Y711200D01*
X495300Y711200D01*
X546100Y838200D02*
X547800Y838200D01*
X491400Y713000D02*
X495300Y711200D01*
X260350Y825500D02*
X254000Y831850D01*
X249300Y830400D01*
D31*
X546100Y825500D03*
X527050Y736600D03*
X260350Y825500D03*
D30*
X596900Y908050D02*
X603250Y914400D01*
X596900Y908050D02*
X596900Y892150D01*
X603250Y914400D02*
X607900Y917600D01*
X558800Y838200D02*
X565150Y831850D01*
X558800Y838200D02*
X558800Y873150D01*
X565150Y831850D02*
X569800Y828700D01*
X501650Y863600D02*
X495300Y863600D01*
X501650Y863600D02*
X539750Y825500D01*
X539750Y806450D01*
X495300Y863600D02*
X491400Y865400D01*
D31*
X539750Y806450D03*
D30*
X565150Y787400D02*
X495300Y787400D01*
X491400Y789200D01*
X565150Y787400D02*
X607474Y745076D01*
X632300Y745076D01*
X527050Y774700D02*
X495300Y774700D01*
X491400Y776500D01*
X606712Y695038D02*
X632300Y695038D01*
X606712Y695038D02*
X527050Y774700D01*
X514350Y762000D02*
X495300Y762000D01*
X491400Y763800D01*
X606458Y669892D02*
X632300Y669892D01*
X606458Y669892D02*
X514350Y762000D01*
X463550Y711200D02*
X463550Y703000D01*
X463550Y711200D02*
X444500Y730250D01*
D31*
X444500Y730250D03*
D30*
X463550Y723900D02*
X488950Y723900D01*
X491400Y725700D01*
D31*
X463550Y723900D03*
D30*
X323850Y711200D02*
X323850Y698500D01*
X323850Y711200D02*
X321400Y713000D01*
D31*
X323850Y698500D03*
D30*
X361950Y703000D02*
X361950Y685800D01*
D31*
X361950Y685800D03*
D30*
X342900Y723900D02*
X323850Y723900D01*
X321400Y725700D01*
D31*
X342900Y723900D03*
D30*
X450850Y703000D02*
X450850Y685800D01*
D31*
X450850Y685800D03*
D30*
X469900Y736600D02*
X488950Y736600D01*
X491400Y738400D01*
D31*
X469900Y736600D03*
D30*
X469900Y749300D02*
X488950Y749300D01*
X491400Y751100D01*
D31*
X469900Y749300D03*
D30*
X495300Y812800D02*
X508000Y812800D01*
X495300Y812800D02*
X491400Y814600D01*
D31*
X508000Y812800D03*
D30*
X508000Y850900D02*
X495300Y850900D01*
X508000Y850900D02*
X520700Y838200D01*
X520700Y812800D01*
X495300Y850900D02*
X491400Y852700D01*
D31*
X520700Y812800D03*
D30*
X317500Y762000D02*
X311150Y762000D01*
X298450Y749300D01*
X298450Y711200D01*
X425450Y584200D01*
X508000Y584200D01*
X527050Y565150D01*
X321400Y763800D02*
X317500Y762000D01*
X527050Y565150D02*
X528120Y562610D01*
X342900Y749300D02*
X323850Y749300D01*
X321400Y751100D01*
D31*
X342900Y749300D03*
D30*
X171450Y927100D02*
X82550Y927100D01*
X63500Y908050D01*
X171450Y927100D02*
X174500Y926800D01*
X63500Y908050D02*
X63500Y902500D01*
X158750Y939800D02*
X174500Y939800D01*
D31*
X158750Y939800D03*
D30*
X171450Y933450D02*
X82550Y933450D01*
X63500Y952500D01*
X171450Y933450D02*
X174500Y933300D01*
M02*
