G04 EAGLE Gerber RS-274X export*
G75*
%MOMM*%
%FSLAX34Y34*%
%LPD*%
%INBottom Copper*%
%IPPOS*%
%AMOC8*
5,1,8,0,0,1.08239X$1,22.5*%
G01*
%ADD10C,1.508000*%
%ADD11R,1.590000X1.590000*%
%ADD12C,1.590000*%
%ADD13C,1.498600*%
%ADD14C,1.879600*%
%ADD15C,1.524000*%
%ADD16C,0.708000*%
%ADD17C,0.756400*%
%ADD18C,0.406400*%
%ADD19C,0.152400*%
G36*
X663415Y515621D02*
X664082Y516078D01*
X664518Y516760D01*
X664654Y517557D01*
X664532Y518187D01*
X663801Y520195D01*
X663652Y520516D01*
X663163Y521363D01*
X662590Y523500D01*
X662537Y523669D01*
X661380Y526847D01*
X661380Y536073D01*
X662537Y539251D01*
X662590Y539420D01*
X663163Y541557D01*
X663652Y542404D01*
X663801Y542725D01*
X664535Y544742D01*
X665915Y546386D01*
X666118Y546676D01*
X666607Y547523D01*
X668172Y549087D01*
X668291Y549218D01*
X670465Y551809D01*
X671246Y552259D01*
X671626Y552479D01*
X678455Y556422D01*
X681785Y557009D01*
X681958Y557047D01*
X684096Y557620D01*
X685074Y557620D01*
X685426Y557651D01*
X687540Y558024D01*
X689654Y557651D01*
X690006Y557620D01*
X690984Y557620D01*
X693122Y557047D01*
X693295Y557009D01*
X696625Y556422D01*
X700492Y554189D01*
X701259Y553932D01*
X702065Y553995D01*
X702783Y554367D01*
X703299Y554989D01*
X703540Y555949D01*
X703540Y947630D01*
X703379Y948423D01*
X702922Y949090D01*
X702241Y949525D01*
X701443Y949661D01*
X700492Y949390D01*
X696315Y946978D01*
X692985Y946391D01*
X692812Y946353D01*
X690674Y945780D01*
X689696Y945780D01*
X689344Y945749D01*
X687230Y945376D01*
X685116Y945749D01*
X684764Y945780D01*
X683786Y945780D01*
X681648Y946353D01*
X681475Y946391D01*
X678145Y946978D01*
X670155Y951591D01*
X667981Y954182D01*
X667862Y954313D01*
X666297Y955877D01*
X665808Y956724D01*
X665605Y957014D01*
X664225Y958658D01*
X663491Y960675D01*
X663342Y960996D01*
X662853Y961843D01*
X662280Y963980D01*
X662227Y964149D01*
X661070Y967327D01*
X661070Y976553D01*
X662227Y979731D01*
X662280Y979900D01*
X662853Y982037D01*
X663342Y982884D01*
X663491Y983205D01*
X664222Y985213D01*
X664342Y986013D01*
X664140Y986796D01*
X663649Y987439D01*
X662946Y987839D01*
X662313Y987940D01*
X30277Y987940D01*
X29485Y987779D01*
X28818Y987322D01*
X28382Y986641D01*
X28246Y985843D01*
X28368Y985213D01*
X29099Y983205D01*
X29248Y982884D01*
X29737Y982037D01*
X30310Y979900D01*
X30363Y979731D01*
X31520Y976553D01*
X31520Y967327D01*
X30363Y964149D01*
X30310Y963980D01*
X29737Y961843D01*
X29248Y960996D01*
X29099Y960675D01*
X28365Y958658D01*
X26985Y957014D01*
X26782Y956724D01*
X26293Y955877D01*
X24728Y954313D01*
X24609Y954182D01*
X22435Y951591D01*
X14445Y946978D01*
X11115Y946391D01*
X10942Y946353D01*
X8804Y945780D01*
X7826Y945780D01*
X7474Y945749D01*
X5360Y945376D01*
X3246Y945749D01*
X2894Y945780D01*
X1916Y945780D01*
X-222Y946353D01*
X-395Y946391D01*
X-3725Y946978D01*
X-7592Y949211D01*
X-8359Y949468D01*
X-9165Y949405D01*
X-9883Y949033D01*
X-10399Y948411D01*
X-10640Y947451D01*
X-10640Y555949D01*
X-10479Y555156D01*
X-10022Y554489D01*
X-9341Y554054D01*
X-8543Y553918D01*
X-7592Y554189D01*
X-3725Y556422D01*
X-395Y557009D01*
X-222Y557047D01*
X1916Y557620D01*
X2894Y557620D01*
X3246Y557651D01*
X5360Y558024D01*
X7474Y557651D01*
X7826Y557620D01*
X8804Y557620D01*
X10942Y557047D01*
X11115Y557009D01*
X14445Y556422D01*
X21274Y552479D01*
X21654Y552259D01*
X22435Y551809D01*
X24609Y549218D01*
X24728Y549087D01*
X26293Y547523D01*
X26782Y546676D01*
X26985Y546386D01*
X28365Y544742D01*
X29099Y542725D01*
X29248Y542404D01*
X29737Y541557D01*
X30310Y539420D01*
X30363Y539251D01*
X31520Y536073D01*
X31520Y526847D01*
X30363Y523669D01*
X30310Y523500D01*
X29737Y521363D01*
X29248Y520516D01*
X29099Y520195D01*
X28368Y518187D01*
X28248Y517387D01*
X28450Y516604D01*
X28941Y515961D01*
X29644Y515561D01*
X30277Y515460D01*
X662623Y515460D01*
X663415Y515621D01*
G37*
%LPC*%
G36*
X635762Y965962D02*
X635762Y977138D01*
X637375Y977138D01*
X641762Y975321D01*
X645121Y971962D01*
X646938Y967575D01*
X646938Y965962D01*
X635762Y965962D01*
G37*
G36*
X623062Y965962D02*
X623062Y967575D01*
X624879Y971962D01*
X628238Y975321D01*
X632625Y977138D01*
X634238Y977138D01*
X634238Y965962D01*
X623062Y965962D01*
G37*
G36*
X278453Y531114D02*
X258064Y551503D01*
X258064Y667697D01*
X336999Y746632D01*
X337445Y747306D01*
X337594Y748069D01*
X337594Y750355D01*
X338402Y752306D01*
X339894Y753798D01*
X341845Y754606D01*
X343955Y754606D01*
X345906Y753798D01*
X347398Y752306D01*
X348206Y750355D01*
X348206Y748245D01*
X347398Y746294D01*
X345906Y744802D01*
X343955Y743994D01*
X341669Y743994D01*
X340876Y743833D01*
X340232Y743399D01*
X339188Y742355D01*
X338741Y741681D01*
X338593Y740886D01*
X338766Y740096D01*
X339234Y739436D01*
X339922Y739011D01*
X340625Y738886D01*
X350197Y738886D01*
X355952Y733131D01*
X356626Y732685D01*
X357389Y732536D01*
X438441Y732536D01*
X439233Y732697D01*
X439877Y733131D01*
X441494Y734748D01*
X443445Y735556D01*
X445555Y735556D01*
X447506Y734748D01*
X448998Y733256D01*
X449806Y731305D01*
X449806Y729195D01*
X449724Y728996D01*
X449569Y728202D01*
X449736Y727411D01*
X450199Y726747D01*
X450884Y726317D01*
X451601Y726186D01*
X457491Y726186D01*
X458283Y726347D01*
X458927Y726781D01*
X460544Y728398D01*
X462495Y729206D01*
X464885Y729206D01*
X465677Y729367D01*
X466344Y729824D01*
X466780Y730506D01*
X466915Y731303D01*
X466729Y732090D01*
X466321Y732675D01*
X465402Y733594D01*
X464594Y735545D01*
X464594Y737655D01*
X465402Y739606D01*
X466944Y741147D01*
X467503Y741525D01*
X467945Y742202D01*
X468087Y742999D01*
X467907Y743787D01*
X467434Y744443D01*
X466933Y744763D01*
X465402Y746294D01*
X464594Y748245D01*
X464594Y750355D01*
X465402Y752306D01*
X466894Y753798D01*
X468845Y754606D01*
X470955Y754606D01*
X472906Y753798D01*
X474398Y752306D01*
X475206Y750355D01*
X475206Y748069D01*
X475367Y747276D01*
X475801Y746632D01*
X478536Y743897D01*
X478536Y583253D01*
X478120Y582837D01*
X477673Y582163D01*
X477525Y581368D01*
X477699Y580578D01*
X478167Y579918D01*
X478779Y579523D01*
X482500Y577982D01*
X485072Y575410D01*
X485242Y574999D01*
X485694Y574328D01*
X486372Y573887D01*
X487168Y573745D01*
X487957Y573925D01*
X488556Y574339D01*
X505119Y590902D01*
X505565Y591576D01*
X505714Y592339D01*
X505714Y806741D01*
X505553Y807533D01*
X505119Y808177D01*
X503502Y809794D01*
X502694Y811745D01*
X502694Y812055D01*
X502533Y812848D01*
X502076Y813515D01*
X501395Y813951D01*
X500597Y814086D01*
X499810Y813900D01*
X499225Y813492D01*
X458147Y772414D01*
X297503Y772414D01*
X258064Y811853D01*
X258064Y819441D01*
X257903Y820233D01*
X257469Y820877D01*
X255852Y822494D01*
X255044Y824445D01*
X255044Y826555D01*
X255852Y828506D01*
X257344Y829998D01*
X259295Y830806D01*
X261405Y830806D01*
X263356Y829998D01*
X264848Y828506D01*
X265656Y826555D01*
X265656Y824445D01*
X264848Y822494D01*
X263231Y820877D01*
X262785Y820203D01*
X262636Y819441D01*
X262636Y814589D01*
X262797Y813796D01*
X263231Y813152D01*
X296025Y780358D01*
X296699Y779911D01*
X297494Y779763D01*
X298284Y779936D01*
X298944Y780404D01*
X299369Y781092D01*
X299494Y781795D01*
X299494Y782105D01*
X300302Y784056D01*
X301919Y785673D01*
X302365Y786347D01*
X302514Y787110D01*
X302514Y874511D01*
X302353Y875304D01*
X301919Y875948D01*
X256425Y921442D01*
X255751Y921889D01*
X254956Y922037D01*
X254166Y921864D01*
X253506Y921396D01*
X253081Y920708D01*
X252956Y920005D01*
X252956Y919695D01*
X252148Y917744D01*
X250531Y916127D01*
X250085Y915453D01*
X249936Y914691D01*
X249936Y801889D01*
X250097Y801096D01*
X250531Y800452D01*
X302132Y748851D01*
X302806Y748405D01*
X303569Y748256D01*
X305855Y748256D01*
X307806Y747448D01*
X309298Y745956D01*
X310106Y744005D01*
X310106Y741895D01*
X309298Y739944D01*
X307806Y738452D01*
X305855Y737644D01*
X303745Y737644D01*
X301794Y738452D01*
X300302Y739944D01*
X299494Y741895D01*
X299494Y744181D01*
X299333Y744974D01*
X298899Y745618D01*
X245364Y799153D01*
X245364Y914691D01*
X245203Y915483D01*
X244769Y916127D01*
X243152Y917744D01*
X242344Y919695D01*
X242344Y921805D01*
X243152Y923756D01*
X244694Y925297D01*
X245253Y925675D01*
X245695Y926352D01*
X245837Y927149D01*
X245657Y927937D01*
X245184Y928593D01*
X244683Y928913D01*
X243776Y929820D01*
X243102Y930266D01*
X242307Y930415D01*
X241517Y930241D01*
X240903Y929820D01*
X190051Y878968D01*
X189605Y878294D01*
X189456Y877531D01*
X189456Y875245D01*
X188648Y873294D01*
X187156Y871802D01*
X185205Y870994D01*
X183095Y870994D01*
X181144Y871802D01*
X179652Y873294D01*
X178844Y875245D01*
X178844Y877355D01*
X179652Y879306D01*
X181144Y880798D01*
X183095Y881606D01*
X185381Y881606D01*
X186174Y881767D01*
X186818Y882201D01*
X238419Y933802D01*
X238865Y934476D01*
X239014Y935239D01*
X239014Y940747D01*
X240353Y942086D01*
X254947Y942086D01*
X340232Y856801D01*
X340906Y856355D01*
X341669Y856206D01*
X343955Y856206D01*
X345906Y855398D01*
X347523Y853781D01*
X348197Y853335D01*
X348960Y853186D01*
X474461Y853186D01*
X475254Y853347D01*
X475898Y853781D01*
X559249Y937132D01*
X559695Y937806D01*
X559844Y938569D01*
X559844Y940855D01*
X560652Y942806D01*
X562144Y944298D01*
X564095Y945106D01*
X566205Y945106D01*
X568156Y944298D01*
X569648Y942806D01*
X570456Y940855D01*
X570456Y938745D01*
X569648Y936794D01*
X568156Y935302D01*
X566205Y934494D01*
X563919Y934494D01*
X563126Y934333D01*
X562482Y933899D01*
X477197Y848614D01*
X348960Y848614D01*
X348167Y848453D01*
X347523Y848019D01*
X345906Y846402D01*
X343955Y845594D01*
X341845Y845594D01*
X339894Y846402D01*
X338402Y847894D01*
X337594Y849845D01*
X337594Y852131D01*
X337433Y852924D01*
X336999Y853568D01*
X256425Y934142D01*
X255751Y934589D01*
X254956Y934737D01*
X254166Y934564D01*
X253506Y934096D01*
X253081Y933408D01*
X252956Y932705D01*
X252956Y932219D01*
X253117Y931426D01*
X253551Y930782D01*
X307086Y877247D01*
X307086Y787110D01*
X307247Y786317D01*
X307681Y785673D01*
X309298Y784056D01*
X310106Y782105D01*
X310106Y779995D01*
X310024Y779796D01*
X309869Y779002D01*
X310036Y778211D01*
X310499Y777547D01*
X311184Y777117D01*
X311901Y776986D01*
X381485Y776986D01*
X382277Y777147D01*
X382944Y777604D01*
X383380Y778286D01*
X383516Y779083D01*
X383330Y779870D01*
X382922Y780455D01*
X382071Y781306D01*
X381145Y783541D01*
X381145Y783988D01*
X393305Y783988D01*
X393305Y783541D01*
X392379Y781306D01*
X391528Y780455D01*
X391082Y779781D01*
X390933Y778986D01*
X391107Y778196D01*
X391575Y777536D01*
X392263Y777111D01*
X392965Y776986D01*
X399835Y776986D01*
X400627Y777147D01*
X401294Y777604D01*
X401730Y778286D01*
X401866Y779083D01*
X401680Y779870D01*
X401272Y780455D01*
X400421Y781306D01*
X399495Y783541D01*
X399495Y783988D01*
X411655Y783988D01*
X411655Y783541D01*
X410729Y781306D01*
X409878Y780455D01*
X409432Y779781D01*
X409283Y778986D01*
X409457Y778196D01*
X409925Y777536D01*
X410613Y777111D01*
X411315Y776986D01*
X455411Y776986D01*
X456204Y777147D01*
X456848Y777581D01*
X500703Y821436D01*
X500899Y821436D01*
X501692Y821597D01*
X502359Y822054D01*
X502794Y822736D01*
X502930Y823533D01*
X502776Y824246D01*
X502694Y824445D01*
X502694Y826731D01*
X502533Y827524D01*
X502099Y828168D01*
X499364Y830903D01*
X499364Y845497D01*
X545153Y891286D01*
X622767Y891286D01*
X623560Y891447D01*
X624227Y891904D01*
X624645Y892540D01*
X625741Y895187D01*
X628813Y898259D01*
X632588Y899823D01*
X633258Y900275D01*
X633700Y900952D01*
X633841Y901749D01*
X633662Y902537D01*
X633189Y903193D01*
X632588Y903577D01*
X628813Y905141D01*
X625741Y908213D01*
X624078Y912227D01*
X624078Y916573D01*
X625741Y920587D01*
X628813Y923659D01*
X632588Y925223D01*
X633258Y925675D01*
X633700Y926352D01*
X633841Y927149D01*
X633662Y927937D01*
X633189Y928593D01*
X632588Y928977D01*
X628813Y930541D01*
X625741Y933613D01*
X624078Y937627D01*
X624078Y941973D01*
X625741Y945987D01*
X628813Y949059D01*
X631260Y950073D01*
X631931Y950525D01*
X632372Y951203D01*
X632514Y951999D01*
X632334Y952787D01*
X631861Y953443D01*
X631260Y953827D01*
X628238Y955079D01*
X624879Y958438D01*
X623062Y962825D01*
X623062Y964438D01*
X646938Y964438D01*
X646938Y962825D01*
X645121Y958438D01*
X641762Y955079D01*
X638740Y953827D01*
X638069Y953376D01*
X637628Y952698D01*
X637486Y951902D01*
X637666Y951113D01*
X638139Y950457D01*
X638740Y950073D01*
X641187Y949059D01*
X644259Y945987D01*
X645922Y941973D01*
X645922Y937627D01*
X644259Y933613D01*
X641187Y930541D01*
X637412Y928977D01*
X636742Y928525D01*
X636300Y927848D01*
X636159Y927051D01*
X636338Y926263D01*
X636812Y925607D01*
X637412Y925223D01*
X641187Y923659D01*
X644259Y920587D01*
X645922Y916573D01*
X645922Y912227D01*
X644259Y908213D01*
X641187Y905141D01*
X637412Y903577D01*
X636742Y903125D01*
X636300Y902448D01*
X636159Y901651D01*
X636338Y900863D01*
X636812Y900207D01*
X637412Y899823D01*
X641187Y898259D01*
X644259Y895187D01*
X645922Y891173D01*
X645922Y886827D01*
X644259Y882813D01*
X641187Y879741D01*
X637412Y878177D01*
X636742Y877725D01*
X636300Y877048D01*
X636159Y876251D01*
X636338Y875463D01*
X636812Y874807D01*
X637412Y874423D01*
X641187Y872859D01*
X644259Y869787D01*
X645315Y867238D01*
X645767Y866568D01*
X646445Y866126D01*
X647241Y865984D01*
X648029Y866164D01*
X648629Y866579D01*
X650148Y868098D01*
X652099Y868906D01*
X652589Y868906D01*
X653382Y869067D01*
X654026Y869501D01*
X655607Y871082D01*
X656053Y871756D01*
X656202Y872519D01*
X656202Y909611D01*
X656041Y910403D01*
X655607Y911047D01*
X655260Y911394D01*
X654452Y913345D01*
X654452Y915455D01*
X655260Y917406D01*
X656752Y918898D01*
X658703Y919706D01*
X660813Y919706D01*
X662764Y918898D01*
X664256Y917406D01*
X665064Y915455D01*
X665064Y913345D01*
X664256Y911394D01*
X663909Y911047D01*
X663463Y910373D01*
X663314Y909611D01*
X663314Y868731D01*
X659055Y864472D01*
X658609Y863798D01*
X658460Y863035D01*
X658460Y862545D01*
X657652Y860594D01*
X656160Y859102D01*
X654209Y858294D01*
X652099Y858294D01*
X650148Y859102D01*
X648629Y860621D01*
X647955Y861068D01*
X647160Y861216D01*
X646370Y861042D01*
X645710Y860575D01*
X645315Y859962D01*
X644259Y857413D01*
X641187Y854341D01*
X637412Y852777D01*
X636742Y852325D01*
X636300Y851648D01*
X636159Y850851D01*
X636338Y850063D01*
X636812Y849407D01*
X637412Y849023D01*
X641187Y847459D01*
X644259Y844387D01*
X645922Y840373D01*
X645922Y836027D01*
X644259Y832013D01*
X641187Y828941D01*
X637173Y827278D01*
X632827Y827278D01*
X628813Y828941D01*
X625741Y832013D01*
X624078Y836027D01*
X624078Y840373D01*
X625741Y844387D01*
X628813Y847459D01*
X632588Y849023D01*
X633258Y849475D01*
X633700Y850152D01*
X633841Y850949D01*
X633662Y851737D01*
X633189Y852393D01*
X632588Y852777D01*
X630181Y853774D01*
X629387Y853929D01*
X628596Y853762D01*
X627967Y853334D01*
X610547Y835914D01*
X514060Y835914D01*
X513267Y835753D01*
X512623Y835319D01*
X510956Y833653D01*
X510397Y833275D01*
X509955Y832598D01*
X509813Y831801D01*
X509993Y831013D01*
X510466Y830357D01*
X510967Y830037D01*
X512498Y828506D01*
X513306Y826555D01*
X513306Y824445D01*
X513224Y824246D01*
X513069Y823452D01*
X513236Y822661D01*
X513699Y821997D01*
X514384Y821567D01*
X515101Y821436D01*
X537961Y821436D01*
X538754Y821597D01*
X539398Y822031D01*
X540199Y822832D01*
X540645Y823506D01*
X540794Y824269D01*
X540794Y826555D01*
X541602Y828506D01*
X543094Y829998D01*
X545045Y830806D01*
X547155Y830806D01*
X549106Y829998D01*
X550598Y828506D01*
X551406Y826555D01*
X551406Y824445D01*
X550598Y822494D01*
X549106Y821002D01*
X547155Y820194D01*
X544869Y820194D01*
X544076Y820033D01*
X543432Y819599D01*
X539058Y815225D01*
X538611Y814551D01*
X538463Y813756D01*
X538636Y812966D01*
X539104Y812306D01*
X539792Y811881D01*
X540495Y811756D01*
X540805Y811756D01*
X542756Y810948D01*
X544248Y809456D01*
X545056Y807505D01*
X545056Y805395D01*
X544248Y803444D01*
X542631Y801827D01*
X542185Y801153D01*
X542036Y800391D01*
X542036Y795539D01*
X542197Y794746D01*
X542631Y794102D01*
X613922Y722811D01*
X614596Y722365D01*
X615359Y722216D01*
X622129Y722216D01*
X622922Y722377D01*
X623589Y722834D01*
X624007Y723470D01*
X624656Y725038D01*
X627192Y727574D01*
X630506Y728947D01*
X634094Y728947D01*
X637408Y727574D01*
X639944Y725038D01*
X641317Y721724D01*
X641317Y718136D01*
X639944Y714822D01*
X637408Y712286D01*
X634094Y710913D01*
X630506Y710913D01*
X627192Y712286D01*
X624656Y714822D01*
X624007Y716390D01*
X623555Y717060D01*
X622877Y717502D01*
X622129Y717644D01*
X612623Y717644D01*
X537464Y792803D01*
X537464Y800391D01*
X537303Y801183D01*
X536869Y801827D01*
X535252Y803444D01*
X534444Y805395D01*
X534444Y805705D01*
X534283Y806498D01*
X533826Y807165D01*
X533145Y807601D01*
X532347Y807736D01*
X531560Y807550D01*
X530975Y807142D01*
X529931Y806098D01*
X529485Y805424D01*
X529336Y804661D01*
X529336Y742660D01*
X529497Y741867D01*
X529931Y741223D01*
X531548Y739606D01*
X532356Y737655D01*
X532356Y735545D01*
X531548Y733594D01*
X530056Y732102D01*
X528105Y731294D01*
X525995Y731294D01*
X525796Y731376D01*
X525002Y731531D01*
X524211Y731364D01*
X523547Y730901D01*
X523117Y730217D01*
X522986Y729499D01*
X522986Y581042D01*
X523147Y580249D01*
X523604Y579582D01*
X524286Y579147D01*
X525083Y579011D01*
X525796Y579165D01*
X526301Y579374D01*
X529939Y579374D01*
X533300Y577982D01*
X535872Y575410D01*
X537264Y572049D01*
X537264Y553171D01*
X536701Y551813D01*
X536547Y551019D01*
X536714Y550228D01*
X537177Y549565D01*
X537861Y549134D01*
X538660Y549005D01*
X539445Y549197D01*
X540016Y549598D01*
X543781Y553364D01*
X544227Y554038D01*
X544376Y554801D01*
X544376Y572049D01*
X545768Y575410D01*
X548340Y577982D01*
X551701Y579374D01*
X555339Y579374D01*
X558700Y577982D01*
X561272Y575410D01*
X562664Y572049D01*
X562664Y553171D01*
X561272Y549810D01*
X558700Y547238D01*
X555339Y545846D01*
X551701Y545846D01*
X548340Y547238D01*
X547668Y547911D01*
X546993Y548358D01*
X546198Y548506D01*
X545408Y548332D01*
X544794Y547911D01*
X527997Y531114D01*
X278453Y531114D01*
G37*
G36*
X61616Y918026D02*
X58133Y919468D01*
X55468Y922133D01*
X54026Y925616D01*
X54026Y929385D01*
X55468Y932867D01*
X58133Y935532D01*
X61616Y936974D01*
X62949Y936974D01*
X63742Y937135D01*
X64386Y937569D01*
X66374Y939557D01*
X66821Y940231D01*
X66969Y941026D01*
X66796Y941816D01*
X66328Y942476D01*
X65640Y942901D01*
X64937Y943026D01*
X54919Y943026D01*
X54026Y943919D01*
X54026Y961081D01*
X54919Y961974D01*
X72081Y961974D01*
X72974Y961081D01*
X72974Y944118D01*
X73135Y943325D01*
X73592Y942658D01*
X74274Y942223D01*
X75006Y942086D01*
X152691Y942086D01*
X153483Y942247D01*
X154127Y942681D01*
X155744Y944298D01*
X157695Y945106D01*
X159805Y945106D01*
X161756Y944298D01*
X163248Y942806D01*
X164056Y940855D01*
X164056Y938745D01*
X163248Y936794D01*
X161756Y935302D01*
X159805Y934494D01*
X157695Y934494D01*
X155744Y935302D01*
X154127Y936919D01*
X153453Y937365D01*
X152691Y937514D01*
X71790Y937514D01*
X70997Y937353D01*
X70330Y936896D01*
X69895Y936215D01*
X69759Y935417D01*
X69945Y934630D01*
X70353Y934045D01*
X71532Y932867D01*
X72974Y929385D01*
X72974Y925616D01*
X71532Y922133D01*
X68867Y919468D01*
X65385Y918026D01*
X61616Y918026D01*
G37*
G36*
X61616Y893026D02*
X58133Y894468D01*
X55468Y897133D01*
X54026Y900616D01*
X54026Y904385D01*
X55468Y907867D01*
X58133Y910532D01*
X61616Y911974D01*
X65385Y911974D01*
X68867Y910532D01*
X71532Y907867D01*
X72974Y904385D01*
X72974Y900616D01*
X71532Y897133D01*
X68867Y894468D01*
X65385Y893026D01*
X61616Y893026D01*
G37*
G36*
X61616Y868026D02*
X58133Y869468D01*
X55468Y872133D01*
X54026Y875616D01*
X54026Y879385D01*
X55468Y882867D01*
X58133Y885532D01*
X61616Y886974D01*
X65385Y886974D01*
X68867Y885532D01*
X71532Y882867D01*
X72974Y879385D01*
X72974Y875616D01*
X71532Y872133D01*
X68867Y869468D01*
X65385Y868026D01*
X61616Y868026D01*
G37*
G36*
X387987Y822212D02*
X387987Y827530D01*
X388434Y827530D01*
X390669Y826604D01*
X392379Y824894D01*
X393305Y822659D01*
X393305Y822212D01*
X387987Y822212D01*
G37*
G36*
X381145Y822212D02*
X381145Y822659D01*
X382071Y824894D01*
X383781Y826604D01*
X386016Y827530D01*
X386463Y827530D01*
X386463Y822212D01*
X381145Y822212D01*
G37*
G36*
X399495Y822212D02*
X399495Y822659D01*
X400421Y824894D01*
X402131Y826604D01*
X404366Y827530D01*
X404813Y827530D01*
X404813Y822212D01*
X399495Y822212D01*
G37*
G36*
X406337Y822212D02*
X406337Y827530D01*
X406784Y827530D01*
X409019Y826604D01*
X410729Y824894D01*
X411655Y822659D01*
X411655Y822212D01*
X406337Y822212D01*
G37*
G36*
X378812Y813037D02*
X378812Y818355D01*
X379113Y818355D01*
X379906Y818516D01*
X380573Y818973D01*
X381008Y819655D01*
X381145Y820387D01*
X381145Y820688D01*
X386463Y820688D01*
X386463Y815370D01*
X386162Y815370D01*
X385369Y815209D01*
X384702Y814752D01*
X384267Y814071D01*
X384130Y813338D01*
X384130Y813037D01*
X378812Y813037D01*
G37*
G36*
X390320Y813037D02*
X390320Y813338D01*
X390159Y814131D01*
X389702Y814798D01*
X389021Y815233D01*
X388288Y815370D01*
X387987Y815370D01*
X387987Y820688D01*
X393305Y820688D01*
X393305Y820387D01*
X393466Y819594D01*
X393923Y818927D01*
X394605Y818492D01*
X395337Y818355D01*
X395638Y818355D01*
X395638Y813037D01*
X390320Y813037D01*
G37*
G36*
X397162Y813037D02*
X397162Y818355D01*
X397463Y818355D01*
X398256Y818516D01*
X398923Y818973D01*
X399358Y819655D01*
X399495Y820387D01*
X399495Y820688D01*
X404813Y820688D01*
X404813Y815370D01*
X404512Y815370D01*
X403719Y815209D01*
X403052Y814752D01*
X402617Y814071D01*
X402480Y813338D01*
X402480Y813037D01*
X397162Y813037D01*
G37*
G36*
X408670Y813037D02*
X408670Y813338D01*
X408509Y814131D01*
X408052Y814798D01*
X407371Y815233D01*
X406638Y815370D01*
X406337Y815370D01*
X406337Y820688D01*
X411655Y820688D01*
X411655Y820387D01*
X411816Y819594D01*
X412273Y818927D01*
X412955Y818492D01*
X413687Y818355D01*
X413988Y818355D01*
X413988Y813037D01*
X408670Y813037D01*
G37*
G36*
X371970Y813037D02*
X371970Y813484D01*
X372896Y815719D01*
X374606Y817429D01*
X376841Y818355D01*
X377288Y818355D01*
X377288Y813037D01*
X371970Y813037D01*
G37*
G36*
X415512Y813037D02*
X415512Y818355D01*
X415959Y818355D01*
X418194Y817429D01*
X419904Y815719D01*
X420830Y813484D01*
X420830Y813037D01*
X415512Y813037D01*
G37*
G36*
X415512Y806195D02*
X415512Y811513D01*
X420830Y811513D01*
X420830Y811066D01*
X419904Y808831D01*
X418194Y807121D01*
X415959Y806195D01*
X415512Y806195D01*
G37*
G36*
X406337Y803862D02*
X406337Y809180D01*
X406638Y809180D01*
X407431Y809341D01*
X408098Y809798D01*
X408533Y810480D01*
X408670Y811212D01*
X408670Y811513D01*
X413988Y811513D01*
X413988Y806195D01*
X413687Y806195D01*
X412894Y806034D01*
X412227Y805577D01*
X411792Y804896D01*
X411655Y804163D01*
X411655Y803862D01*
X406337Y803862D01*
G37*
G36*
X399495Y803862D02*
X399495Y804163D01*
X399334Y804956D01*
X398877Y805623D01*
X398196Y806058D01*
X397463Y806195D01*
X397162Y806195D01*
X397162Y811513D01*
X402480Y811513D01*
X402480Y811212D01*
X402641Y810419D01*
X403098Y809752D01*
X403780Y809317D01*
X404512Y809180D01*
X404813Y809180D01*
X404813Y803862D01*
X399495Y803862D01*
G37*
G36*
X387987Y803862D02*
X387987Y809180D01*
X388288Y809180D01*
X389081Y809341D01*
X389748Y809798D01*
X390183Y810480D01*
X390320Y811212D01*
X390320Y811513D01*
X395638Y811513D01*
X395638Y806195D01*
X395337Y806195D01*
X394544Y806034D01*
X393877Y805577D01*
X393442Y804896D01*
X393305Y804163D01*
X393305Y803862D01*
X387987Y803862D01*
G37*
G36*
X376841Y806195D02*
X374606Y807121D01*
X372896Y808831D01*
X371970Y811066D01*
X371970Y811513D01*
X377288Y811513D01*
X377288Y806195D01*
X376841Y806195D01*
G37*
G36*
X381145Y803862D02*
X381145Y804163D01*
X380984Y804956D01*
X380527Y805623D01*
X379846Y806058D01*
X379113Y806195D01*
X378812Y806195D01*
X378812Y811513D01*
X384130Y811513D01*
X384130Y811212D01*
X384291Y810419D01*
X384748Y809752D01*
X385430Y809317D01*
X386162Y809180D01*
X386463Y809180D01*
X386463Y803862D01*
X381145Y803862D01*
G37*
G36*
X408670Y794687D02*
X408670Y794988D01*
X408509Y795781D01*
X408052Y796448D01*
X407371Y796883D01*
X406638Y797020D01*
X406337Y797020D01*
X406337Y802338D01*
X411655Y802338D01*
X411655Y802037D01*
X411816Y801244D01*
X412273Y800577D01*
X412955Y800142D01*
X413687Y800005D01*
X413988Y800005D01*
X413988Y794687D01*
X408670Y794687D01*
G37*
G36*
X397162Y794687D02*
X397162Y800005D01*
X397463Y800005D01*
X398256Y800166D01*
X398923Y800623D01*
X399358Y801305D01*
X399495Y802037D01*
X399495Y802338D01*
X404813Y802338D01*
X404813Y797020D01*
X404512Y797020D01*
X403719Y796859D01*
X403052Y796402D01*
X402617Y795721D01*
X402480Y794988D01*
X402480Y794687D01*
X397162Y794687D01*
G37*
G36*
X390320Y794687D02*
X390320Y794988D01*
X390159Y795781D01*
X389702Y796448D01*
X389021Y796883D01*
X388288Y797020D01*
X387987Y797020D01*
X387987Y802338D01*
X393305Y802338D01*
X393305Y802037D01*
X393466Y801244D01*
X393923Y800577D01*
X394605Y800142D01*
X395337Y800005D01*
X395638Y800005D01*
X395638Y794687D01*
X390320Y794687D01*
G37*
G36*
X378812Y794687D02*
X378812Y800005D01*
X379113Y800005D01*
X379906Y800166D01*
X380573Y800623D01*
X381008Y801305D01*
X381145Y802037D01*
X381145Y802338D01*
X386463Y802338D01*
X386463Y797020D01*
X386162Y797020D01*
X385369Y796859D01*
X384702Y796402D01*
X384267Y795721D01*
X384130Y794988D01*
X384130Y794687D01*
X378812Y794687D01*
G37*
G36*
X371970Y794687D02*
X371970Y795134D01*
X372896Y797369D01*
X374606Y799079D01*
X376841Y800005D01*
X377288Y800005D01*
X377288Y794687D01*
X371970Y794687D01*
G37*
G36*
X415512Y794687D02*
X415512Y800005D01*
X415959Y800005D01*
X418194Y799079D01*
X419904Y797369D01*
X420830Y795134D01*
X420830Y794687D01*
X415512Y794687D01*
G37*
G36*
X415512Y787845D02*
X415512Y793163D01*
X420830Y793163D01*
X420830Y792716D01*
X419904Y790481D01*
X418194Y788771D01*
X415959Y787845D01*
X415512Y787845D01*
G37*
G36*
X376841Y787845D02*
X374606Y788771D01*
X372896Y790481D01*
X371970Y792716D01*
X371970Y793163D01*
X377288Y793163D01*
X377288Y787845D01*
X376841Y787845D01*
G37*
G36*
X381145Y785512D02*
X381145Y785813D01*
X380984Y786606D01*
X380527Y787273D01*
X379846Y787708D01*
X379113Y787845D01*
X378812Y787845D01*
X378812Y793163D01*
X384130Y793163D01*
X384130Y792862D01*
X384291Y792069D01*
X384748Y791402D01*
X385430Y790967D01*
X386162Y790830D01*
X386463Y790830D01*
X386463Y785512D01*
X381145Y785512D01*
G37*
G36*
X387987Y785512D02*
X387987Y790830D01*
X388288Y790830D01*
X389081Y790991D01*
X389748Y791448D01*
X390183Y792130D01*
X390320Y792862D01*
X390320Y793163D01*
X395638Y793163D01*
X395638Y787845D01*
X395337Y787845D01*
X394544Y787684D01*
X393877Y787227D01*
X393442Y786546D01*
X393305Y785813D01*
X393305Y785512D01*
X387987Y785512D01*
G37*
G36*
X399495Y785512D02*
X399495Y785813D01*
X399334Y786606D01*
X398877Y787273D01*
X398196Y787708D01*
X397463Y787845D01*
X397162Y787845D01*
X397162Y793163D01*
X402480Y793163D01*
X402480Y792862D01*
X402641Y792069D01*
X403098Y791402D01*
X403780Y790967D01*
X404512Y790830D01*
X404813Y790830D01*
X404813Y785512D01*
X399495Y785512D01*
G37*
G36*
X406337Y785512D02*
X406337Y790830D01*
X406638Y790830D01*
X407431Y790991D01*
X408098Y791448D01*
X408533Y792130D01*
X408670Y792862D01*
X408670Y793163D01*
X413988Y793163D01*
X413988Y787845D01*
X413687Y787845D01*
X412894Y787684D01*
X412227Y787227D01*
X411792Y786546D01*
X411655Y785813D01*
X411655Y785512D01*
X406337Y785512D01*
G37*
G36*
X633062Y770730D02*
X633062Y780001D01*
X634296Y780001D01*
X637983Y778474D01*
X640806Y775651D01*
X642333Y771964D01*
X642333Y770730D01*
X633062Y770730D01*
G37*
G36*
X622267Y770730D02*
X622267Y771964D01*
X623794Y775651D01*
X626617Y778474D01*
X630304Y780001D01*
X631538Y780001D01*
X631538Y770730D01*
X622267Y770730D01*
G37*
G36*
X630304Y759935D02*
X626617Y761462D01*
X623794Y764285D01*
X622267Y767972D01*
X622267Y769206D01*
X631538Y769206D01*
X631538Y759935D01*
X630304Y759935D01*
G37*
G36*
X633062Y759935D02*
X633062Y769206D01*
X642333Y769206D01*
X642333Y767972D01*
X640806Y764285D01*
X637983Y761462D01*
X634296Y759935D01*
X633062Y759935D01*
G37*
G36*
X33545Y735138D02*
X31594Y735946D01*
X30102Y737438D01*
X29294Y739389D01*
X29294Y741499D01*
X30102Y743450D01*
X31594Y744942D01*
X33545Y745750D01*
X34035Y745750D01*
X34828Y745911D01*
X35472Y746345D01*
X41983Y752856D01*
X191385Y752856D01*
X192178Y753017D01*
X192822Y753451D01*
X197299Y757928D01*
X197745Y758602D01*
X197894Y759365D01*
X197894Y759855D01*
X198702Y761806D01*
X200194Y763298D01*
X202145Y764106D01*
X204255Y764106D01*
X206206Y763298D01*
X207698Y761806D01*
X208506Y759855D01*
X208506Y757745D01*
X207698Y755794D01*
X206206Y754302D01*
X204255Y753494D01*
X203765Y753494D01*
X202972Y753333D01*
X202328Y752899D01*
X195173Y745744D01*
X45771Y745744D01*
X44978Y745583D01*
X44334Y745149D01*
X40501Y741316D01*
X40055Y740642D01*
X39906Y739879D01*
X39906Y739389D01*
X39098Y737438D01*
X37606Y735946D01*
X35655Y735138D01*
X33545Y735138D01*
G37*
G36*
X630506Y736059D02*
X627192Y737432D01*
X624656Y739968D01*
X623283Y743282D01*
X623283Y746870D01*
X624656Y750184D01*
X627192Y752720D01*
X630506Y754093D01*
X634094Y754093D01*
X637408Y752720D01*
X639944Y750184D01*
X641317Y746870D01*
X641317Y743282D01*
X639944Y739968D01*
X637408Y737432D01*
X634094Y736059D01*
X630506Y736059D01*
G37*
G36*
X630506Y686021D02*
X627192Y687394D01*
X624656Y689930D01*
X623283Y693244D01*
X623283Y696832D01*
X624656Y700146D01*
X627192Y702682D01*
X630506Y704055D01*
X634094Y704055D01*
X637408Y702682D01*
X639944Y700146D01*
X641317Y696832D01*
X641317Y693244D01*
X639944Y689930D01*
X637408Y687394D01*
X634094Y686021D01*
X630506Y686021D01*
G37*
G36*
X630506Y660875D02*
X627192Y662248D01*
X624656Y664784D01*
X623283Y668098D01*
X623283Y671686D01*
X624656Y675000D01*
X627192Y677536D01*
X630506Y678909D01*
X634094Y678909D01*
X637408Y677536D01*
X639944Y675000D01*
X641317Y671686D01*
X641317Y668098D01*
X639944Y664784D01*
X637408Y662248D01*
X634094Y660875D01*
X630506Y660875D01*
G37*
G36*
X182347Y638236D02*
X179016Y639616D01*
X176466Y642166D01*
X175086Y645497D01*
X175086Y649103D01*
X176466Y652434D01*
X179016Y654984D01*
X182347Y656364D01*
X185953Y656364D01*
X189284Y654984D01*
X191834Y652434D01*
X193214Y649103D01*
X193214Y645497D01*
X191834Y642166D01*
X189284Y639616D01*
X185953Y638236D01*
X182347Y638236D01*
G37*
G36*
X55347Y638236D02*
X52016Y639616D01*
X49466Y642166D01*
X48086Y645497D01*
X48086Y649103D01*
X49466Y652434D01*
X52016Y654984D01*
X55347Y656364D01*
X58953Y656364D01*
X62284Y654984D01*
X64834Y652434D01*
X66214Y649103D01*
X66214Y645497D01*
X64834Y642166D01*
X62284Y639616D01*
X58953Y638236D01*
X55347Y638236D01*
G37*
G36*
X630506Y635983D02*
X627192Y637356D01*
X624656Y639892D01*
X623283Y643206D01*
X623283Y646794D01*
X624656Y650108D01*
X627192Y652644D01*
X630506Y654017D01*
X634094Y654017D01*
X637408Y652644D01*
X639944Y650108D01*
X641317Y646794D01*
X641317Y643206D01*
X639944Y639892D01*
X637408Y637356D01*
X634094Y635983D01*
X630506Y635983D01*
G37*
G36*
X96012Y598062D02*
X96012Y607380D01*
X97255Y607380D01*
X100960Y605845D01*
X103795Y603010D01*
X105330Y599305D01*
X105330Y598062D01*
X96012Y598062D01*
G37*
G36*
X223012Y598062D02*
X223012Y607380D01*
X224255Y607380D01*
X227960Y605845D01*
X230795Y603010D01*
X232330Y599305D01*
X232330Y598062D01*
X223012Y598062D01*
G37*
G36*
X212170Y598062D02*
X212170Y599305D01*
X213705Y603010D01*
X216540Y605845D01*
X220245Y607380D01*
X221488Y607380D01*
X221488Y598062D01*
X212170Y598062D01*
G37*
G36*
X85170Y598062D02*
X85170Y599305D01*
X86705Y603010D01*
X89540Y605845D01*
X93245Y607380D01*
X94488Y607380D01*
X94488Y598062D01*
X85170Y598062D01*
G37*
G36*
X223012Y587220D02*
X223012Y596538D01*
X232330Y596538D01*
X232330Y595295D01*
X230795Y591590D01*
X227960Y588755D01*
X224255Y587220D01*
X223012Y587220D01*
G37*
G36*
X220245Y587220D02*
X216540Y588755D01*
X213705Y591590D01*
X212170Y595295D01*
X212170Y596538D01*
X221488Y596538D01*
X221488Y587220D01*
X220245Y587220D01*
G37*
G36*
X96012Y587220D02*
X96012Y596538D01*
X105330Y596538D01*
X105330Y595295D01*
X103795Y591590D01*
X100960Y588755D01*
X97255Y587220D01*
X96012Y587220D01*
G37*
G36*
X93245Y587220D02*
X89540Y588755D01*
X86705Y591590D01*
X85170Y595295D01*
X85170Y596538D01*
X94488Y596538D01*
X94488Y587220D01*
X93245Y587220D01*
G37*
G36*
X619560Y563372D02*
X619560Y572251D01*
X621107Y575985D01*
X623965Y578843D01*
X627699Y580390D01*
X628958Y580390D01*
X628958Y563372D01*
X619560Y563372D01*
G37*
G36*
X630482Y563372D02*
X630482Y580390D01*
X631741Y580390D01*
X635475Y578843D01*
X638333Y575985D01*
X639880Y572251D01*
X639880Y563372D01*
X630482Y563372D01*
G37*
G36*
X602501Y545846D02*
X599140Y547238D01*
X596568Y549810D01*
X595176Y553171D01*
X595176Y572049D01*
X596568Y575410D01*
X599140Y577982D01*
X602501Y579374D01*
X606139Y579374D01*
X609500Y577982D01*
X612072Y575410D01*
X613464Y572049D01*
X613464Y553171D01*
X612072Y549810D01*
X609500Y547238D01*
X606139Y545846D01*
X602501Y545846D01*
G37*
G36*
X577101Y545846D02*
X573740Y547238D01*
X571168Y549810D01*
X569776Y553171D01*
X569776Y572049D01*
X571168Y575410D01*
X573740Y577982D01*
X577101Y579374D01*
X580739Y579374D01*
X584100Y577982D01*
X586672Y575410D01*
X588064Y572049D01*
X588064Y553171D01*
X586672Y549810D01*
X584100Y547238D01*
X580739Y545846D01*
X577101Y545846D01*
G37*
G36*
X630482Y544830D02*
X630482Y561848D01*
X639880Y561848D01*
X639880Y552969D01*
X638333Y549235D01*
X635475Y546377D01*
X631741Y544830D01*
X630482Y544830D01*
G37*
G36*
X627699Y544830D02*
X623965Y546377D01*
X621107Y549235D01*
X619560Y552969D01*
X619560Y561848D01*
X628958Y561848D01*
X628958Y544830D01*
X627699Y544830D01*
G37*
%LPD*%
D10*
X57150Y647300D03*
X95250Y597300D03*
D11*
X63500Y952500D03*
D12*
X63500Y927500D03*
X63500Y902500D03*
X63500Y877500D03*
D13*
X632300Y645000D03*
X632300Y669892D03*
X632300Y695038D03*
X632300Y719930D03*
X632300Y745076D03*
X632300Y769968D03*
D14*
X635000Y838200D03*
X635000Y863600D03*
X635000Y889000D03*
X635000Y914400D03*
X635000Y939800D03*
X635000Y965200D03*
D15*
X274120Y570230D02*
X274120Y554990D01*
X299520Y554990D02*
X299520Y570230D01*
X324920Y570230D02*
X324920Y554990D01*
X350320Y554990D02*
X350320Y570230D01*
X375720Y570230D02*
X375720Y554990D01*
X401120Y554990D02*
X401120Y570230D01*
X426520Y570230D02*
X426520Y554990D01*
X451920Y554990D02*
X451920Y570230D01*
X477320Y570230D02*
X477320Y554990D01*
X502720Y554990D02*
X502720Y570230D01*
X528120Y570230D02*
X528120Y554990D01*
X553520Y554990D02*
X553520Y570230D01*
X578920Y570230D02*
X578920Y554990D01*
X604320Y554990D02*
X604320Y570230D01*
X629720Y570230D02*
X629720Y554990D01*
D10*
X184150Y647300D03*
X222250Y597300D03*
D16*
X387225Y821450D03*
X405575Y821450D03*
X378050Y812275D03*
X396400Y812275D03*
X414750Y812275D03*
X387225Y803100D03*
X405575Y803100D03*
X378050Y793925D03*
X396400Y793925D03*
X414750Y793925D03*
X387225Y784750D03*
X405575Y784750D03*
D17*
X203200Y723900D03*
X63500Y774700D03*
X73500Y596900D03*
X177800Y596900D03*
X386080Y748030D03*
X290830Y876300D03*
X604520Y805180D03*
X597060Y955962D03*
X137000Y972042D03*
X649758Y587370D03*
X34600Y740444D03*
D18*
X193700Y749300D02*
X203200Y758800D01*
D17*
X203200Y758800D03*
D18*
X193700Y749300D02*
X43456Y749300D01*
X34600Y740444D01*
D17*
X653154Y863600D03*
X659758Y914400D03*
D18*
X659758Y870204D02*
X653154Y863600D01*
X659758Y870204D02*
X659758Y914400D01*
D19*
X508000Y825500D02*
X501650Y831850D01*
X501650Y844550D01*
X546100Y889000D01*
X635000Y889000D01*
D17*
X508000Y825500D03*
D19*
X508000Y838200D02*
X609600Y838200D01*
X635000Y863600D01*
D17*
X508000Y838200D03*
D19*
X476250Y850900D02*
X342900Y850900D01*
X476250Y850900D02*
X565150Y939800D01*
X241300Y933450D02*
X184150Y876300D01*
X241300Y933450D02*
X241300Y939800D01*
X254000Y939800D01*
X342900Y850900D01*
D17*
X342900Y850900D03*
X565150Y939800D03*
X184150Y876300D03*
D19*
X247650Y933450D02*
X304800Y876300D01*
X304800Y781050D01*
D17*
X247650Y933450D03*
X304800Y781050D03*
D19*
X247650Y800100D02*
X247650Y920750D01*
X247650Y800100D02*
X304800Y742950D01*
D17*
X247650Y920750D03*
X304800Y742950D03*
D19*
X527050Y806450D02*
X539750Y819150D01*
X546100Y825500D01*
X527050Y806450D02*
X527050Y736600D01*
X260350Y812800D02*
X260350Y825500D01*
X260350Y812800D02*
X298450Y774700D01*
X457200Y774700D01*
X501650Y819150D01*
X539750Y819150D01*
D17*
X546100Y825500D03*
X527050Y736600D03*
X260350Y825500D03*
D19*
X539750Y806450D02*
X539750Y793750D01*
X613570Y719930D01*
X632300Y719930D01*
D17*
X539750Y806450D03*
D19*
X444500Y730250D02*
X355600Y730250D01*
X349250Y736600D01*
X336550Y736600D01*
X279400Y679450D01*
X279400Y565150D01*
X274120Y562610D01*
D17*
X444500Y730250D03*
D19*
X463550Y723900D02*
X355600Y723900D01*
X349250Y730250D01*
X336550Y730250D01*
X304800Y698500D01*
X304800Y565150D01*
X299520Y562610D01*
D17*
X463550Y723900D03*
D19*
X323850Y698500D02*
X323850Y565150D01*
X324920Y562610D01*
D17*
X323850Y698500D03*
D19*
X361950Y685800D02*
X361950Y571500D01*
X355600Y565150D01*
X350320Y562610D01*
D17*
X361950Y685800D03*
D19*
X374650Y692150D02*
X342900Y723900D01*
X374650Y692150D02*
X374650Y565150D01*
X375720Y562610D01*
D17*
X342900Y723900D03*
D19*
X450850Y685800D02*
X450850Y609600D01*
X406400Y565150D01*
X401120Y562610D01*
D17*
X450850Y685800D03*
D19*
X469900Y736600D02*
X469900Y603250D01*
X431800Y565150D01*
X426520Y562610D01*
D17*
X469900Y736600D03*
D19*
X476250Y742950D02*
X469900Y749300D01*
X476250Y742950D02*
X476250Y584200D01*
X457200Y565150D01*
X451920Y562610D01*
D17*
X469900Y749300D03*
D19*
X508000Y812800D02*
X508000Y590550D01*
X482600Y565150D01*
X477320Y562610D01*
D17*
X508000Y812800D03*
D19*
X520700Y812800D02*
X520700Y577850D01*
X508000Y565150D01*
X502720Y562610D01*
D17*
X520700Y812800D03*
D19*
X342900Y749300D02*
X260350Y666750D01*
X260350Y552450D01*
X279400Y533400D01*
X527050Y533400D01*
X552450Y558800D01*
X553520Y562610D01*
D17*
X342900Y749300D03*
D19*
X158750Y939800D02*
X69850Y939800D01*
X63500Y933450D01*
X63500Y927500D01*
D17*
X158750Y939800D03*
M02*
