G04 EAGLE Gerber RS-274X export*
G75*
%MOMM*%
%FSLAX34Y34*%
%LPD*%
%INSilkscreen Bottom*%
%IPPOS*%
%AMOC8*
5,1,8,0,0,1.08239X$1,22.5*%
G01*
%ADD10C,0.508000*%
D10*
X632300Y597756D02*
X632422Y597758D01*
X632544Y597764D01*
X632666Y597774D01*
X632787Y597787D01*
X632908Y597805D01*
X633028Y597826D01*
X633148Y597852D01*
X633266Y597881D01*
X633384Y597913D01*
X633501Y597950D01*
X633616Y597990D01*
X633730Y598034D01*
X633842Y598082D01*
X633953Y598133D01*
X634062Y598188D01*
X634170Y598246D01*
X634275Y598308D01*
X634378Y598373D01*
X634480Y598441D01*
X634579Y598513D01*
X634675Y598587D01*
X634770Y598665D01*
X634861Y598746D01*
X634951Y598829D01*
X635037Y598915D01*
X635120Y599005D01*
X635201Y599096D01*
X635279Y599191D01*
X635353Y599287D01*
X635425Y599386D01*
X635493Y599488D01*
X635558Y599591D01*
X635620Y599696D01*
X635678Y599804D01*
X635733Y599913D01*
X635784Y600024D01*
X635832Y600136D01*
X635876Y600250D01*
X635916Y600365D01*
X635953Y600482D01*
X635985Y600600D01*
X636014Y600718D01*
X636040Y600838D01*
X636061Y600958D01*
X636079Y601079D01*
X636092Y601200D01*
X636102Y601322D01*
X636108Y601444D01*
X636110Y601566D01*
X636108Y601688D01*
X636102Y601810D01*
X636092Y601932D01*
X636079Y602053D01*
X636061Y602174D01*
X636040Y602294D01*
X636014Y602414D01*
X635985Y602532D01*
X635953Y602650D01*
X635916Y602767D01*
X635876Y602882D01*
X635832Y602996D01*
X635784Y603108D01*
X635733Y603219D01*
X635678Y603328D01*
X635620Y603436D01*
X635558Y603541D01*
X635493Y603644D01*
X635425Y603746D01*
X635353Y603845D01*
X635279Y603941D01*
X635201Y604036D01*
X635120Y604127D01*
X635037Y604217D01*
X634951Y604303D01*
X634861Y604386D01*
X634770Y604467D01*
X634675Y604545D01*
X634579Y604619D01*
X634480Y604691D01*
X634378Y604759D01*
X634275Y604824D01*
X634170Y604886D01*
X634062Y604944D01*
X633953Y604999D01*
X633842Y605050D01*
X633730Y605098D01*
X633616Y605142D01*
X633501Y605182D01*
X633384Y605219D01*
X633266Y605251D01*
X633148Y605280D01*
X633028Y605306D01*
X632908Y605327D01*
X632787Y605345D01*
X632666Y605358D01*
X632544Y605368D01*
X632422Y605374D01*
X632300Y605376D01*
X632178Y605374D01*
X632056Y605368D01*
X631934Y605358D01*
X631813Y605345D01*
X631692Y605327D01*
X631572Y605306D01*
X631452Y605280D01*
X631334Y605251D01*
X631216Y605219D01*
X631099Y605182D01*
X630984Y605142D01*
X630870Y605098D01*
X630758Y605050D01*
X630647Y604999D01*
X630538Y604944D01*
X630430Y604886D01*
X630325Y604824D01*
X630222Y604759D01*
X630120Y604691D01*
X630021Y604619D01*
X629925Y604545D01*
X629830Y604467D01*
X629739Y604386D01*
X629649Y604303D01*
X629563Y604217D01*
X629480Y604127D01*
X629399Y604036D01*
X629321Y603941D01*
X629247Y603845D01*
X629175Y603746D01*
X629107Y603644D01*
X629042Y603541D01*
X628980Y603436D01*
X628922Y603328D01*
X628867Y603219D01*
X628816Y603108D01*
X628768Y602996D01*
X628724Y602882D01*
X628684Y602767D01*
X628647Y602650D01*
X628615Y602532D01*
X628586Y602414D01*
X628560Y602294D01*
X628539Y602174D01*
X628521Y602053D01*
X628508Y601932D01*
X628498Y601810D01*
X628492Y601688D01*
X628490Y601566D01*
X628492Y601444D01*
X628498Y601322D01*
X628508Y601200D01*
X628521Y601079D01*
X628539Y600958D01*
X628560Y600838D01*
X628586Y600718D01*
X628615Y600600D01*
X628647Y600482D01*
X628684Y600365D01*
X628724Y600250D01*
X628768Y600136D01*
X628816Y600024D01*
X628867Y599913D01*
X628922Y599804D01*
X628980Y599696D01*
X629042Y599591D01*
X629107Y599488D01*
X629175Y599386D01*
X629247Y599287D01*
X629321Y599191D01*
X629399Y599096D01*
X629480Y599005D01*
X629563Y598915D01*
X629649Y598829D01*
X629739Y598746D01*
X629830Y598665D01*
X629925Y598587D01*
X630021Y598513D01*
X630120Y598441D01*
X630222Y598373D01*
X630325Y598308D01*
X630430Y598246D01*
X630538Y598188D01*
X630647Y598133D01*
X630758Y598082D01*
X630870Y598034D01*
X630984Y597990D01*
X631099Y597950D01*
X631216Y597913D01*
X631334Y597881D01*
X631452Y597852D01*
X631572Y597826D01*
X631692Y597805D01*
X631813Y597787D01*
X631934Y597774D01*
X632056Y597764D01*
X632178Y597758D01*
X632300Y597756D01*
M02*
