G04 EAGLE Gerber RS-274X export*
G75*
%MOMM*%
%FSLAX34Y34*%
%LPD*%
%INSilkscreen Top*%
%IPPOS*%
%AMOC8*
5,1,8,0,0,1.08239X$1,22.5*%
G01*
%ADD10C,0.200000*%
%ADD11C,0.400000*%
%ADD12C,0.127000*%
%ADD13C,0.152400*%
%ADD14C,0.508000*%
%ADD15C,0.203200*%
G36*
X72928Y682894D02*
X74662Y682894D01*
X74662Y684138D01*
X72928Y684138D01*
X72928Y692441D01*
X71272Y692441D01*
X65623Y684120D01*
X65623Y682894D01*
X71439Y682894D01*
X71439Y680100D01*
X72928Y680100D01*
X72928Y682894D01*
G37*
G36*
X87065Y692441D02*
X85305Y692441D01*
X81907Y683752D01*
X81171Y681571D01*
X80435Y683752D01*
X77019Y692441D01*
X75259Y692441D01*
X80295Y680100D01*
X82029Y680100D01*
X87065Y692441D01*
G37*
G36*
X64316Y681440D02*
X57879Y681440D01*
X58031Y681750D01*
X58225Y682065D01*
X58460Y682387D01*
X58737Y682714D01*
X59061Y683055D01*
X59436Y683416D01*
X59862Y683797D01*
X60340Y684199D01*
X61181Y684895D01*
X61875Y685493D01*
X62421Y685994D01*
X62819Y686397D01*
X63123Y686752D01*
X63387Y687107D01*
X63611Y687462D01*
X63795Y687816D01*
X63939Y688172D01*
X64042Y688528D01*
X64103Y688885D01*
X64124Y689244D01*
X64108Y689637D01*
X64061Y690008D01*
X63983Y690355D01*
X63873Y690679D01*
X63732Y690980D01*
X63560Y691258D01*
X63356Y691513D01*
X63121Y691744D01*
X62857Y691951D01*
X62565Y692130D01*
X62247Y692281D01*
X61902Y692405D01*
X61530Y692501D01*
X61131Y692570D01*
X60705Y692611D01*
X60252Y692625D01*
X59837Y692611D01*
X59441Y692570D01*
X59065Y692502D01*
X58708Y692406D01*
X58370Y692283D01*
X58051Y692132D01*
X57752Y691954D01*
X57472Y691749D01*
X57215Y691520D01*
X56987Y691273D01*
X56788Y691007D01*
X56616Y690722D01*
X56474Y690418D01*
X56359Y690095D01*
X56273Y689753D01*
X56215Y689393D01*
X57826Y689244D01*
X57863Y689484D01*
X57917Y689711D01*
X57987Y689924D01*
X58075Y690123D01*
X58179Y690308D01*
X58300Y690480D01*
X58438Y690637D01*
X58593Y690781D01*
X58761Y690909D01*
X58941Y691021D01*
X59132Y691115D01*
X59334Y691192D01*
X59547Y691251D01*
X59771Y691294D01*
X60006Y691320D01*
X60252Y691328D01*
X60510Y691320D01*
X60753Y691293D01*
X60982Y691250D01*
X61196Y691188D01*
X61396Y691109D01*
X61581Y691013D01*
X61752Y690899D01*
X61908Y690768D01*
X62047Y690621D01*
X62168Y690459D01*
X62271Y690283D01*
X62354Y690093D01*
X62420Y689889D01*
X62466Y689671D01*
X62494Y689438D01*
X62503Y689191D01*
X62482Y688825D01*
X62417Y688478D01*
X62309Y688150D01*
X62157Y687843D01*
X61971Y687548D01*
X61758Y687260D01*
X61518Y686979D01*
X61251Y686704D01*
X60656Y686161D01*
X59994Y685618D01*
X59294Y685052D01*
X58588Y684440D01*
X58238Y684113D01*
X57895Y683768D01*
X57561Y683404D01*
X57235Y683021D01*
X56926Y682614D01*
X56641Y682177D01*
X56380Y681710D01*
X56145Y681212D01*
X56145Y680100D01*
X64316Y680100D01*
X64316Y681440D01*
G37*
%LPC*%
G36*
X67077Y684138D02*
X67217Y684313D01*
X67690Y684961D01*
X70852Y689621D01*
X71193Y690199D01*
X71439Y690663D01*
X71439Y684138D01*
X67077Y684138D01*
G37*
%LPD*%
G36*
X128027Y718658D02*
X128461Y718697D01*
X128882Y718762D01*
X129289Y718853D01*
X129682Y718970D01*
X130062Y719113D01*
X130427Y719282D01*
X130779Y719477D01*
X131114Y719697D01*
X131430Y719941D01*
X131727Y720208D01*
X132004Y720499D01*
X132262Y720815D01*
X132501Y721154D01*
X132721Y721516D01*
X132921Y721903D01*
X131554Y722586D01*
X131386Y722275D01*
X131208Y721985D01*
X131020Y721714D01*
X130821Y721463D01*
X130613Y721233D01*
X130395Y721022D01*
X130166Y720832D01*
X129927Y720661D01*
X129679Y720511D01*
X129420Y720381D01*
X129151Y720271D01*
X128873Y720180D01*
X128584Y720110D01*
X128285Y720060D01*
X127976Y720030D01*
X127657Y720020D01*
X127164Y720041D01*
X126698Y720106D01*
X126257Y720214D01*
X125843Y720365D01*
X125455Y720559D01*
X125092Y720796D01*
X124757Y721076D01*
X124447Y721399D01*
X124169Y721758D01*
X123928Y722145D01*
X123724Y722559D01*
X123557Y723001D01*
X123427Y723471D01*
X123334Y723969D01*
X123279Y724494D01*
X123260Y725047D01*
X123278Y725606D01*
X123331Y726134D01*
X123420Y726631D01*
X123545Y727098D01*
X123705Y727534D01*
X123901Y727940D01*
X124132Y728315D01*
X124399Y728660D01*
X124698Y728969D01*
X125025Y729237D01*
X125381Y729463D01*
X125765Y729649D01*
X126178Y729793D01*
X126619Y729896D01*
X127089Y729958D01*
X127587Y729978D01*
X127907Y729969D01*
X128217Y729943D01*
X128516Y729898D01*
X128803Y729836D01*
X129079Y729756D01*
X129345Y729658D01*
X129599Y729543D01*
X129842Y729409D01*
X130072Y729259D01*
X130285Y729093D01*
X130482Y728911D01*
X130662Y728713D01*
X130826Y728499D01*
X130974Y728269D01*
X131106Y728024D01*
X131222Y727762D01*
X132807Y728288D01*
X132640Y728655D01*
X132452Y728999D01*
X132242Y729320D01*
X132010Y729617D01*
X131756Y729891D01*
X131480Y730142D01*
X131182Y730370D01*
X130862Y730574D01*
X130522Y730755D01*
X130161Y730911D01*
X129779Y731044D01*
X129378Y731152D01*
X128956Y731236D01*
X128514Y731297D01*
X128052Y731333D01*
X127569Y731345D01*
X127222Y731338D01*
X126883Y731319D01*
X126555Y731286D01*
X126236Y731240D01*
X125926Y731181D01*
X125626Y731109D01*
X125336Y731025D01*
X125056Y730926D01*
X124784Y730815D01*
X124523Y730691D01*
X124271Y730554D01*
X124029Y730404D01*
X123573Y730064D01*
X123155Y729672D01*
X122781Y729234D01*
X122458Y728755D01*
X122184Y728237D01*
X122065Y727963D01*
X121959Y727679D01*
X121866Y727385D01*
X121785Y727081D01*
X121717Y726767D01*
X121661Y726443D01*
X121617Y726109D01*
X121586Y725765D01*
X121567Y725411D01*
X121561Y725047D01*
X121572Y724563D01*
X121606Y724095D01*
X121661Y723644D01*
X121739Y723209D01*
X121840Y722791D01*
X121962Y722389D01*
X122107Y722004D01*
X122275Y721636D01*
X122463Y721286D01*
X122672Y720957D01*
X122901Y720649D01*
X123151Y720362D01*
X123420Y720095D01*
X123710Y719849D01*
X124020Y719624D01*
X124350Y719420D01*
X124699Y719238D01*
X125063Y719081D01*
X125443Y718948D01*
X125838Y718839D01*
X126250Y718754D01*
X126677Y718693D01*
X127119Y718657D01*
X127578Y718645D01*
X128027Y718658D01*
G37*
G36*
X142688Y720160D02*
X139683Y720160D01*
X139683Y731161D01*
X138230Y731161D01*
X135313Y729155D01*
X135313Y727666D01*
X138098Y729654D01*
X138098Y720160D01*
X134954Y720160D01*
X134954Y718820D01*
X142688Y718820D01*
X142688Y720160D01*
G37*
G36*
X83837Y822898D02*
X84272Y822937D01*
X84693Y823002D01*
X85100Y823093D01*
X85493Y823210D01*
X85873Y823353D01*
X86238Y823522D01*
X86590Y823717D01*
X86925Y823937D01*
X87241Y824181D01*
X87538Y824448D01*
X87815Y824739D01*
X88073Y825055D01*
X88312Y825394D01*
X88531Y825756D01*
X88732Y826143D01*
X87365Y826826D01*
X87197Y826515D01*
X87019Y826225D01*
X86831Y825954D01*
X86632Y825703D01*
X86424Y825473D01*
X86205Y825262D01*
X85977Y825072D01*
X85738Y824901D01*
X85490Y824751D01*
X85231Y824621D01*
X84962Y824511D01*
X84683Y824420D01*
X84395Y824350D01*
X84096Y824300D01*
X83787Y824270D01*
X83468Y824260D01*
X82975Y824281D01*
X82508Y824346D01*
X82068Y824454D01*
X81654Y824605D01*
X81265Y824799D01*
X80903Y825036D01*
X80567Y825316D01*
X80258Y825639D01*
X79979Y825998D01*
X79738Y826385D01*
X79534Y826799D01*
X79368Y827241D01*
X79238Y827711D01*
X79145Y828209D01*
X79089Y828734D01*
X79071Y829287D01*
X79089Y829846D01*
X79142Y830374D01*
X79231Y830871D01*
X79356Y831338D01*
X79516Y831774D01*
X79711Y832180D01*
X79943Y832555D01*
X80209Y832900D01*
X80508Y833209D01*
X80836Y833477D01*
X81192Y833703D01*
X81576Y833889D01*
X81989Y834033D01*
X82430Y834136D01*
X82899Y834198D01*
X83398Y834218D01*
X83718Y834209D01*
X84028Y834183D01*
X84326Y834138D01*
X84614Y834076D01*
X84890Y833996D01*
X85156Y833898D01*
X85410Y833783D01*
X85653Y833649D01*
X85882Y833499D01*
X86095Y833333D01*
X86292Y833151D01*
X86473Y832953D01*
X86637Y832739D01*
X86785Y832509D01*
X86917Y832264D01*
X87032Y832002D01*
X88618Y832528D01*
X88451Y832895D01*
X88263Y833239D01*
X88053Y833560D01*
X87821Y833857D01*
X87567Y834131D01*
X87291Y834382D01*
X86993Y834610D01*
X86673Y834814D01*
X86333Y834995D01*
X85971Y835151D01*
X85590Y835284D01*
X85189Y835392D01*
X84767Y835476D01*
X84325Y835537D01*
X83863Y835573D01*
X83380Y835585D01*
X83032Y835578D01*
X82694Y835559D01*
X82366Y835526D01*
X82047Y835480D01*
X81737Y835421D01*
X81437Y835349D01*
X81147Y835265D01*
X80866Y835166D01*
X80595Y835055D01*
X80334Y834931D01*
X80082Y834794D01*
X79839Y834644D01*
X79383Y834304D01*
X78966Y833912D01*
X78592Y833474D01*
X78268Y832995D01*
X77994Y832477D01*
X77876Y832203D01*
X77770Y831919D01*
X77677Y831625D01*
X77596Y831321D01*
X77527Y831007D01*
X77471Y830683D01*
X77428Y830349D01*
X77397Y830005D01*
X77378Y829651D01*
X77372Y829287D01*
X77383Y828803D01*
X77416Y828335D01*
X77472Y827884D01*
X77550Y827449D01*
X77651Y827031D01*
X77773Y826629D01*
X77918Y826244D01*
X78086Y825876D01*
X78274Y825526D01*
X78483Y825197D01*
X78712Y824889D01*
X78961Y824602D01*
X79231Y824335D01*
X79521Y824089D01*
X79831Y823864D01*
X80161Y823660D01*
X80510Y823478D01*
X80874Y823321D01*
X81254Y823188D01*
X81649Y823079D01*
X82060Y822994D01*
X82488Y822933D01*
X82930Y822897D01*
X83389Y822885D01*
X83837Y822898D01*
G37*
G36*
X98472Y824400D02*
X92035Y824400D01*
X92187Y824710D01*
X92381Y825025D01*
X92616Y825347D01*
X92893Y825674D01*
X93216Y826015D01*
X93591Y826376D01*
X94018Y826757D01*
X94496Y827159D01*
X95337Y827855D01*
X96031Y828453D01*
X96576Y828954D01*
X96974Y829357D01*
X97279Y829712D01*
X97543Y830067D01*
X97767Y830422D01*
X97951Y830776D01*
X98095Y831132D01*
X98197Y831488D01*
X98259Y831845D01*
X98279Y832204D01*
X98264Y832597D01*
X98217Y832968D01*
X98138Y833315D01*
X98029Y833639D01*
X97888Y833940D01*
X97715Y834218D01*
X97512Y834473D01*
X97277Y834704D01*
X97012Y834911D01*
X96721Y835090D01*
X96403Y835241D01*
X96058Y835365D01*
X95686Y835461D01*
X95287Y835530D01*
X94861Y835571D01*
X94408Y835585D01*
X93993Y835571D01*
X93597Y835530D01*
X93221Y835462D01*
X92863Y835366D01*
X92525Y835243D01*
X92207Y835092D01*
X91907Y834914D01*
X91627Y834709D01*
X91371Y834480D01*
X91143Y834233D01*
X90944Y833967D01*
X90772Y833682D01*
X90629Y833378D01*
X90515Y833055D01*
X90428Y832713D01*
X90371Y832353D01*
X91982Y832204D01*
X92019Y832444D01*
X92073Y832671D01*
X92143Y832884D01*
X92231Y833083D01*
X92335Y833268D01*
X92456Y833440D01*
X92594Y833597D01*
X92748Y833741D01*
X92917Y833869D01*
X93097Y833981D01*
X93288Y834075D01*
X93490Y834152D01*
X93703Y834211D01*
X93927Y834254D01*
X94162Y834280D01*
X94408Y834288D01*
X94666Y834280D01*
X94909Y834253D01*
X95138Y834210D01*
X95352Y834148D01*
X95552Y834069D01*
X95737Y833973D01*
X95907Y833859D01*
X96064Y833728D01*
X96203Y833581D01*
X96324Y833419D01*
X96426Y833243D01*
X96510Y833053D01*
X96575Y832849D01*
X96622Y832631D01*
X96650Y832398D01*
X96659Y832151D01*
X96638Y831785D01*
X96573Y831438D01*
X96465Y831110D01*
X96313Y830803D01*
X96127Y830508D01*
X95914Y830220D01*
X95674Y829939D01*
X95407Y829664D01*
X94812Y829121D01*
X94150Y828578D01*
X93450Y828012D01*
X92744Y827400D01*
X92393Y827073D01*
X92051Y826728D01*
X91717Y826364D01*
X91391Y825981D01*
X91081Y825574D01*
X90796Y825137D01*
X90536Y824670D01*
X90300Y824172D01*
X90300Y823060D01*
X98472Y823060D01*
X98472Y824400D01*
G37*
G36*
X172477Y799938D02*
X172911Y799977D01*
X173332Y800042D01*
X173739Y800133D01*
X174132Y800250D01*
X174512Y800393D01*
X174877Y800562D01*
X175229Y800757D01*
X175564Y800977D01*
X175880Y801221D01*
X176177Y801488D01*
X176454Y801779D01*
X176712Y802095D01*
X176951Y802434D01*
X177171Y802796D01*
X177371Y803183D01*
X176004Y803866D01*
X175836Y803555D01*
X175658Y803265D01*
X175470Y802994D01*
X175271Y802743D01*
X175063Y802513D01*
X174845Y802302D01*
X174616Y802112D01*
X174377Y801941D01*
X174129Y801791D01*
X173870Y801661D01*
X173601Y801551D01*
X173323Y801460D01*
X173034Y801390D01*
X172735Y801340D01*
X172426Y801310D01*
X172107Y801300D01*
X171614Y801321D01*
X171148Y801386D01*
X170707Y801494D01*
X170293Y801645D01*
X169905Y801839D01*
X169542Y802076D01*
X169207Y802356D01*
X168897Y802679D01*
X168619Y803038D01*
X168378Y803425D01*
X168174Y803839D01*
X168007Y804281D01*
X167877Y804751D01*
X167784Y805249D01*
X167729Y805774D01*
X167710Y806327D01*
X167728Y806886D01*
X167781Y807414D01*
X167870Y807911D01*
X167995Y808378D01*
X168155Y808814D01*
X168351Y809220D01*
X168582Y809595D01*
X168849Y809940D01*
X169148Y810249D01*
X169475Y810517D01*
X169831Y810743D01*
X170215Y810929D01*
X170628Y811073D01*
X171069Y811176D01*
X171539Y811238D01*
X172037Y811258D01*
X172357Y811249D01*
X172667Y811223D01*
X172966Y811178D01*
X173253Y811116D01*
X173529Y811036D01*
X173795Y810938D01*
X174049Y810823D01*
X174292Y810689D01*
X174522Y810539D01*
X174735Y810373D01*
X174932Y810191D01*
X175112Y809993D01*
X175276Y809779D01*
X175424Y809549D01*
X175556Y809304D01*
X175672Y809042D01*
X177257Y809568D01*
X177090Y809935D01*
X176902Y810279D01*
X176692Y810600D01*
X176460Y810897D01*
X176206Y811171D01*
X175930Y811422D01*
X175632Y811650D01*
X175312Y811854D01*
X174972Y812035D01*
X174611Y812191D01*
X174229Y812324D01*
X173828Y812432D01*
X173406Y812516D01*
X172964Y812577D01*
X172502Y812613D01*
X172019Y812625D01*
X171672Y812618D01*
X171333Y812599D01*
X171005Y812566D01*
X170686Y812520D01*
X170376Y812461D01*
X170076Y812389D01*
X169786Y812305D01*
X169506Y812206D01*
X169234Y812095D01*
X168973Y811971D01*
X168721Y811834D01*
X168479Y811684D01*
X168023Y811344D01*
X167605Y810952D01*
X167231Y810514D01*
X166908Y810035D01*
X166634Y809517D01*
X166515Y809243D01*
X166409Y808959D01*
X166316Y808665D01*
X166235Y808361D01*
X166167Y808047D01*
X166111Y807723D01*
X166067Y807389D01*
X166036Y807045D01*
X166017Y806691D01*
X166011Y806327D01*
X166022Y805843D01*
X166056Y805375D01*
X166111Y804924D01*
X166189Y804489D01*
X166290Y804071D01*
X166412Y803669D01*
X166557Y803284D01*
X166725Y802916D01*
X166913Y802566D01*
X167122Y802237D01*
X167351Y801929D01*
X167601Y801642D01*
X167870Y801375D01*
X168160Y801129D01*
X168470Y800904D01*
X168800Y800700D01*
X169149Y800518D01*
X169513Y800361D01*
X169893Y800228D01*
X170288Y800119D01*
X170700Y800034D01*
X171127Y799973D01*
X171569Y799937D01*
X172028Y799925D01*
X172477Y799938D01*
G37*
G36*
X183528Y799940D02*
X183988Y799983D01*
X184419Y800057D01*
X184821Y800159D01*
X185194Y800291D01*
X185538Y800452D01*
X185853Y800642D01*
X186139Y800862D01*
X186394Y801108D01*
X186614Y801379D01*
X186801Y801673D01*
X186954Y801992D01*
X187072Y802335D01*
X187157Y802701D01*
X187208Y803092D01*
X187225Y803507D01*
X187213Y803796D01*
X187177Y804073D01*
X187117Y804337D01*
X187033Y804589D01*
X186924Y804828D01*
X186792Y805054D01*
X186635Y805268D01*
X186454Y805469D01*
X186252Y805654D01*
X186031Y805819D01*
X185790Y805965D01*
X185530Y806091D01*
X185252Y806197D01*
X184953Y806284D01*
X184636Y806350D01*
X184300Y806397D01*
X184300Y806432D01*
X184606Y806506D01*
X184893Y806594D01*
X185161Y806697D01*
X185411Y806815D01*
X185642Y806947D01*
X185854Y807095D01*
X186048Y807258D01*
X186222Y807435D01*
X186377Y807627D01*
X186512Y807833D01*
X186625Y808053D01*
X186718Y808286D01*
X186791Y808533D01*
X186842Y808794D01*
X186873Y809069D01*
X186884Y809358D01*
X186868Y809733D01*
X186819Y810086D01*
X186739Y810418D01*
X186626Y810730D01*
X186482Y811020D01*
X186305Y811288D01*
X186096Y811536D01*
X185855Y811762D01*
X185584Y811964D01*
X185288Y812139D01*
X184966Y812288D01*
X184618Y812409D01*
X184245Y812503D01*
X183845Y812571D01*
X183420Y812611D01*
X182969Y812625D01*
X182553Y812611D01*
X182158Y812572D01*
X181781Y812505D01*
X181424Y812412D01*
X181086Y812293D01*
X180767Y812147D01*
X180468Y811974D01*
X180188Y811775D01*
X179931Y811552D01*
X179704Y811309D01*
X179504Y811044D01*
X179333Y810759D01*
X179190Y810453D01*
X179075Y810126D01*
X178989Y809779D01*
X178931Y809410D01*
X180516Y809288D01*
X180551Y809524D01*
X180602Y809746D01*
X180671Y809955D01*
X180756Y810150D01*
X180858Y810332D01*
X180977Y810500D01*
X181113Y810654D01*
X181265Y810794D01*
X181432Y810919D01*
X181612Y811028D01*
X181804Y811120D01*
X182008Y811195D01*
X182225Y811253D01*
X182455Y811295D01*
X182697Y811320D01*
X182951Y811328D01*
X183229Y811319D01*
X183489Y811293D01*
X183732Y811248D01*
X183957Y811185D01*
X184165Y811104D01*
X184354Y811006D01*
X184526Y810889D01*
X184681Y810755D01*
X184817Y810605D01*
X184936Y810442D01*
X185036Y810266D01*
X185118Y810077D01*
X185181Y809875D01*
X185227Y809660D01*
X185254Y809432D01*
X185263Y809191D01*
X185252Y808949D01*
X185219Y808719D01*
X185163Y808503D01*
X185085Y808301D01*
X184984Y808113D01*
X184862Y807938D01*
X184717Y807776D01*
X184549Y807628D01*
X184362Y807496D01*
X184156Y807381D01*
X183932Y807284D01*
X183690Y807204D01*
X183430Y807142D01*
X183151Y807098D01*
X182854Y807072D01*
X182539Y807063D01*
X181681Y807063D01*
X181681Y805697D01*
X182574Y805697D01*
X182929Y805688D01*
X183263Y805661D01*
X183575Y805617D01*
X183865Y805555D01*
X184134Y805476D01*
X184382Y805379D01*
X184608Y805264D01*
X184812Y805132D01*
X184994Y804984D01*
X185151Y804822D01*
X185285Y804646D01*
X185394Y804456D01*
X185478Y804253D01*
X185539Y804036D01*
X185575Y803805D01*
X185587Y803560D01*
X185577Y803279D01*
X185545Y803017D01*
X185492Y802773D01*
X185418Y802546D01*
X185322Y802337D01*
X185206Y802146D01*
X185068Y801972D01*
X184909Y801817D01*
X184731Y801679D01*
X184537Y801560D01*
X184327Y801459D01*
X184102Y801377D01*
X183860Y801312D01*
X183602Y801267D01*
X183328Y801239D01*
X183039Y801230D01*
X182750Y801238D01*
X182477Y801264D01*
X182221Y801307D01*
X181980Y801367D01*
X181756Y801444D01*
X181548Y801538D01*
X181356Y801649D01*
X181180Y801777D01*
X181020Y801923D01*
X180876Y802085D01*
X180748Y802265D01*
X180636Y802462D01*
X180540Y802675D01*
X180461Y802906D01*
X180397Y803154D01*
X180350Y803419D01*
X178721Y803271D01*
X178787Y802869D01*
X178882Y802494D01*
X179006Y802143D01*
X179157Y801818D01*
X179338Y801518D01*
X179546Y801243D01*
X179783Y800994D01*
X180048Y800770D01*
X180339Y800572D01*
X180653Y800400D01*
X180992Y800255D01*
X181354Y800136D01*
X181739Y800044D01*
X182149Y799978D01*
X182582Y799938D01*
X183039Y799925D01*
X183528Y799940D01*
G37*
G36*
X270844Y757174D02*
X272578Y757174D01*
X272578Y758418D01*
X270844Y758418D01*
X270844Y766721D01*
X269188Y766721D01*
X263539Y758400D01*
X263539Y757174D01*
X269355Y757174D01*
X269355Y754380D01*
X270844Y754380D01*
X270844Y757174D01*
G37*
G36*
X257567Y754218D02*
X258001Y754257D01*
X258422Y754322D01*
X258829Y754413D01*
X259222Y754530D01*
X259602Y754673D01*
X259967Y754842D01*
X260319Y755037D01*
X260654Y755257D01*
X260970Y755501D01*
X261267Y755768D01*
X261544Y756059D01*
X261802Y756375D01*
X262041Y756714D01*
X262261Y757076D01*
X262461Y757463D01*
X261094Y758146D01*
X260926Y757835D01*
X260748Y757545D01*
X260560Y757274D01*
X260361Y757023D01*
X260153Y756793D01*
X259935Y756582D01*
X259706Y756392D01*
X259467Y756221D01*
X259219Y756071D01*
X258960Y755941D01*
X258691Y755831D01*
X258413Y755740D01*
X258124Y755670D01*
X257825Y755620D01*
X257516Y755590D01*
X257197Y755580D01*
X256704Y755601D01*
X256238Y755666D01*
X255797Y755774D01*
X255383Y755925D01*
X254995Y756119D01*
X254632Y756356D01*
X254297Y756636D01*
X253987Y756959D01*
X253709Y757318D01*
X253468Y757705D01*
X253264Y758119D01*
X253097Y758561D01*
X252967Y759031D01*
X252874Y759529D01*
X252819Y760054D01*
X252800Y760607D01*
X252818Y761166D01*
X252871Y761694D01*
X252960Y762191D01*
X253085Y762658D01*
X253245Y763094D01*
X253441Y763500D01*
X253672Y763875D01*
X253939Y764220D01*
X254238Y764529D01*
X254565Y764797D01*
X254921Y765023D01*
X255305Y765209D01*
X255718Y765353D01*
X256159Y765456D01*
X256629Y765518D01*
X257127Y765538D01*
X257447Y765529D01*
X257757Y765503D01*
X258056Y765458D01*
X258343Y765396D01*
X258619Y765316D01*
X258885Y765218D01*
X259139Y765103D01*
X259382Y764969D01*
X259612Y764819D01*
X259825Y764653D01*
X260022Y764471D01*
X260202Y764273D01*
X260366Y764059D01*
X260514Y763829D01*
X260646Y763584D01*
X260762Y763322D01*
X262347Y763848D01*
X262180Y764215D01*
X261992Y764559D01*
X261782Y764880D01*
X261550Y765177D01*
X261296Y765451D01*
X261020Y765702D01*
X260722Y765930D01*
X260402Y766134D01*
X260062Y766315D01*
X259701Y766471D01*
X259319Y766604D01*
X258918Y766712D01*
X258496Y766796D01*
X258054Y766857D01*
X257592Y766893D01*
X257109Y766905D01*
X256762Y766898D01*
X256423Y766879D01*
X256095Y766846D01*
X255776Y766800D01*
X255466Y766741D01*
X255166Y766669D01*
X254876Y766585D01*
X254596Y766486D01*
X254324Y766375D01*
X254063Y766251D01*
X253811Y766114D01*
X253569Y765964D01*
X253113Y765624D01*
X252695Y765232D01*
X252321Y764794D01*
X251998Y764315D01*
X251724Y763797D01*
X251605Y763523D01*
X251499Y763239D01*
X251406Y762945D01*
X251325Y762641D01*
X251257Y762327D01*
X251201Y762003D01*
X251157Y761669D01*
X251126Y761325D01*
X251107Y760971D01*
X251101Y760607D01*
X251112Y760123D01*
X251146Y759655D01*
X251201Y759204D01*
X251279Y758769D01*
X251380Y758351D01*
X251502Y757949D01*
X251647Y757564D01*
X251815Y757196D01*
X252003Y756846D01*
X252212Y756517D01*
X252441Y756209D01*
X252691Y755922D01*
X252960Y755655D01*
X253250Y755409D01*
X253560Y755184D01*
X253890Y754980D01*
X254239Y754798D01*
X254603Y754641D01*
X254983Y754508D01*
X255378Y754399D01*
X255790Y754314D01*
X256217Y754253D01*
X256659Y754217D01*
X257118Y754205D01*
X257567Y754218D01*
G37*
%LPC*%
G36*
X264993Y758418D02*
X265133Y758593D01*
X265606Y759241D01*
X268768Y763901D01*
X269110Y764479D01*
X269355Y764943D01*
X269355Y758418D01*
X264993Y758418D01*
G37*
%LPD*%
G36*
X257567Y728818D02*
X258001Y728857D01*
X258422Y728922D01*
X258829Y729013D01*
X259222Y729130D01*
X259602Y729273D01*
X259967Y729442D01*
X260319Y729637D01*
X260654Y729857D01*
X260970Y730101D01*
X261267Y730368D01*
X261544Y730659D01*
X261802Y730975D01*
X262041Y731314D01*
X262261Y731676D01*
X262461Y732063D01*
X261094Y732746D01*
X260926Y732435D01*
X260748Y732145D01*
X260560Y731874D01*
X260361Y731623D01*
X260153Y731393D01*
X259935Y731182D01*
X259706Y730992D01*
X259467Y730821D01*
X259219Y730671D01*
X258960Y730541D01*
X258691Y730431D01*
X258413Y730340D01*
X258124Y730270D01*
X257825Y730220D01*
X257516Y730190D01*
X257197Y730180D01*
X256704Y730201D01*
X256238Y730266D01*
X255797Y730374D01*
X255383Y730525D01*
X254995Y730719D01*
X254632Y730956D01*
X254297Y731236D01*
X253987Y731559D01*
X253709Y731918D01*
X253468Y732305D01*
X253264Y732719D01*
X253097Y733161D01*
X252967Y733631D01*
X252874Y734129D01*
X252819Y734654D01*
X252800Y735207D01*
X252818Y735766D01*
X252871Y736294D01*
X252960Y736791D01*
X253085Y737258D01*
X253245Y737694D01*
X253441Y738100D01*
X253672Y738475D01*
X253939Y738820D01*
X254238Y739129D01*
X254565Y739397D01*
X254921Y739623D01*
X255305Y739809D01*
X255718Y739953D01*
X256159Y740056D01*
X256629Y740118D01*
X257127Y740138D01*
X257447Y740129D01*
X257757Y740103D01*
X258056Y740058D01*
X258343Y739996D01*
X258619Y739916D01*
X258885Y739818D01*
X259139Y739703D01*
X259382Y739569D01*
X259612Y739419D01*
X259825Y739253D01*
X260022Y739071D01*
X260202Y738873D01*
X260366Y738659D01*
X260514Y738429D01*
X260646Y738184D01*
X260762Y737922D01*
X262347Y738448D01*
X262180Y738815D01*
X261992Y739159D01*
X261782Y739480D01*
X261550Y739777D01*
X261296Y740051D01*
X261020Y740302D01*
X260722Y740530D01*
X260402Y740734D01*
X260062Y740915D01*
X259701Y741071D01*
X259319Y741204D01*
X258918Y741312D01*
X258496Y741396D01*
X258054Y741457D01*
X257592Y741493D01*
X257109Y741505D01*
X256762Y741498D01*
X256423Y741479D01*
X256095Y741446D01*
X255776Y741400D01*
X255466Y741341D01*
X255166Y741269D01*
X254876Y741185D01*
X254596Y741086D01*
X254324Y740975D01*
X254063Y740851D01*
X253811Y740714D01*
X253569Y740564D01*
X253113Y740224D01*
X252695Y739832D01*
X252321Y739394D01*
X251998Y738915D01*
X251724Y738397D01*
X251605Y738123D01*
X251499Y737839D01*
X251406Y737545D01*
X251325Y737241D01*
X251257Y736927D01*
X251201Y736603D01*
X251157Y736269D01*
X251126Y735925D01*
X251107Y735571D01*
X251101Y735207D01*
X251112Y734723D01*
X251146Y734255D01*
X251201Y733804D01*
X251279Y733369D01*
X251380Y732951D01*
X251502Y732549D01*
X251647Y732164D01*
X251815Y731796D01*
X252003Y731446D01*
X252212Y731117D01*
X252441Y730809D01*
X252691Y730522D01*
X252960Y730255D01*
X253250Y730009D01*
X253560Y729784D01*
X253890Y729580D01*
X254239Y729398D01*
X254603Y729241D01*
X254983Y729108D01*
X255378Y728999D01*
X255790Y728914D01*
X256217Y728853D01*
X256659Y728817D01*
X257118Y728805D01*
X257567Y728818D01*
G37*
G36*
X268472Y728822D02*
X268944Y728875D01*
X269388Y728963D01*
X269805Y729085D01*
X270193Y729243D01*
X270553Y729435D01*
X270886Y729663D01*
X271190Y729926D01*
X271462Y730219D01*
X271697Y730538D01*
X271897Y730884D01*
X272060Y731255D01*
X272187Y731652D01*
X272278Y732076D01*
X272332Y732525D01*
X272350Y733000D01*
X272333Y733419D01*
X272283Y733818D01*
X272198Y734197D01*
X272080Y734555D01*
X271928Y734893D01*
X271742Y735211D01*
X271522Y735508D01*
X271269Y735785D01*
X270987Y736036D01*
X270681Y736253D01*
X270353Y736437D01*
X270002Y736587D01*
X269627Y736704D01*
X269230Y736787D01*
X268809Y736837D01*
X268365Y736854D01*
X267992Y736842D01*
X267634Y736805D01*
X267292Y736743D01*
X266966Y736657D01*
X266655Y736546D01*
X266360Y736411D01*
X266080Y736250D01*
X265816Y736066D01*
X266053Y739981D01*
X271632Y739981D01*
X271632Y741321D01*
X264616Y741321D01*
X264205Y734682D01*
X265746Y734682D01*
X266022Y734905D01*
X266298Y735093D01*
X266574Y735247D01*
X266850Y735365D01*
X267131Y735453D01*
X267424Y735516D01*
X267727Y735554D01*
X268041Y735566D01*
X268340Y735555D01*
X268623Y735522D01*
X268890Y735465D01*
X269141Y735387D01*
X269377Y735286D01*
X269597Y735162D01*
X269801Y735017D01*
X269990Y734848D01*
X270159Y734662D01*
X270306Y734461D01*
X270430Y734247D01*
X270532Y734018D01*
X270611Y733776D01*
X270667Y733520D01*
X270701Y733249D01*
X270712Y732965D01*
X270701Y732639D01*
X270668Y732331D01*
X270611Y732041D01*
X270533Y731769D01*
X270432Y731514D01*
X270308Y731278D01*
X270163Y731059D01*
X269994Y730859D01*
X269806Y730679D01*
X269601Y730523D01*
X269378Y730392D01*
X269138Y730284D01*
X268881Y730200D01*
X268607Y730140D01*
X268315Y730104D01*
X268006Y730092D01*
X267754Y730099D01*
X267514Y730121D01*
X267286Y730157D01*
X267070Y730207D01*
X266867Y730271D01*
X266676Y730350D01*
X266497Y730443D01*
X266331Y730550D01*
X266177Y730672D01*
X266035Y730807D01*
X265905Y730958D01*
X265787Y731122D01*
X265682Y731301D01*
X265589Y731494D01*
X265508Y731701D01*
X265440Y731923D01*
X263846Y731739D01*
X263928Y731393D01*
X264035Y731067D01*
X264166Y730763D01*
X264321Y730480D01*
X264501Y730218D01*
X264705Y729977D01*
X264933Y729757D01*
X265186Y729558D01*
X265461Y729382D01*
X265757Y729229D01*
X266074Y729099D01*
X266412Y728993D01*
X266771Y728911D01*
X267150Y728852D01*
X267550Y728817D01*
X267971Y728805D01*
X268472Y728822D01*
G37*
G36*
X268784Y780893D02*
X269212Y780945D01*
X269616Y781034D01*
X269994Y781157D01*
X270347Y781316D01*
X270675Y781510D01*
X270978Y781740D01*
X271255Y782005D01*
X271504Y782300D01*
X271719Y782621D01*
X271901Y782968D01*
X272050Y783340D01*
X272166Y783739D01*
X272249Y784163D01*
X272299Y784612D01*
X272315Y785088D01*
X272300Y785527D01*
X272253Y785944D01*
X272174Y786337D01*
X272065Y786708D01*
X271923Y787056D01*
X271751Y787380D01*
X271547Y787682D01*
X271312Y787960D01*
X271051Y788211D01*
X270767Y788428D01*
X270461Y788612D01*
X270133Y788762D01*
X269783Y788879D01*
X269411Y788962D01*
X269018Y789012D01*
X268602Y789029D01*
X268353Y789023D01*
X268112Y789003D01*
X267878Y788971D01*
X267651Y788925D01*
X267219Y788795D01*
X266815Y788613D01*
X266447Y788381D01*
X266123Y788102D01*
X265843Y787775D01*
X265606Y787400D01*
X265618Y787978D01*
X265652Y788521D01*
X265710Y789028D01*
X265791Y789501D01*
X265895Y789938D01*
X266022Y790340D01*
X266173Y790707D01*
X266346Y791039D01*
X266541Y791334D01*
X266754Y791589D01*
X266987Y791805D01*
X267239Y791982D01*
X267509Y792119D01*
X267799Y792217D01*
X268107Y792276D01*
X268435Y792296D01*
X268810Y792272D01*
X269150Y792202D01*
X269456Y792084D01*
X269727Y791919D01*
X269964Y791708D01*
X270166Y791449D01*
X270334Y791143D01*
X270467Y790790D01*
X271974Y791061D01*
X271875Y791365D01*
X271760Y791650D01*
X271628Y791915D01*
X271481Y792161D01*
X271317Y792387D01*
X271138Y792593D01*
X270942Y792779D01*
X270730Y792946D01*
X270502Y793094D01*
X270258Y793221D01*
X269997Y793329D01*
X269720Y793418D01*
X269428Y793486D01*
X269119Y793535D01*
X268794Y793565D01*
X268453Y793575D01*
X268192Y793568D01*
X267938Y793548D01*
X267692Y793514D01*
X267454Y793467D01*
X267223Y793407D01*
X267000Y793333D01*
X266576Y793146D01*
X266183Y792904D01*
X265820Y792609D01*
X265488Y792260D01*
X265186Y791858D01*
X264917Y791406D01*
X264684Y790907D01*
X264487Y790361D01*
X264325Y789769D01*
X264200Y789131D01*
X264110Y788445D01*
X264056Y787714D01*
X264038Y786936D01*
X264056Y786218D01*
X264107Y785544D01*
X264194Y784914D01*
X264314Y784328D01*
X264469Y783786D01*
X264659Y783288D01*
X264883Y782835D01*
X265142Y782425D01*
X265433Y782062D01*
X265755Y781747D01*
X266108Y781480D01*
X266491Y781262D01*
X266905Y781093D01*
X267349Y780972D01*
X267824Y780899D01*
X268073Y780881D01*
X268330Y780875D01*
X268784Y780893D01*
G37*
G36*
X257567Y780888D02*
X258001Y780927D01*
X258422Y780992D01*
X258829Y781083D01*
X259222Y781200D01*
X259602Y781343D01*
X259967Y781512D01*
X260319Y781707D01*
X260654Y781927D01*
X260970Y782171D01*
X261267Y782438D01*
X261544Y782729D01*
X261802Y783045D01*
X262041Y783384D01*
X262261Y783746D01*
X262461Y784133D01*
X261094Y784816D01*
X260926Y784505D01*
X260748Y784215D01*
X260560Y783944D01*
X260361Y783693D01*
X260153Y783463D01*
X259935Y783252D01*
X259706Y783062D01*
X259467Y782891D01*
X259219Y782741D01*
X258960Y782611D01*
X258691Y782501D01*
X258413Y782410D01*
X258124Y782340D01*
X257825Y782290D01*
X257516Y782260D01*
X257197Y782250D01*
X256704Y782271D01*
X256238Y782336D01*
X255797Y782444D01*
X255383Y782595D01*
X254995Y782789D01*
X254632Y783026D01*
X254297Y783306D01*
X253987Y783629D01*
X253709Y783988D01*
X253468Y784375D01*
X253264Y784789D01*
X253097Y785231D01*
X252967Y785701D01*
X252874Y786199D01*
X252819Y786724D01*
X252800Y787277D01*
X252818Y787836D01*
X252871Y788364D01*
X252960Y788861D01*
X253085Y789328D01*
X253245Y789764D01*
X253441Y790170D01*
X253672Y790545D01*
X253939Y790890D01*
X254238Y791199D01*
X254565Y791467D01*
X254921Y791693D01*
X255305Y791879D01*
X255718Y792023D01*
X256159Y792126D01*
X256629Y792188D01*
X257127Y792208D01*
X257447Y792199D01*
X257757Y792173D01*
X258056Y792128D01*
X258343Y792066D01*
X258619Y791986D01*
X258885Y791888D01*
X259139Y791773D01*
X259382Y791639D01*
X259612Y791489D01*
X259825Y791323D01*
X260022Y791141D01*
X260202Y790943D01*
X260366Y790729D01*
X260514Y790499D01*
X260646Y790254D01*
X260762Y789992D01*
X262347Y790518D01*
X262180Y790885D01*
X261992Y791229D01*
X261782Y791550D01*
X261550Y791847D01*
X261296Y792121D01*
X261020Y792372D01*
X260722Y792600D01*
X260402Y792804D01*
X260062Y792985D01*
X259701Y793141D01*
X259319Y793274D01*
X258918Y793382D01*
X258496Y793466D01*
X258054Y793527D01*
X257592Y793563D01*
X257109Y793575D01*
X256762Y793568D01*
X256423Y793549D01*
X256095Y793516D01*
X255776Y793470D01*
X255466Y793411D01*
X255166Y793339D01*
X254876Y793255D01*
X254596Y793156D01*
X254324Y793045D01*
X254063Y792921D01*
X253811Y792784D01*
X253569Y792634D01*
X253113Y792294D01*
X252695Y791902D01*
X252321Y791464D01*
X251998Y790985D01*
X251724Y790467D01*
X251605Y790193D01*
X251499Y789909D01*
X251406Y789615D01*
X251325Y789311D01*
X251257Y788997D01*
X251201Y788673D01*
X251157Y788339D01*
X251126Y787995D01*
X251107Y787641D01*
X251101Y787277D01*
X251112Y786793D01*
X251146Y786325D01*
X251201Y785874D01*
X251279Y785439D01*
X251380Y785021D01*
X251502Y784619D01*
X251647Y784234D01*
X251815Y783866D01*
X252003Y783516D01*
X252212Y783187D01*
X252441Y782879D01*
X252691Y782592D01*
X252960Y782325D01*
X253250Y782079D01*
X253560Y781854D01*
X253890Y781650D01*
X254239Y781468D01*
X254603Y781311D01*
X254983Y781178D01*
X255378Y781069D01*
X255790Y780984D01*
X256217Y780923D01*
X256659Y780887D01*
X257118Y780875D01*
X257567Y780888D01*
G37*
%LPC*%
G36*
X268008Y782159D02*
X267751Y782202D01*
X267506Y782273D01*
X267274Y782373D01*
X267054Y782501D01*
X266846Y782657D01*
X266651Y782842D01*
X266469Y783056D01*
X266304Y783292D01*
X266160Y783543D01*
X266039Y783812D01*
X265940Y784096D01*
X265863Y784396D01*
X265808Y784713D01*
X265775Y785045D01*
X265764Y785394D01*
X265774Y785669D01*
X265806Y785929D01*
X265859Y786173D01*
X265934Y786403D01*
X266029Y786617D01*
X266146Y786816D01*
X266284Y786999D01*
X266443Y787168D01*
X266619Y787319D01*
X266809Y787449D01*
X267011Y787560D01*
X267228Y787651D01*
X267457Y787721D01*
X267700Y787771D01*
X267956Y787802D01*
X268225Y787812D01*
X268510Y787800D01*
X268779Y787766D01*
X269033Y787709D01*
X269269Y787630D01*
X269490Y787528D01*
X269695Y787403D01*
X269883Y787255D01*
X270056Y787085D01*
X270209Y786893D01*
X270343Y786683D01*
X270456Y786453D01*
X270548Y786204D01*
X270620Y785936D01*
X270671Y785649D01*
X270702Y785343D01*
X270712Y785018D01*
X270702Y784692D01*
X270672Y784383D01*
X270621Y784093D01*
X270550Y783821D01*
X270459Y783567D01*
X270348Y783330D01*
X270216Y783112D01*
X270064Y782911D01*
X269895Y782732D01*
X269710Y782576D01*
X269509Y782444D01*
X269294Y782336D01*
X269063Y782253D01*
X268816Y782193D01*
X268555Y782157D01*
X268278Y782145D01*
X268008Y782159D01*
G37*
%LPD*%
G36*
X549667Y935828D02*
X550101Y935867D01*
X550522Y935932D01*
X550929Y936023D01*
X551322Y936140D01*
X551702Y936283D01*
X552067Y936452D01*
X552419Y936647D01*
X552754Y936867D01*
X553070Y937111D01*
X553367Y937378D01*
X553644Y937669D01*
X553902Y937985D01*
X554141Y938324D01*
X554361Y938686D01*
X554561Y939073D01*
X553194Y939756D01*
X553026Y939445D01*
X552848Y939155D01*
X552660Y938884D01*
X552461Y938633D01*
X552253Y938403D01*
X552035Y938192D01*
X551806Y938002D01*
X551567Y937831D01*
X551319Y937681D01*
X551060Y937551D01*
X550791Y937441D01*
X550513Y937350D01*
X550224Y937280D01*
X549925Y937230D01*
X549616Y937200D01*
X549297Y937190D01*
X548804Y937211D01*
X548338Y937276D01*
X547897Y937384D01*
X547483Y937535D01*
X547095Y937729D01*
X546732Y937966D01*
X546397Y938246D01*
X546087Y938569D01*
X545809Y938928D01*
X545568Y939315D01*
X545364Y939729D01*
X545197Y940171D01*
X545067Y940641D01*
X544974Y941139D01*
X544919Y941664D01*
X544900Y942217D01*
X544918Y942776D01*
X544971Y943304D01*
X545060Y943801D01*
X545185Y944268D01*
X545345Y944704D01*
X545541Y945110D01*
X545772Y945485D01*
X546039Y945830D01*
X546338Y946139D01*
X546665Y946407D01*
X547021Y946633D01*
X547405Y946819D01*
X547818Y946963D01*
X548259Y947066D01*
X548729Y947128D01*
X549227Y947148D01*
X549547Y947139D01*
X549857Y947113D01*
X550156Y947068D01*
X550443Y947006D01*
X550719Y946926D01*
X550985Y946828D01*
X551239Y946713D01*
X551482Y946579D01*
X551712Y946429D01*
X551925Y946263D01*
X552122Y946081D01*
X552302Y945883D01*
X552466Y945669D01*
X552614Y945439D01*
X552746Y945194D01*
X552862Y944932D01*
X554447Y945458D01*
X554280Y945825D01*
X554092Y946169D01*
X553882Y946490D01*
X553650Y946787D01*
X553396Y947061D01*
X553120Y947312D01*
X552822Y947540D01*
X552502Y947744D01*
X552162Y947925D01*
X551801Y948081D01*
X551419Y948214D01*
X551018Y948322D01*
X550596Y948406D01*
X550154Y948467D01*
X549692Y948503D01*
X549209Y948515D01*
X548862Y948508D01*
X548523Y948489D01*
X548195Y948456D01*
X547876Y948410D01*
X547566Y948351D01*
X547266Y948279D01*
X546976Y948195D01*
X546696Y948096D01*
X546424Y947985D01*
X546163Y947861D01*
X545911Y947724D01*
X545669Y947574D01*
X545213Y947234D01*
X544795Y946842D01*
X544421Y946404D01*
X544098Y945925D01*
X543824Y945407D01*
X543705Y945133D01*
X543599Y944849D01*
X543506Y944555D01*
X543425Y944251D01*
X543357Y943937D01*
X543301Y943613D01*
X543257Y943279D01*
X543226Y942935D01*
X543207Y942581D01*
X543201Y942217D01*
X543212Y941733D01*
X543246Y941265D01*
X543301Y940814D01*
X543379Y940379D01*
X543480Y939961D01*
X543602Y939559D01*
X543747Y939174D01*
X543915Y938806D01*
X544103Y938456D01*
X544312Y938127D01*
X544541Y937819D01*
X544791Y937532D01*
X545060Y937265D01*
X545350Y937019D01*
X545660Y936794D01*
X545990Y936590D01*
X546339Y936408D01*
X546703Y936251D01*
X547083Y936118D01*
X547478Y936009D01*
X547890Y935924D01*
X548317Y935863D01*
X548759Y935827D01*
X549218Y935815D01*
X549667Y935828D01*
G37*
G36*
X560077Y936415D02*
X560095Y936837D01*
X560168Y937669D01*
X560290Y938488D01*
X560461Y939292D01*
X560680Y940092D01*
X560948Y940897D01*
X561265Y941708D01*
X561630Y942524D01*
X562089Y943421D01*
X562688Y944475D01*
X563425Y945685D01*
X564301Y947052D01*
X564301Y948331D01*
X556147Y948331D01*
X556147Y946991D01*
X562777Y946991D01*
X562212Y946151D01*
X561688Y945337D01*
X561206Y944547D01*
X560766Y943782D01*
X560368Y943042D01*
X560013Y942326D01*
X559699Y941635D01*
X559427Y940969D01*
X559192Y940320D01*
X558988Y939678D01*
X558816Y939044D01*
X558675Y938417D01*
X558565Y937799D01*
X558487Y937188D01*
X558440Y936585D01*
X558424Y935990D01*
X560071Y935990D01*
X560077Y936415D01*
G37*
G36*
X103304Y868958D02*
X103768Y868992D01*
X104217Y869049D01*
X104650Y869128D01*
X105069Y869231D01*
X105472Y869356D01*
X105860Y869504D01*
X106233Y869675D01*
X106588Y869867D01*
X106920Y870080D01*
X107232Y870313D01*
X107522Y870566D01*
X107790Y870840D01*
X108037Y871135D01*
X108262Y871449D01*
X108466Y871785D01*
X108647Y872138D01*
X108804Y872508D01*
X108937Y872894D01*
X109045Y873297D01*
X109129Y873716D01*
X109190Y874151D01*
X109226Y874603D01*
X109238Y875070D01*
X109226Y875534D01*
X109189Y875982D01*
X109128Y876415D01*
X109043Y876832D01*
X108933Y877233D01*
X108799Y877619D01*
X108640Y877989D01*
X108457Y878343D01*
X108251Y878680D01*
X108025Y878996D01*
X107777Y879292D01*
X107507Y879568D01*
X107217Y879824D01*
X106906Y880060D01*
X106573Y880275D01*
X106220Y880471D01*
X105848Y880644D01*
X105462Y880795D01*
X105060Y880922D01*
X104643Y881027D01*
X104211Y881108D01*
X103764Y881166D01*
X103302Y881201D01*
X102824Y881212D01*
X102346Y881201D01*
X101883Y881166D01*
X101436Y881109D01*
X101006Y881029D01*
X100592Y880926D01*
X100194Y880800D01*
X99812Y880651D01*
X99447Y880479D01*
X99100Y880286D01*
X98774Y880072D01*
X98470Y879838D01*
X98186Y879583D01*
X97924Y879308D01*
X97684Y879013D01*
X97464Y878697D01*
X97266Y878361D01*
X97090Y878006D01*
X96938Y877636D01*
X96809Y877251D01*
X96704Y876849D01*
X96622Y876432D01*
X96563Y876000D01*
X96528Y875552D01*
X96516Y875088D01*
X96523Y874731D01*
X96542Y874384D01*
X96575Y874047D01*
X96621Y873720D01*
X96679Y873403D01*
X96751Y873095D01*
X96836Y872798D01*
X96934Y872511D01*
X97045Y872233D01*
X97169Y871966D01*
X97306Y871708D01*
X97456Y871461D01*
X97619Y871223D01*
X97796Y870995D01*
X98187Y870569D01*
X98626Y870189D01*
X99104Y869859D01*
X99359Y869714D01*
X99623Y869580D01*
X99898Y869460D01*
X100182Y869352D01*
X100477Y869257D01*
X100782Y869175D01*
X101097Y869105D01*
X101423Y869048D01*
X101758Y869003D01*
X102103Y868972D01*
X102459Y868953D01*
X102824Y868946D01*
X103304Y868958D01*
G37*
G36*
X103304Y919864D02*
X103768Y919898D01*
X104217Y919955D01*
X104650Y920035D01*
X105069Y920137D01*
X105472Y920262D01*
X105860Y920410D01*
X106233Y920581D01*
X106588Y920773D01*
X106920Y920986D01*
X107232Y921219D01*
X107522Y921472D01*
X107790Y921746D01*
X108037Y922041D01*
X108262Y922356D01*
X108466Y922691D01*
X108647Y923045D01*
X108804Y923414D01*
X108937Y923801D01*
X109045Y924203D01*
X109129Y924622D01*
X109190Y925057D01*
X109226Y925509D01*
X109238Y925977D01*
X109226Y926440D01*
X109189Y926889D01*
X109128Y927321D01*
X109043Y927738D01*
X108933Y928139D01*
X108799Y928525D01*
X108640Y928895D01*
X108457Y929249D01*
X108251Y929586D01*
X108025Y929902D01*
X107777Y930198D01*
X107507Y930474D01*
X107217Y930730D01*
X106906Y930966D01*
X106573Y931182D01*
X106220Y931377D01*
X105848Y931551D01*
X105462Y931701D01*
X105060Y931829D01*
X104643Y931933D01*
X104211Y932014D01*
X103764Y932072D01*
X103302Y932107D01*
X102824Y932118D01*
X102346Y932107D01*
X101883Y932073D01*
X101436Y932015D01*
X101006Y931935D01*
X100592Y931832D01*
X100194Y931706D01*
X99812Y931557D01*
X99447Y931386D01*
X99100Y931192D01*
X98774Y930979D01*
X98470Y930744D01*
X98186Y930490D01*
X97924Y930215D01*
X97684Y929919D01*
X97464Y929603D01*
X97266Y929267D01*
X97090Y928912D01*
X96938Y928542D01*
X96809Y928157D01*
X96704Y927756D01*
X96622Y927339D01*
X96563Y926906D01*
X96528Y926458D01*
X96516Y925994D01*
X96523Y925637D01*
X96542Y925290D01*
X96575Y924953D01*
X96621Y924626D01*
X96679Y924309D01*
X96751Y924002D01*
X96836Y923704D01*
X96934Y923417D01*
X97045Y923139D01*
X97169Y922872D01*
X97306Y922614D01*
X97456Y922367D01*
X97619Y922129D01*
X97796Y921901D01*
X98187Y921476D01*
X98626Y921095D01*
X99104Y920766D01*
X99359Y920620D01*
X99623Y920487D01*
X99898Y920366D01*
X100182Y920258D01*
X100477Y920163D01*
X100782Y920081D01*
X101097Y920011D01*
X101423Y919954D01*
X101758Y919910D01*
X102103Y919878D01*
X102459Y919859D01*
X102824Y919853D01*
X103304Y919864D01*
G37*
G36*
X109063Y909151D02*
X103930Y909151D01*
X103930Y913003D01*
X109063Y916214D01*
X109063Y918144D01*
X106004Y916129D01*
X103737Y914635D01*
X103665Y914979D01*
X103571Y915303D01*
X103455Y915609D01*
X103318Y915895D01*
X103225Y916051D01*
X103159Y916162D01*
X102979Y916411D01*
X102776Y916640D01*
X102552Y916850D01*
X102311Y917038D01*
X102056Y917202D01*
X101787Y917340D01*
X101504Y917452D01*
X101208Y917540D01*
X100898Y917603D01*
X100574Y917641D01*
X100236Y917653D01*
X99831Y917635D01*
X99448Y917582D01*
X99089Y917493D01*
X98752Y917369D01*
X98439Y917209D01*
X98148Y917014D01*
X97880Y916783D01*
X97635Y916517D01*
X97416Y916218D01*
X97226Y915889D01*
X97065Y915531D01*
X96934Y915143D01*
X96832Y914725D01*
X96759Y914277D01*
X96715Y913800D01*
X96700Y913293D01*
X96700Y907475D01*
X109063Y907475D01*
X109063Y909151D01*
G37*
G36*
X109063Y968089D02*
X103930Y968089D01*
X103930Y971940D01*
X109063Y975152D01*
X109063Y977082D01*
X106004Y975066D01*
X103737Y973572D01*
X103665Y973916D01*
X103571Y974241D01*
X103455Y974546D01*
X103318Y974833D01*
X103225Y974989D01*
X103159Y975100D01*
X102979Y975348D01*
X102776Y975578D01*
X102552Y975788D01*
X102311Y975976D01*
X102056Y976139D01*
X101787Y976277D01*
X101504Y976390D01*
X101208Y976478D01*
X100898Y976540D01*
X100574Y976578D01*
X100236Y976591D01*
X99831Y976573D01*
X99448Y976520D01*
X99089Y976431D01*
X98752Y976307D01*
X98439Y976147D01*
X98148Y975951D01*
X97880Y975721D01*
X97635Y975454D01*
X97416Y975155D01*
X97226Y974827D01*
X97065Y974468D01*
X96934Y974080D01*
X96832Y973662D01*
X96759Y973215D01*
X96715Y972737D01*
X96700Y972230D01*
X96700Y966413D01*
X109063Y966413D01*
X109063Y968089D01*
G37*
%LPC*%
G36*
X102255Y870667D02*
X101718Y870721D01*
X101214Y870811D01*
X100743Y870938D01*
X100304Y871101D01*
X99898Y871300D01*
X99524Y871535D01*
X99183Y871807D01*
X98879Y872111D01*
X98615Y872446D01*
X98392Y872811D01*
X98209Y873206D01*
X98067Y873631D01*
X97966Y874087D01*
X97905Y874572D01*
X97885Y875088D01*
X97905Y875600D01*
X97967Y876081D01*
X98070Y876533D01*
X98214Y876956D01*
X98399Y877348D01*
X98625Y877711D01*
X98892Y878044D01*
X99201Y878347D01*
X99545Y878618D01*
X99921Y878852D01*
X100327Y879051D01*
X100765Y879213D01*
X101233Y879339D01*
X101733Y879429D01*
X102263Y879483D01*
X102824Y879501D01*
X103411Y879483D01*
X103963Y879430D01*
X104480Y879340D01*
X104964Y879215D01*
X105414Y879054D01*
X105829Y878857D01*
X106211Y878625D01*
X106558Y878356D01*
X106867Y878054D01*
X107135Y877721D01*
X107362Y877357D01*
X107548Y876962D01*
X107692Y876536D01*
X107796Y876079D01*
X107858Y875590D01*
X107878Y875070D01*
X107857Y874565D01*
X107793Y874087D01*
X107686Y873639D01*
X107537Y873218D01*
X107345Y872826D01*
X107111Y872462D01*
X106834Y872127D01*
X106514Y871820D01*
X106158Y871545D01*
X105772Y871307D01*
X105355Y871106D01*
X104909Y870941D01*
X104433Y870813D01*
X103927Y870722D01*
X103391Y870667D01*
X102824Y870648D01*
X102255Y870667D01*
G37*
G36*
X102255Y921573D02*
X101718Y921627D01*
X101214Y921718D01*
X100743Y921844D01*
X100304Y922007D01*
X99898Y922206D01*
X99524Y922441D01*
X99183Y922713D01*
X98879Y923017D01*
X98615Y923352D01*
X98392Y923717D01*
X98209Y924112D01*
X98067Y924537D01*
X97966Y924993D01*
X97905Y925478D01*
X97885Y925994D01*
X97905Y926506D01*
X97967Y926988D01*
X98070Y927440D01*
X98214Y927862D01*
X98399Y928255D01*
X98625Y928617D01*
X98892Y928950D01*
X99201Y929254D01*
X99545Y929524D01*
X99921Y929758D01*
X100327Y929957D01*
X100765Y930119D01*
X101233Y930245D01*
X101733Y930335D01*
X102263Y930389D01*
X102824Y930407D01*
X103411Y930390D01*
X103963Y930336D01*
X104480Y930246D01*
X104964Y930121D01*
X105414Y929960D01*
X105829Y929763D01*
X106211Y929531D01*
X106558Y929262D01*
X106867Y928961D01*
X107135Y928628D01*
X107362Y928264D01*
X107548Y927869D01*
X107692Y927442D01*
X107796Y926985D01*
X107858Y926496D01*
X107878Y925977D01*
X107857Y925471D01*
X107793Y924994D01*
X107686Y924545D01*
X107537Y924124D01*
X107345Y923732D01*
X107111Y923368D01*
X106834Y923033D01*
X106514Y922726D01*
X106158Y922451D01*
X105772Y922214D01*
X105355Y922012D01*
X104909Y921848D01*
X104433Y921719D01*
X103927Y921628D01*
X103391Y921573D01*
X102824Y921555D01*
X102255Y921573D01*
G37*
%LPD*%
G36*
X109063Y885030D02*
X100850Y885030D01*
X99385Y884986D01*
X98534Y884942D01*
X109063Y891557D01*
X109063Y893575D01*
X96700Y893575D01*
X96700Y892066D01*
X104807Y892066D01*
X105816Y892092D01*
X107299Y892171D01*
X96700Y885486D01*
X96700Y883538D01*
X109063Y883538D01*
X109063Y885030D01*
G37*
G36*
X109063Y964152D02*
X107694Y964152D01*
X107694Y956089D01*
X103386Y956089D01*
X103386Y963266D01*
X102035Y963266D01*
X102035Y956089D01*
X98069Y956089D01*
X98069Y963792D01*
X96700Y963792D01*
X96700Y954413D01*
X109063Y954413D01*
X109063Y964152D01*
G37*
G36*
X103310Y856050D02*
X103778Y856084D01*
X104230Y856140D01*
X104666Y856218D01*
X105085Y856318D01*
X105487Y856441D01*
X105873Y856586D01*
X106242Y856754D01*
X106592Y856943D01*
X106922Y857152D01*
X107231Y857382D01*
X107518Y857631D01*
X107785Y857901D01*
X108032Y858192D01*
X108257Y858502D01*
X108462Y858833D01*
X108644Y859182D01*
X108801Y859547D01*
X108935Y859928D01*
X109044Y860324D01*
X109129Y860736D01*
X109190Y861164D01*
X109226Y861607D01*
X109238Y862067D01*
X109225Y862516D01*
X109186Y862951D01*
X109121Y863373D01*
X109030Y863781D01*
X108913Y864175D01*
X108769Y864555D01*
X108600Y864921D01*
X108405Y865273D01*
X108184Y865609D01*
X107940Y865926D01*
X107672Y866223D01*
X107380Y866501D01*
X107065Y866759D01*
X106725Y866998D01*
X106362Y867218D01*
X105974Y867419D01*
X105290Y866050D01*
X105601Y865881D01*
X105892Y865703D01*
X106164Y865514D01*
X106415Y865316D01*
X106646Y865107D01*
X106856Y864888D01*
X107047Y864659D01*
X107218Y864420D01*
X107369Y864171D01*
X107499Y863912D01*
X107610Y863643D01*
X107700Y863363D01*
X107770Y863074D01*
X107820Y862775D01*
X107851Y862465D01*
X107861Y862146D01*
X107839Y861652D01*
X107774Y861185D01*
X107666Y860743D01*
X107515Y860328D01*
X107321Y859939D01*
X107083Y859577D01*
X106803Y859240D01*
X106479Y858930D01*
X106119Y858651D01*
X105732Y858410D01*
X105317Y858205D01*
X104874Y858038D01*
X104404Y857908D01*
X103905Y857815D01*
X103379Y857760D01*
X102824Y857741D01*
X102265Y857759D01*
X101736Y857812D01*
X101238Y857901D01*
X100770Y858026D01*
X100333Y858187D01*
X99927Y858383D01*
X99551Y858614D01*
X99205Y858882D01*
X98896Y859181D01*
X98628Y859509D01*
X98401Y859865D01*
X98215Y860250D01*
X98070Y860664D01*
X97967Y861106D01*
X97905Y861576D01*
X97885Y862075D01*
X97894Y862397D01*
X97920Y862707D01*
X97965Y863006D01*
X98027Y863294D01*
X98108Y863571D01*
X98206Y863836D01*
X98321Y864091D01*
X98455Y864335D01*
X98606Y864564D01*
X98772Y864778D01*
X98954Y864975D01*
X99153Y865156D01*
X99367Y865321D01*
X99597Y865469D01*
X99843Y865601D01*
X100105Y865716D01*
X99578Y867305D01*
X99210Y867138D01*
X98866Y866949D01*
X98545Y866739D01*
X98247Y866506D01*
X97972Y866252D01*
X97721Y865975D01*
X97493Y865677D01*
X97288Y865357D01*
X97107Y865015D01*
X96950Y864654D01*
X96818Y864272D01*
X96709Y863870D01*
X96625Y863447D01*
X96564Y863004D01*
X96528Y862541D01*
X96516Y862058D01*
X96523Y861709D01*
X96542Y861371D01*
X96575Y861042D01*
X96621Y860722D01*
X96680Y860412D01*
X96752Y860112D01*
X96837Y859821D01*
X96935Y859540D01*
X97046Y859268D01*
X97171Y859006D01*
X97308Y858754D01*
X97459Y858511D01*
X97799Y858054D01*
X98192Y857636D01*
X98631Y857262D01*
X99110Y856937D01*
X99629Y856663D01*
X99903Y856544D01*
X100188Y856438D01*
X100482Y856345D01*
X100787Y856264D01*
X101102Y856195D01*
X101426Y856139D01*
X101761Y856095D01*
X102105Y856064D01*
X102460Y856045D01*
X102824Y856039D01*
X103310Y856050D01*
G37*
G36*
X98069Y899683D02*
X109063Y899683D01*
X109063Y901350D01*
X98069Y901350D01*
X98069Y905596D01*
X96700Y905596D01*
X96700Y895436D01*
X98069Y895436D01*
X98069Y899683D01*
G37*
G36*
X109063Y942367D02*
X107694Y942367D01*
X107694Y936120D01*
X96700Y936120D01*
X96700Y934444D01*
X109063Y934444D01*
X109063Y942367D01*
G37*
G36*
X109063Y952367D02*
X107694Y952367D01*
X107694Y946120D01*
X96700Y946120D01*
X96700Y944444D01*
X109063Y944444D01*
X109063Y952367D01*
G37*
%LPC*%
G36*
X98043Y909151D02*
X98043Y913126D01*
X98052Y913460D01*
X98078Y913774D01*
X98122Y914068D01*
X98184Y914342D01*
X98264Y914596D01*
X98361Y914829D01*
X98476Y915043D01*
X98609Y915236D01*
X98758Y915408D01*
X98924Y915556D01*
X99105Y915682D01*
X99303Y915785D01*
X99517Y915866D01*
X99746Y915923D01*
X99992Y915957D01*
X100254Y915969D01*
X100525Y915957D01*
X100780Y915923D01*
X101020Y915867D01*
X101244Y915788D01*
X101453Y915686D01*
X101646Y915561D01*
X101824Y915414D01*
X101987Y915245D01*
X102132Y915054D01*
X102257Y914845D01*
X102363Y914617D01*
X102450Y914371D01*
X102518Y914105D01*
X102566Y913821D01*
X102595Y913518D01*
X102605Y913196D01*
X102605Y909151D01*
X98043Y909151D01*
G37*
G36*
X98043Y968089D02*
X98043Y972063D01*
X98052Y972398D01*
X98078Y972712D01*
X98122Y973006D01*
X98184Y973280D01*
X98264Y973533D01*
X98361Y973767D01*
X98476Y973980D01*
X98609Y974173D01*
X98758Y974345D01*
X98924Y974494D01*
X99105Y974620D01*
X99303Y974723D01*
X99517Y974803D01*
X99746Y974860D01*
X99992Y974895D01*
X100254Y974906D01*
X100525Y974895D01*
X100780Y974861D01*
X101020Y974804D01*
X101244Y974725D01*
X101453Y974623D01*
X101646Y974499D01*
X101824Y974352D01*
X101987Y974182D01*
X102132Y973992D01*
X102257Y973783D01*
X102363Y973555D01*
X102450Y973308D01*
X102518Y973043D01*
X102566Y972758D01*
X102595Y972455D01*
X102605Y972134D01*
X102605Y968089D01*
X98043Y968089D01*
G37*
%LPD*%
G36*
X117000Y765641D02*
X116985Y765917D01*
X116939Y766177D01*
X116863Y766420D01*
X116757Y766646D01*
X116622Y766851D01*
X116461Y767032D01*
X116273Y767188D01*
X116058Y767319D01*
X115820Y767423D01*
X115563Y767497D01*
X115287Y767541D01*
X114992Y767556D01*
X114768Y767548D01*
X114557Y767522D01*
X114359Y767480D01*
X114174Y767420D01*
X114002Y767344D01*
X113844Y767251D01*
X113699Y767140D01*
X113567Y767013D01*
X113449Y766870D01*
X113348Y766713D01*
X113261Y766542D01*
X113191Y766356D01*
X113136Y766156D01*
X113097Y765942D01*
X113073Y765713D01*
X113066Y765470D01*
X113066Y764169D01*
X117000Y764169D01*
X117000Y765641D01*
G37*
%LPC*%
G36*
X113493Y764702D02*
X113493Y765459D01*
X113499Y765643D01*
X113517Y765817D01*
X113547Y765978D01*
X113589Y766129D01*
X113643Y766268D01*
X113709Y766397D01*
X113877Y766619D01*
X113978Y766713D01*
X114090Y766795D01*
X114214Y766864D01*
X114348Y766920D01*
X114493Y766964D01*
X114648Y766995D01*
X114815Y767014D01*
X114992Y767020D01*
X115227Y767009D01*
X115446Y766976D01*
X115649Y766921D01*
X115836Y766844D01*
X116004Y766747D01*
X116151Y766630D01*
X116278Y766495D01*
X116383Y766340D01*
X116466Y766170D01*
X116525Y765986D01*
X116561Y765789D01*
X116573Y765579D01*
X116573Y764702D01*
X113493Y764702D01*
G37*
%LPD*%
G36*
X117000Y770726D02*
X116573Y770726D01*
X116573Y769768D01*
X113066Y769768D01*
X113066Y769305D01*
X113705Y768375D01*
X114180Y768375D01*
X113546Y769263D01*
X116573Y769263D01*
X116573Y768261D01*
X117000Y768261D01*
X117000Y770726D01*
G37*
G36*
X587181Y699453D02*
X587645Y699487D01*
X588093Y699544D01*
X588526Y699623D01*
X588943Y699725D01*
X589346Y699850D01*
X589733Y699998D01*
X590105Y700168D01*
X590459Y700360D01*
X590792Y700573D01*
X591102Y700805D01*
X591392Y701058D01*
X591660Y701332D01*
X591906Y701626D01*
X592131Y701940D01*
X592334Y702275D01*
X592515Y702628D01*
X592672Y702997D01*
X592804Y703383D01*
X592913Y703784D01*
X592997Y704203D01*
X593057Y704637D01*
X593093Y705088D01*
X593105Y705555D01*
X593093Y706018D01*
X593056Y706465D01*
X592996Y706897D01*
X592910Y707313D01*
X592801Y707714D01*
X592667Y708099D01*
X592508Y708468D01*
X592326Y708822D01*
X592120Y709158D01*
X591894Y709473D01*
X591646Y709769D01*
X591378Y710045D01*
X591088Y710300D01*
X590777Y710535D01*
X590445Y710751D01*
X590092Y710946D01*
X589721Y711119D01*
X589335Y711269D01*
X588934Y711397D01*
X588518Y711501D01*
X588087Y711582D01*
X587640Y711640D01*
X587179Y711674D01*
X586703Y711686D01*
X586225Y711674D01*
X585763Y711640D01*
X585317Y711583D01*
X584887Y711503D01*
X584474Y711400D01*
X584077Y711274D01*
X583696Y711126D01*
X583331Y710954D01*
X582984Y710761D01*
X582659Y710548D01*
X582355Y710314D01*
X582073Y710060D01*
X581811Y709785D01*
X581571Y709490D01*
X581352Y709175D01*
X581154Y708839D01*
X580979Y708485D01*
X580827Y708116D01*
X580698Y707731D01*
X580593Y707331D01*
X580511Y706914D01*
X580452Y706483D01*
X580417Y706035D01*
X580405Y705572D01*
X580412Y705216D01*
X580431Y704870D01*
X580464Y704533D01*
X580510Y704207D01*
X580568Y703890D01*
X580640Y703583D01*
X580725Y703286D01*
X580822Y702999D01*
X580933Y702723D01*
X581057Y702455D01*
X581194Y702198D01*
X581344Y701951D01*
X581507Y701714D01*
X581683Y701487D01*
X582074Y701062D01*
X582511Y700682D01*
X582989Y700353D01*
X583243Y700207D01*
X583507Y700074D01*
X583781Y699954D01*
X584065Y699846D01*
X584360Y699751D01*
X584664Y699669D01*
X584979Y699600D01*
X585303Y699543D01*
X585638Y699498D01*
X585983Y699467D01*
X586338Y699448D01*
X586703Y699441D01*
X587181Y699453D01*
G37*
G36*
X592930Y718648D02*
X592918Y719088D01*
X592882Y719515D01*
X592823Y719929D01*
X592740Y720329D01*
X592632Y720717D01*
X592501Y721091D01*
X592347Y721453D01*
X592168Y721801D01*
X591967Y722133D01*
X591745Y722445D01*
X591502Y722738D01*
X591239Y723012D01*
X590954Y723266D01*
X590648Y723500D01*
X590322Y723716D01*
X589974Y723912D01*
X589609Y724086D01*
X589228Y724237D01*
X588833Y724365D01*
X588423Y724470D01*
X587998Y724551D01*
X587557Y724610D01*
X587103Y724644D01*
X586633Y724656D01*
X586275Y724649D01*
X585929Y724629D01*
X585592Y724596D01*
X585266Y724550D01*
X584950Y724490D01*
X584645Y724416D01*
X584350Y724330D01*
X584065Y724230D01*
X583791Y724117D01*
X583527Y723991D01*
X583274Y723851D01*
X583030Y723698D01*
X582798Y723531D01*
X582575Y723352D01*
X582363Y723159D01*
X582161Y722953D01*
X581971Y722734D01*
X581793Y722504D01*
X581627Y722263D01*
X581474Y722011D01*
X581332Y721748D01*
X581203Y721473D01*
X581087Y721188D01*
X580982Y720891D01*
X580890Y720583D01*
X580810Y720264D01*
X580743Y719933D01*
X580688Y719592D01*
X580645Y719239D01*
X580614Y718875D01*
X580595Y718500D01*
X580589Y718113D01*
X580589Y714032D01*
X592930Y714032D01*
X592930Y718648D01*
G37*
G36*
X592930Y740611D02*
X587806Y740611D01*
X587806Y744456D01*
X592930Y747662D01*
X592930Y749589D01*
X589877Y747577D01*
X587614Y746085D01*
X587541Y746428D01*
X587448Y746752D01*
X587332Y747057D01*
X587195Y747343D01*
X587103Y747499D01*
X587037Y747610D01*
X586857Y747858D01*
X586655Y748087D01*
X586431Y748297D01*
X586190Y748485D01*
X585935Y748647D01*
X585667Y748785D01*
X585385Y748898D01*
X585089Y748985D01*
X584779Y749048D01*
X584456Y749086D01*
X584119Y749098D01*
X583714Y749080D01*
X583333Y749027D01*
X582974Y748939D01*
X582638Y748815D01*
X582324Y748655D01*
X582034Y748460D01*
X581767Y748230D01*
X581522Y747964D01*
X581303Y747665D01*
X581114Y747337D01*
X580954Y746980D01*
X580822Y746592D01*
X580720Y746175D01*
X580648Y745728D01*
X580604Y745251D01*
X580589Y744745D01*
X580589Y738938D01*
X592930Y738938D01*
X592930Y740611D01*
G37*
%LPC*%
G36*
X586134Y701159D02*
X585599Y701213D01*
X585095Y701303D01*
X584625Y701430D01*
X584187Y701592D01*
X583781Y701791D01*
X583408Y702026D01*
X583068Y702297D01*
X582764Y702601D01*
X582501Y702935D01*
X582278Y703299D01*
X582096Y703694D01*
X581954Y704118D01*
X581853Y704573D01*
X581792Y705057D01*
X581772Y705572D01*
X581792Y706083D01*
X581854Y706564D01*
X581956Y707015D01*
X582100Y707437D01*
X582285Y707829D01*
X582511Y708191D01*
X582778Y708523D01*
X583085Y708826D01*
X583429Y709096D01*
X583804Y709330D01*
X584210Y709528D01*
X584647Y709690D01*
X585114Y709816D01*
X585613Y709906D01*
X586142Y709960D01*
X586703Y709978D01*
X587288Y709960D01*
X587839Y709906D01*
X588356Y709817D01*
X588839Y709692D01*
X589288Y709531D01*
X589702Y709335D01*
X590083Y709103D01*
X590429Y708835D01*
X590738Y708534D01*
X591006Y708201D01*
X591233Y707838D01*
X591418Y707443D01*
X591562Y707018D01*
X591665Y706561D01*
X591727Y706074D01*
X591748Y705555D01*
X591726Y705050D01*
X591663Y704574D01*
X591556Y704125D01*
X591407Y703706D01*
X591216Y703314D01*
X590982Y702951D01*
X590705Y702616D01*
X590386Y702310D01*
X590030Y702036D01*
X589645Y701798D01*
X589229Y701597D01*
X588784Y701433D01*
X588309Y701305D01*
X587803Y701214D01*
X587268Y701159D01*
X586703Y701140D01*
X586134Y701159D01*
G37*
G36*
X581929Y715705D02*
X581929Y718078D01*
X581948Y718656D01*
X582005Y719199D01*
X582099Y719707D01*
X582230Y720179D01*
X582400Y720617D01*
X582607Y721019D01*
X582851Y721386D01*
X583134Y721718D01*
X583452Y722012D01*
X583804Y722267D01*
X584190Y722483D01*
X584611Y722660D01*
X585065Y722798D01*
X585553Y722896D01*
X586076Y722955D01*
X586633Y722974D01*
X587007Y722966D01*
X587369Y722940D01*
X587719Y722897D01*
X588056Y722836D01*
X588380Y722759D01*
X588692Y722664D01*
X588991Y722552D01*
X589278Y722423D01*
X589550Y722277D01*
X589805Y722117D01*
X590045Y721942D01*
X590267Y721751D01*
X590474Y721546D01*
X590664Y721326D01*
X590837Y721092D01*
X590994Y720842D01*
X591134Y720579D01*
X591255Y720307D01*
X591357Y720024D01*
X591441Y719730D01*
X591506Y719427D01*
X591553Y719113D01*
X591581Y718789D01*
X591590Y718455D01*
X591590Y715705D01*
X581929Y715705D01*
G37*
%LPD*%
G36*
X592930Y675646D02*
X584732Y675646D01*
X583269Y675602D01*
X582420Y675558D01*
X592930Y682162D01*
X592930Y684177D01*
X580589Y684177D01*
X580589Y682670D01*
X588682Y682670D01*
X589689Y682697D01*
X591170Y682775D01*
X580589Y676101D01*
X580589Y674157D01*
X592930Y674157D01*
X592930Y675646D01*
G37*
G36*
X592930Y671941D02*
X591564Y671941D01*
X591564Y663892D01*
X587263Y663892D01*
X587263Y671057D01*
X585914Y671057D01*
X585914Y663892D01*
X581956Y663892D01*
X581956Y671582D01*
X580589Y671582D01*
X580589Y662219D01*
X592930Y662219D01*
X592930Y671941D01*
G37*
G36*
X592930Y736691D02*
X591564Y736691D01*
X591564Y728642D01*
X587263Y728642D01*
X587263Y735807D01*
X585914Y735807D01*
X585914Y728642D01*
X581956Y728642D01*
X581956Y736332D01*
X580589Y736332D01*
X580589Y726969D01*
X592930Y726969D01*
X592930Y736691D01*
G37*
G36*
X587187Y686576D02*
X587655Y686610D01*
X588106Y686666D01*
X588541Y686744D01*
X588959Y686844D01*
X589361Y686967D01*
X589746Y687112D01*
X590114Y687279D01*
X590464Y687468D01*
X590793Y687676D01*
X591101Y687905D01*
X591389Y688155D01*
X591655Y688424D01*
X591901Y688714D01*
X592126Y689024D01*
X592330Y689355D01*
X592512Y689703D01*
X592669Y690067D01*
X592802Y690447D01*
X592911Y690843D01*
X592996Y691254D01*
X593057Y691681D01*
X593093Y692124D01*
X593105Y692582D01*
X593092Y693031D01*
X593053Y693466D01*
X592988Y693886D01*
X592897Y694293D01*
X592780Y694687D01*
X592637Y695066D01*
X592468Y695432D01*
X592273Y695784D01*
X592053Y696119D01*
X591809Y696435D01*
X591542Y696731D01*
X591251Y697009D01*
X590935Y697267D01*
X590596Y697505D01*
X590234Y697725D01*
X589847Y697925D01*
X589164Y696559D01*
X589475Y696390D01*
X589765Y696212D01*
X590036Y696024D01*
X590287Y695826D01*
X590517Y695617D01*
X590728Y695399D01*
X590918Y695170D01*
X591089Y694932D01*
X591239Y694683D01*
X591369Y694424D01*
X591479Y694156D01*
X591570Y693877D01*
X591640Y693588D01*
X591690Y693289D01*
X591720Y692980D01*
X591730Y692661D01*
X591709Y692168D01*
X591644Y691702D01*
X591536Y691261D01*
X591385Y690847D01*
X591191Y690459D01*
X590954Y690097D01*
X590674Y689761D01*
X590351Y689451D01*
X589992Y689173D01*
X589605Y688932D01*
X589191Y688728D01*
X588749Y688561D01*
X588279Y688431D01*
X587781Y688338D01*
X587256Y688283D01*
X586703Y688264D01*
X586144Y688282D01*
X585616Y688335D01*
X585119Y688424D01*
X584652Y688549D01*
X584216Y688709D01*
X583810Y688905D01*
X583435Y689136D01*
X583090Y689403D01*
X582781Y689702D01*
X582513Y690029D01*
X582287Y690385D01*
X582101Y690769D01*
X581957Y691182D01*
X581854Y691623D01*
X581792Y692093D01*
X581772Y692591D01*
X581781Y692912D01*
X581807Y693221D01*
X581852Y693520D01*
X581914Y693807D01*
X581994Y694084D01*
X582092Y694349D01*
X582208Y694603D01*
X582341Y694846D01*
X582491Y695076D01*
X582657Y695289D01*
X582839Y695486D01*
X583037Y695666D01*
X583251Y695831D01*
X583481Y695979D01*
X583726Y696110D01*
X583988Y696226D01*
X583462Y697811D01*
X583095Y697645D01*
X582751Y697456D01*
X582430Y697246D01*
X582133Y697014D01*
X581859Y696760D01*
X581608Y696484D01*
X581380Y696186D01*
X581176Y695867D01*
X580995Y695526D01*
X580839Y695165D01*
X580706Y694784D01*
X580598Y694382D01*
X580514Y693960D01*
X580453Y693518D01*
X580417Y693056D01*
X580405Y692574D01*
X580412Y692226D01*
X580431Y691888D01*
X580464Y691559D01*
X580510Y691240D01*
X580569Y690931D01*
X580641Y690631D01*
X580726Y690340D01*
X580824Y690060D01*
X580935Y689789D01*
X581059Y689527D01*
X581196Y689275D01*
X581346Y689033D01*
X581686Y688577D01*
X582078Y688159D01*
X582516Y687786D01*
X582995Y687462D01*
X583513Y687188D01*
X583787Y687070D01*
X584071Y686964D01*
X584365Y686870D01*
X584669Y686789D01*
X584983Y686721D01*
X585307Y686665D01*
X585641Y686621D01*
X585985Y686590D01*
X586339Y686571D01*
X586703Y686565D01*
X587187Y686576D01*
G37*
%LPC*%
G36*
X581929Y740611D02*
X581929Y744579D01*
X581938Y744912D01*
X581965Y745226D01*
X582009Y745519D01*
X582071Y745793D01*
X582150Y746046D01*
X582247Y746279D01*
X582362Y746492D01*
X582494Y746685D01*
X582643Y746857D01*
X582809Y747005D01*
X582990Y747131D01*
X583187Y747234D01*
X583401Y747314D01*
X583630Y747371D01*
X583875Y747405D01*
X584136Y747416D01*
X584407Y747405D01*
X584662Y747371D01*
X584901Y747315D01*
X585125Y747236D01*
X585334Y747134D01*
X585527Y747010D01*
X585704Y746863D01*
X585866Y746694D01*
X586011Y746504D01*
X586136Y746295D01*
X586243Y746068D01*
X586329Y745821D01*
X586397Y745556D01*
X586445Y745273D01*
X586474Y744970D01*
X586484Y744649D01*
X586484Y740611D01*
X581929Y740611D01*
G37*
%LPD*%
G36*
X586740Y876904D02*
X581616Y876904D01*
X581616Y880749D01*
X586740Y883955D01*
X586740Y885882D01*
X583687Y883870D01*
X581424Y882378D01*
X581351Y882721D01*
X581258Y883045D01*
X581142Y883350D01*
X581005Y883636D01*
X580913Y883792D01*
X580847Y883903D01*
X580667Y884151D01*
X580465Y884380D01*
X580241Y884590D01*
X580000Y884778D01*
X579745Y884941D01*
X579477Y885078D01*
X579195Y885191D01*
X578899Y885279D01*
X578589Y885341D01*
X578266Y885379D01*
X577929Y885391D01*
X577524Y885374D01*
X577143Y885320D01*
X576784Y885232D01*
X576448Y885108D01*
X576134Y884948D01*
X575844Y884753D01*
X575577Y884523D01*
X575332Y884257D01*
X575113Y883959D01*
X574924Y883631D01*
X574764Y883273D01*
X574632Y882885D01*
X574530Y882468D01*
X574458Y882021D01*
X574414Y881545D01*
X574399Y881038D01*
X574399Y875231D01*
X586740Y875231D01*
X586740Y876904D01*
G37*
G36*
X586740Y895798D02*
X585400Y895798D01*
X585400Y892793D01*
X574399Y892793D01*
X574399Y891340D01*
X576405Y888423D01*
X577894Y888423D01*
X575906Y891208D01*
X585400Y891208D01*
X585400Y888064D01*
X586740Y888064D01*
X586740Y895798D01*
G37*
%LPC*%
G36*
X575739Y876904D02*
X575739Y880872D01*
X575748Y881206D01*
X575775Y881519D01*
X575819Y881813D01*
X575881Y882086D01*
X575960Y882339D01*
X576057Y882572D01*
X576172Y882785D01*
X576304Y882978D01*
X576453Y883150D01*
X576619Y883298D01*
X576800Y883424D01*
X576997Y883527D01*
X577211Y883607D01*
X577440Y883664D01*
X577685Y883698D01*
X577946Y883710D01*
X578217Y883698D01*
X578472Y883665D01*
X578711Y883608D01*
X578935Y883529D01*
X579144Y883427D01*
X579337Y883303D01*
X579514Y883156D01*
X579676Y882987D01*
X579821Y882797D01*
X579946Y882588D01*
X580053Y882361D01*
X580139Y882115D01*
X580207Y881850D01*
X580255Y881566D01*
X580284Y881263D01*
X580294Y880942D01*
X580294Y876904D01*
X575739Y876904D01*
G37*
%LPD*%
G36*
X548640Y874295D02*
X543516Y874295D01*
X543516Y878140D01*
X548640Y881346D01*
X548640Y883273D01*
X545587Y881261D01*
X543324Y879769D01*
X543251Y880112D01*
X543158Y880436D01*
X543042Y880741D01*
X542905Y881027D01*
X542813Y881183D01*
X542747Y881294D01*
X542567Y881542D01*
X542365Y881771D01*
X542141Y881981D01*
X541900Y882169D01*
X541645Y882331D01*
X541377Y882469D01*
X541095Y882582D01*
X540799Y882669D01*
X540489Y882732D01*
X540166Y882770D01*
X539829Y882782D01*
X539424Y882764D01*
X539043Y882711D01*
X538684Y882623D01*
X538348Y882499D01*
X538034Y882339D01*
X537744Y882144D01*
X537477Y881914D01*
X537232Y881648D01*
X537013Y881350D01*
X536824Y881021D01*
X536664Y880664D01*
X536532Y880276D01*
X536430Y879859D01*
X536358Y879412D01*
X536314Y878935D01*
X536299Y878429D01*
X536299Y872622D01*
X548640Y872622D01*
X548640Y874295D01*
G37*
G36*
X548640Y893162D02*
X547300Y893162D01*
X547300Y886725D01*
X546990Y886877D01*
X546675Y887071D01*
X546353Y887306D01*
X546026Y887583D01*
X545685Y887906D01*
X545324Y888281D01*
X544943Y888708D01*
X544541Y889186D01*
X543845Y890027D01*
X543247Y890721D01*
X542746Y891266D01*
X542343Y891664D01*
X541988Y891969D01*
X541633Y892233D01*
X541278Y892457D01*
X540924Y892641D01*
X540568Y892785D01*
X540212Y892887D01*
X539855Y892949D01*
X539496Y892969D01*
X539103Y892954D01*
X538732Y892907D01*
X538385Y892828D01*
X538061Y892719D01*
X537760Y892578D01*
X537482Y892405D01*
X537227Y892202D01*
X536996Y891967D01*
X536789Y891702D01*
X536610Y891411D01*
X536459Y891093D01*
X536335Y890748D01*
X536239Y890376D01*
X536170Y889977D01*
X536129Y889551D01*
X536115Y889098D01*
X536129Y888683D01*
X536170Y888287D01*
X536238Y887911D01*
X536334Y887553D01*
X536457Y887215D01*
X536608Y886897D01*
X536786Y886597D01*
X536991Y886317D01*
X537220Y886061D01*
X537467Y885833D01*
X537733Y885634D01*
X538018Y885462D01*
X538322Y885319D01*
X538645Y885205D01*
X538987Y885118D01*
X539347Y885061D01*
X539496Y886672D01*
X539256Y886709D01*
X539029Y886763D01*
X538816Y886833D01*
X538617Y886921D01*
X538432Y887025D01*
X538260Y887146D01*
X538103Y887284D01*
X537959Y887438D01*
X537831Y887607D01*
X537719Y887787D01*
X537625Y887978D01*
X537548Y888180D01*
X537489Y888393D01*
X537446Y888617D01*
X537420Y888852D01*
X537412Y889098D01*
X537420Y889356D01*
X537447Y889599D01*
X537490Y889828D01*
X537552Y890042D01*
X537631Y890242D01*
X537727Y890427D01*
X537841Y890597D01*
X537972Y890754D01*
X538119Y890893D01*
X538281Y891014D01*
X538457Y891116D01*
X538647Y891200D01*
X538851Y891265D01*
X539069Y891312D01*
X539302Y891340D01*
X539549Y891349D01*
X539915Y891328D01*
X540262Y891263D01*
X540590Y891155D01*
X540897Y891003D01*
X541192Y890817D01*
X541480Y890604D01*
X541761Y890364D01*
X542036Y890097D01*
X542579Y889502D01*
X543122Y888840D01*
X543688Y888140D01*
X544300Y887434D01*
X544627Y887083D01*
X544972Y886741D01*
X545336Y886407D01*
X545719Y886081D01*
X546126Y885771D01*
X546563Y885486D01*
X547030Y885226D01*
X547528Y884990D01*
X548640Y884990D01*
X548640Y893162D01*
G37*
%LPC*%
G36*
X537639Y874295D02*
X537639Y878263D01*
X537648Y878596D01*
X537675Y878910D01*
X537719Y879204D01*
X537781Y879477D01*
X537860Y879730D01*
X537957Y879963D01*
X538072Y880176D01*
X538204Y880369D01*
X538353Y880541D01*
X538519Y880689D01*
X538700Y880815D01*
X538897Y880918D01*
X539111Y880998D01*
X539340Y881055D01*
X539585Y881089D01*
X539846Y881101D01*
X540117Y881089D01*
X540372Y881055D01*
X540611Y880999D01*
X540835Y880920D01*
X541044Y880818D01*
X541237Y880694D01*
X541414Y880547D01*
X541576Y880378D01*
X541721Y880188D01*
X541846Y879979D01*
X541953Y879752D01*
X542039Y879505D01*
X542107Y879240D01*
X542155Y878957D01*
X542184Y878654D01*
X542194Y878333D01*
X542194Y874295D01*
X537639Y874295D01*
G37*
%LPD*%
G36*
X542825Y984294D02*
X546670Y984294D01*
X549876Y979170D01*
X551803Y979170D01*
X549791Y982223D01*
X548299Y984486D01*
X548642Y984559D01*
X548966Y984652D01*
X549271Y984768D01*
X549557Y984905D01*
X549713Y984997D01*
X549824Y985063D01*
X550072Y985244D01*
X550301Y985445D01*
X550511Y985669D01*
X550699Y985910D01*
X550861Y986165D01*
X550999Y986433D01*
X551112Y986715D01*
X551199Y987011D01*
X551262Y987321D01*
X551300Y987644D01*
X551312Y987981D01*
X551294Y988386D01*
X551241Y988767D01*
X551153Y989126D01*
X551029Y989462D01*
X550869Y989776D01*
X550674Y990066D01*
X550444Y990333D01*
X550178Y990578D01*
X549880Y990797D01*
X549551Y990986D01*
X549194Y991146D01*
X548806Y991278D01*
X548389Y991380D01*
X547942Y991452D01*
X547465Y991496D01*
X546959Y991511D01*
X541152Y991511D01*
X541152Y979170D01*
X542825Y979170D01*
X542825Y984294D01*
G37*
G36*
X558109Y979010D02*
X558569Y979053D01*
X559000Y979127D01*
X559402Y979229D01*
X559775Y979361D01*
X560119Y979522D01*
X560434Y979712D01*
X560720Y979932D01*
X560975Y980178D01*
X561195Y980449D01*
X561382Y980743D01*
X561535Y981062D01*
X561653Y981405D01*
X561738Y981771D01*
X561789Y982162D01*
X561806Y982577D01*
X561794Y982866D01*
X561758Y983143D01*
X561698Y983407D01*
X561613Y983659D01*
X561505Y983898D01*
X561372Y984124D01*
X561216Y984338D01*
X561035Y984539D01*
X560833Y984724D01*
X560612Y984889D01*
X560371Y985035D01*
X560111Y985161D01*
X559832Y985267D01*
X559534Y985354D01*
X559217Y985420D01*
X558881Y985467D01*
X558881Y985502D01*
X559187Y985576D01*
X559474Y985664D01*
X559742Y985767D01*
X559992Y985885D01*
X560223Y986017D01*
X560435Y986165D01*
X560628Y986328D01*
X560803Y986505D01*
X560958Y986697D01*
X561092Y986903D01*
X561206Y987123D01*
X561299Y987356D01*
X561371Y987603D01*
X561423Y987864D01*
X561454Y988139D01*
X561464Y988428D01*
X561448Y988803D01*
X561400Y989156D01*
X561320Y989488D01*
X561207Y989800D01*
X561062Y990090D01*
X560886Y990358D01*
X560677Y990606D01*
X560435Y990832D01*
X560165Y991034D01*
X559869Y991209D01*
X559547Y991358D01*
X559199Y991479D01*
X558826Y991573D01*
X558426Y991641D01*
X558001Y991681D01*
X557549Y991695D01*
X557134Y991681D01*
X556738Y991642D01*
X556362Y991575D01*
X556005Y991482D01*
X555667Y991363D01*
X555348Y991217D01*
X555049Y991044D01*
X554769Y990845D01*
X554512Y990622D01*
X554284Y990379D01*
X554085Y990114D01*
X553913Y989829D01*
X553771Y989523D01*
X553656Y989196D01*
X553570Y988849D01*
X553512Y988480D01*
X555097Y988358D01*
X555132Y988594D01*
X555183Y988816D01*
X555252Y989025D01*
X555337Y989220D01*
X555439Y989402D01*
X555558Y989570D01*
X555693Y989724D01*
X555846Y989864D01*
X556013Y989989D01*
X556193Y990098D01*
X556385Y990190D01*
X556589Y990265D01*
X556806Y990323D01*
X557036Y990365D01*
X557278Y990390D01*
X557532Y990398D01*
X557810Y990389D01*
X558070Y990363D01*
X558313Y990318D01*
X558538Y990255D01*
X558745Y990174D01*
X558935Y990076D01*
X559107Y989959D01*
X559262Y989825D01*
X559398Y989675D01*
X559516Y989512D01*
X559617Y989336D01*
X559699Y989147D01*
X559762Y988945D01*
X559808Y988730D01*
X559835Y988502D01*
X559844Y988261D01*
X559833Y988019D01*
X559799Y987789D01*
X559744Y987573D01*
X559666Y987371D01*
X559565Y987183D01*
X559443Y987008D01*
X559298Y986846D01*
X559130Y986698D01*
X558943Y986566D01*
X558737Y986451D01*
X558513Y986354D01*
X558271Y986274D01*
X558010Y986212D01*
X557732Y986168D01*
X557435Y986142D01*
X557120Y986133D01*
X556262Y986133D01*
X556262Y984767D01*
X557155Y984767D01*
X557510Y984758D01*
X557844Y984731D01*
X558156Y984687D01*
X558446Y984625D01*
X558715Y984546D01*
X558963Y984449D01*
X559189Y984334D01*
X559393Y984202D01*
X559575Y984054D01*
X559732Y983892D01*
X559865Y983716D01*
X559974Y983526D01*
X560059Y983323D01*
X560120Y983106D01*
X560156Y982875D01*
X560168Y982630D01*
X560158Y982349D01*
X560126Y982087D01*
X560073Y981843D01*
X559998Y981616D01*
X559903Y981407D01*
X559786Y981216D01*
X559648Y981042D01*
X559489Y980887D01*
X559312Y980749D01*
X559118Y980630D01*
X558908Y980529D01*
X558683Y980447D01*
X558441Y980382D01*
X558183Y980337D01*
X557909Y980309D01*
X557619Y980300D01*
X557331Y980308D01*
X557058Y980334D01*
X556802Y980377D01*
X556561Y980437D01*
X556337Y980514D01*
X556129Y980608D01*
X555937Y980719D01*
X555760Y980847D01*
X555600Y980993D01*
X555456Y981155D01*
X555329Y981335D01*
X555217Y981532D01*
X555121Y981745D01*
X555042Y981976D01*
X554978Y982224D01*
X554931Y982489D01*
X553301Y982341D01*
X553368Y981939D01*
X553463Y981564D01*
X553587Y981213D01*
X553738Y980888D01*
X553918Y980588D01*
X554127Y980313D01*
X554363Y980064D01*
X554628Y979840D01*
X554919Y979642D01*
X555234Y979470D01*
X555572Y979325D01*
X555935Y979206D01*
X556320Y979114D01*
X556730Y979048D01*
X557163Y979008D01*
X557619Y978995D01*
X558109Y979010D01*
G37*
%LPC*%
G36*
X542825Y985616D02*
X542825Y990171D01*
X546793Y990171D01*
X547126Y990162D01*
X547440Y990135D01*
X547734Y990091D01*
X548007Y990030D01*
X548260Y989950D01*
X548493Y989853D01*
X548706Y989738D01*
X548899Y989606D01*
X549071Y989457D01*
X549219Y989291D01*
X549345Y989110D01*
X549448Y988913D01*
X549528Y988700D01*
X549585Y988470D01*
X549619Y988225D01*
X549631Y987964D01*
X549619Y987693D01*
X549585Y987438D01*
X549529Y987199D01*
X549450Y986975D01*
X549348Y986766D01*
X549224Y986573D01*
X549077Y986396D01*
X548908Y986234D01*
X548718Y986089D01*
X548509Y985964D01*
X548282Y985857D01*
X548035Y985771D01*
X547770Y985703D01*
X547487Y985655D01*
X547184Y985626D01*
X546863Y985616D01*
X542825Y985616D01*
G37*
%LPD*%
G36*
X144577Y831525D02*
X139445Y831525D01*
X139445Y835376D01*
X144577Y838588D01*
X144577Y840518D01*
X141519Y838502D01*
X139252Y837008D01*
X139179Y837352D01*
X139085Y837677D01*
X138970Y837982D01*
X138833Y838269D01*
X138740Y838425D01*
X138674Y838536D01*
X138493Y838784D01*
X138291Y839014D01*
X138067Y839224D01*
X137826Y839412D01*
X137570Y839575D01*
X137301Y839713D01*
X137019Y839826D01*
X136722Y839914D01*
X136412Y839976D01*
X136088Y840014D01*
X135751Y840027D01*
X135345Y840009D01*
X134963Y839956D01*
X134604Y839867D01*
X134267Y839743D01*
X133953Y839583D01*
X133662Y839387D01*
X133394Y839157D01*
X133149Y838890D01*
X132930Y838591D01*
X132741Y838263D01*
X132580Y837904D01*
X132449Y837516D01*
X132346Y837098D01*
X132273Y836651D01*
X132230Y836173D01*
X132215Y835666D01*
X132215Y829849D01*
X144577Y829849D01*
X144577Y831525D01*
G37*
G36*
X144577Y852557D02*
X143209Y852557D01*
X143209Y844494D01*
X138901Y844494D01*
X138901Y851671D01*
X137549Y851671D01*
X137549Y844494D01*
X133584Y844494D01*
X133584Y852197D01*
X132215Y852197D01*
X132215Y842818D01*
X144577Y842818D01*
X144577Y852557D01*
G37*
G36*
X144577Y876525D02*
X143209Y876525D01*
X143209Y868462D01*
X138901Y868462D01*
X138901Y875639D01*
X137549Y875639D01*
X137549Y868462D01*
X133584Y868462D01*
X133584Y876166D01*
X132215Y876166D01*
X132215Y866786D01*
X144577Y866786D01*
X144577Y876525D01*
G37*
G36*
X141992Y854233D02*
X142348Y854368D01*
X142679Y854532D01*
X142986Y854726D01*
X143268Y854949D01*
X143526Y855202D01*
X143759Y855485D01*
X143967Y855798D01*
X144151Y856140D01*
X144311Y856512D01*
X144446Y856913D01*
X144556Y857345D01*
X144642Y857806D01*
X144704Y858296D01*
X144740Y858816D01*
X144753Y859366D01*
X144738Y859957D01*
X144694Y860513D01*
X144621Y861036D01*
X144518Y861524D01*
X144386Y861978D01*
X144225Y862397D01*
X144034Y862783D01*
X143814Y863135D01*
X143567Y863448D01*
X143296Y863720D01*
X143001Y863950D01*
X142682Y864138D01*
X142339Y864285D01*
X141971Y864389D01*
X141580Y864452D01*
X141164Y864473D01*
X140837Y864461D01*
X140532Y864426D01*
X140250Y864367D01*
X139989Y864284D01*
X139747Y864181D01*
X139521Y864059D01*
X139312Y863920D01*
X139120Y863762D01*
X138943Y863588D01*
X138780Y863399D01*
X138631Y863195D01*
X138497Y862977D01*
X138259Y862509D01*
X138054Y862007D01*
X137878Y861478D01*
X137729Y860924D01*
X137462Y859788D01*
X137280Y859007D01*
X137114Y858368D01*
X136962Y857871D01*
X136826Y857515D01*
X136689Y857247D01*
X136538Y857012D01*
X136373Y856810D01*
X136194Y856642D01*
X135995Y856510D01*
X135772Y856415D01*
X135523Y856358D01*
X135251Y856339D01*
X135015Y856352D01*
X134794Y856388D01*
X134588Y856449D01*
X134397Y856535D01*
X134222Y856644D01*
X134061Y856779D01*
X133916Y856937D01*
X133785Y857120D01*
X133670Y857327D01*
X133570Y857555D01*
X133486Y857805D01*
X133417Y858077D01*
X133363Y858371D01*
X133325Y858686D01*
X133302Y859024D01*
X133294Y859384D01*
X133301Y859713D01*
X133322Y860023D01*
X133356Y860315D01*
X133405Y860588D01*
X133467Y860843D01*
X133543Y861080D01*
X133633Y861298D01*
X133737Y861498D01*
X133856Y861682D01*
X133992Y861849D01*
X134145Y862002D01*
X134315Y862139D01*
X134502Y862261D01*
X134705Y862367D01*
X134926Y862458D01*
X135163Y862534D01*
X134873Y864183D01*
X134499Y864061D01*
X134154Y863918D01*
X133836Y863754D01*
X133547Y863569D01*
X133287Y863363D01*
X133055Y863137D01*
X132851Y862890D01*
X132676Y862622D01*
X132524Y862327D01*
X132393Y862002D01*
X132283Y861646D01*
X132192Y861259D01*
X132121Y860841D01*
X132071Y860392D01*
X132041Y859912D01*
X132031Y859402D01*
X132044Y858852D01*
X132084Y858335D01*
X132152Y857851D01*
X132246Y857400D01*
X132367Y856982D01*
X132514Y856596D01*
X132689Y856243D01*
X132891Y855923D01*
X133117Y855638D01*
X133366Y855391D01*
X133638Y855182D01*
X133932Y855011D01*
X134250Y854878D01*
X134590Y854783D01*
X134953Y854727D01*
X135338Y854708D01*
X135675Y854722D01*
X135992Y854766D01*
X136289Y854838D01*
X136567Y854940D01*
X136826Y855069D01*
X137068Y855224D01*
X137293Y855405D01*
X137501Y855611D01*
X137696Y855851D01*
X137882Y856130D01*
X138058Y856449D01*
X138225Y856809D01*
X138387Y857232D01*
X138550Y857744D01*
X138712Y858345D01*
X138874Y859033D01*
X139234Y860568D01*
X139322Y860903D01*
X139420Y861213D01*
X139528Y861500D01*
X139646Y861762D01*
X139777Y861998D01*
X139925Y862206D01*
X140089Y862386D01*
X140269Y862538D01*
X140472Y862659D01*
X140704Y862745D01*
X140964Y862797D01*
X141252Y862815D01*
X141514Y862801D01*
X141759Y862759D01*
X141988Y862691D01*
X142201Y862594D01*
X142397Y862470D01*
X142577Y862319D01*
X142741Y862139D01*
X142888Y861933D01*
X143019Y861701D01*
X143132Y861446D01*
X143228Y861167D01*
X143306Y860866D01*
X143367Y860541D01*
X143411Y860193D01*
X143437Y859822D01*
X143445Y859428D01*
X143437Y859045D01*
X143413Y858684D01*
X143372Y858342D01*
X143315Y858022D01*
X143241Y857722D01*
X143152Y857442D01*
X143046Y857183D01*
X142923Y856945D01*
X142784Y856727D01*
X142625Y856528D01*
X142449Y856349D01*
X142253Y856190D01*
X142039Y856051D01*
X141807Y855931D01*
X141556Y855832D01*
X141287Y855752D01*
X141612Y854128D01*
X141992Y854233D01*
G37*
G36*
X133584Y881931D02*
X144577Y881931D01*
X144577Y883598D01*
X133584Y883598D01*
X133584Y887845D01*
X132215Y887845D01*
X132215Y877685D01*
X133584Y877685D01*
X133584Y881931D01*
G37*
%LPC*%
G36*
X133557Y831525D02*
X133557Y835499D01*
X133566Y835834D01*
X133593Y836148D01*
X133637Y836442D01*
X133699Y836716D01*
X133778Y836969D01*
X133876Y837203D01*
X133991Y837416D01*
X134123Y837609D01*
X134273Y837781D01*
X134438Y837930D01*
X134620Y838056D01*
X134817Y838159D01*
X135031Y838239D01*
X135261Y838296D01*
X135507Y838331D01*
X135768Y838342D01*
X136039Y838331D01*
X136294Y838297D01*
X136534Y838240D01*
X136759Y838161D01*
X136968Y838059D01*
X137161Y837935D01*
X137339Y837788D01*
X137501Y837618D01*
X137646Y837428D01*
X137772Y837219D01*
X137878Y836991D01*
X137965Y836744D01*
X138033Y836479D01*
X138081Y836194D01*
X138110Y835891D01*
X138120Y835570D01*
X138120Y831525D01*
X133557Y831525D01*
G37*
%LPD*%
G36*
X215018Y860175D02*
X215483Y860209D01*
X215931Y860266D01*
X216365Y860346D01*
X216784Y860448D01*
X217187Y860573D01*
X217575Y860721D01*
X217948Y860892D01*
X218302Y861084D01*
X218635Y861297D01*
X218946Y861530D01*
X219236Y861783D01*
X219505Y862057D01*
X219752Y862352D01*
X219977Y862667D01*
X220181Y863002D01*
X220362Y863356D01*
X220518Y863725D01*
X220651Y864112D01*
X220760Y864514D01*
X220844Y864933D01*
X220904Y865368D01*
X220941Y865820D01*
X220953Y866288D01*
X220940Y866751D01*
X220904Y867200D01*
X220843Y867632D01*
X220757Y868049D01*
X220648Y868450D01*
X220513Y868836D01*
X220355Y869206D01*
X220172Y869560D01*
X219966Y869897D01*
X219739Y870213D01*
X219491Y870509D01*
X219222Y870785D01*
X218932Y871041D01*
X218621Y871277D01*
X218288Y871493D01*
X217935Y871688D01*
X217563Y871862D01*
X217176Y872012D01*
X216774Y872140D01*
X216357Y872244D01*
X215925Y872325D01*
X215478Y872383D01*
X215016Y872418D01*
X214539Y872429D01*
X214060Y872418D01*
X213598Y872384D01*
X213151Y872326D01*
X212721Y872246D01*
X212307Y872143D01*
X211909Y872017D01*
X211527Y871868D01*
X211161Y871697D01*
X210814Y871503D01*
X210489Y871290D01*
X210184Y871055D01*
X209901Y870801D01*
X209639Y870526D01*
X209398Y870230D01*
X209179Y869914D01*
X208981Y869578D01*
X208805Y869223D01*
X208653Y868853D01*
X208524Y868468D01*
X208418Y868067D01*
X208336Y867650D01*
X208278Y867217D01*
X208242Y866769D01*
X208231Y866305D01*
X208237Y865948D01*
X208257Y865601D01*
X208289Y865264D01*
X208335Y864937D01*
X208394Y864620D01*
X208466Y864313D01*
X208551Y864015D01*
X208649Y863728D01*
X208760Y863450D01*
X208884Y863183D01*
X209021Y862925D01*
X209171Y862678D01*
X209334Y862440D01*
X209510Y862212D01*
X209902Y861787D01*
X210340Y861406D01*
X210819Y861077D01*
X211073Y860931D01*
X211338Y860798D01*
X211612Y860677D01*
X211897Y860569D01*
X212192Y860474D01*
X212497Y860392D01*
X212812Y860322D01*
X213137Y860265D01*
X213472Y860221D01*
X213818Y860189D01*
X214173Y860170D01*
X214539Y860164D01*
X215018Y860175D01*
G37*
G36*
X215347Y874000D02*
X216056Y874050D01*
X216718Y874134D01*
X217334Y874251D01*
X217902Y874401D01*
X218425Y874585D01*
X218900Y874803D01*
X219330Y875054D01*
X219710Y875338D01*
X220040Y875655D01*
X220319Y876006D01*
X220547Y876389D01*
X220724Y876806D01*
X220851Y877256D01*
X220896Y877494D01*
X220927Y877740D01*
X220946Y877994D01*
X220953Y878256D01*
X220946Y878518D01*
X220927Y878773D01*
X220895Y879019D01*
X220851Y879257D01*
X220793Y879487D01*
X220723Y879709D01*
X220545Y880128D01*
X220315Y880515D01*
X220035Y880869D01*
X219703Y881191D01*
X219321Y881480D01*
X218890Y881736D01*
X218413Y881958D01*
X217891Y882146D01*
X217323Y882300D01*
X216709Y882419D01*
X216049Y882504D01*
X215343Y882556D01*
X214592Y882573D01*
X213828Y882556D01*
X213113Y882508D01*
X212446Y882427D01*
X211828Y882313D01*
X211258Y882167D01*
X210736Y881988D01*
X210262Y881777D01*
X209836Y881533D01*
X209460Y881255D01*
X209134Y880942D01*
X208858Y880592D01*
X208632Y880207D01*
X208456Y879786D01*
X208387Y879562D01*
X208331Y879329D01*
X208287Y879088D01*
X208256Y878837D01*
X208237Y878577D01*
X208231Y878309D01*
X208237Y878033D01*
X208255Y877766D01*
X208287Y877509D01*
X208330Y877261D01*
X208386Y877023D01*
X208454Y876794D01*
X208628Y876364D01*
X208851Y875972D01*
X209124Y875618D01*
X209447Y875302D01*
X209819Y875023D01*
X210241Y874779D01*
X210713Y874568D01*
X211234Y874389D01*
X211806Y874243D01*
X212428Y874129D01*
X213099Y874048D01*
X213820Y873999D01*
X214592Y873983D01*
X215347Y874000D01*
G37*
G36*
X220777Y845494D02*
X215960Y845494D01*
X215960Y849126D01*
X215944Y849604D01*
X215896Y850057D01*
X215815Y850485D01*
X215702Y850886D01*
X215556Y851262D01*
X215378Y851612D01*
X215168Y851937D01*
X214925Y852236D01*
X214655Y852505D01*
X214362Y852737D01*
X214047Y852934D01*
X213710Y853095D01*
X213350Y853220D01*
X212967Y853310D01*
X212562Y853363D01*
X212135Y853381D01*
X211704Y853363D01*
X211299Y853310D01*
X210918Y853221D01*
X210562Y853096D01*
X210232Y852936D01*
X209926Y852740D01*
X209645Y852508D01*
X209389Y852241D01*
X209161Y851941D01*
X208963Y851612D01*
X208795Y851253D01*
X208658Y850865D01*
X208552Y850448D01*
X208476Y850002D01*
X208430Y849526D01*
X208415Y849021D01*
X208415Y843818D01*
X220777Y843818D01*
X220777Y845494D01*
G37*
%LPC*%
G36*
X213970Y861884D02*
X213433Y861938D01*
X212929Y862029D01*
X212457Y862155D01*
X212019Y862318D01*
X211612Y862517D01*
X211239Y862752D01*
X210898Y863024D01*
X210594Y863328D01*
X210330Y863663D01*
X210107Y864028D01*
X209924Y864423D01*
X209782Y864848D01*
X209681Y865304D01*
X209620Y865789D01*
X209599Y866305D01*
X209620Y866817D01*
X209682Y867299D01*
X209784Y867751D01*
X209928Y868173D01*
X210113Y868566D01*
X210340Y868928D01*
X210607Y869261D01*
X210915Y869565D01*
X211260Y869835D01*
X211635Y870069D01*
X212042Y870268D01*
X212479Y870430D01*
X212948Y870556D01*
X213447Y870646D01*
X213978Y870700D01*
X214539Y870718D01*
X215125Y870701D01*
X215677Y870647D01*
X216195Y870557D01*
X216679Y870432D01*
X217128Y870271D01*
X217544Y870074D01*
X217925Y869842D01*
X218272Y869573D01*
X218582Y869272D01*
X218850Y868939D01*
X219077Y868575D01*
X219263Y868180D01*
X219407Y867753D01*
X219510Y867296D01*
X219572Y866807D01*
X219593Y866288D01*
X219571Y865782D01*
X219507Y865305D01*
X219401Y864856D01*
X219252Y864435D01*
X219060Y864043D01*
X218825Y863679D01*
X218548Y863344D01*
X218228Y863037D01*
X217872Y862762D01*
X217486Y862525D01*
X217070Y862323D01*
X216624Y862159D01*
X216148Y862030D01*
X215642Y861939D01*
X215105Y861884D01*
X214539Y861866D01*
X213970Y861884D01*
G37*
%LPD*%
G36*
X215022Y829290D02*
X215490Y829325D01*
X215941Y829383D01*
X216376Y829464D01*
X216795Y829568D01*
X217198Y829696D01*
X217585Y829846D01*
X217956Y830020D01*
X218309Y830216D01*
X218640Y830432D01*
X218950Y830669D01*
X219239Y830927D01*
X219506Y831206D01*
X219752Y831505D01*
X219977Y831825D01*
X220181Y832165D01*
X220362Y832525D01*
X220518Y832901D01*
X220651Y833293D01*
X220760Y833703D01*
X220844Y834129D01*
X220904Y834572D01*
X220941Y835032D01*
X220953Y835508D01*
X220944Y835921D01*
X220918Y836327D01*
X220876Y836724D01*
X220816Y837115D01*
X220738Y837498D01*
X220644Y837873D01*
X220533Y838241D01*
X220404Y838601D01*
X220260Y838950D01*
X220102Y839286D01*
X219930Y839608D01*
X219743Y839916D01*
X219542Y840210D01*
X219328Y840490D01*
X219099Y840757D01*
X218856Y841009D01*
X214592Y841009D01*
X214592Y835771D01*
X215995Y835771D01*
X215995Y839465D01*
X218224Y839465D01*
X218523Y839116D01*
X218790Y838716D01*
X219024Y838267D01*
X219224Y837767D01*
X219385Y837233D01*
X219501Y836678D01*
X219570Y836103D01*
X219593Y835508D01*
X219572Y834992D01*
X219508Y834504D01*
X219402Y834045D01*
X219254Y833615D01*
X219063Y833214D01*
X218830Y832841D01*
X218555Y832498D01*
X218237Y832183D01*
X217883Y831901D01*
X217498Y831657D01*
X217082Y831450D01*
X216635Y831281D01*
X216157Y831150D01*
X215649Y831056D01*
X215109Y831000D01*
X214539Y830981D01*
X213968Y830999D01*
X213429Y831052D01*
X212924Y831140D01*
X212452Y831264D01*
X212013Y831423D01*
X211607Y831617D01*
X211234Y831847D01*
X210894Y832113D01*
X210590Y832411D01*
X210327Y832742D01*
X210105Y833103D01*
X209923Y833497D01*
X209781Y833922D01*
X209680Y834378D01*
X209620Y834866D01*
X209599Y835385D01*
X209607Y835723D01*
X209630Y836046D01*
X209667Y836355D01*
X209720Y836650D01*
X209788Y836931D01*
X209871Y837197D01*
X209969Y837450D01*
X210082Y837688D01*
X210212Y837914D01*
X210359Y838126D01*
X210524Y838326D01*
X210707Y838514D01*
X210908Y838689D01*
X211127Y838852D01*
X211363Y839003D01*
X211617Y839140D01*
X211144Y840737D01*
X210775Y840555D01*
X210432Y840354D01*
X210116Y840135D01*
X209825Y839897D01*
X209561Y839641D01*
X209322Y839367D01*
X209110Y839074D01*
X208924Y838763D01*
X208761Y838431D01*
X208621Y838074D01*
X208501Y837694D01*
X208404Y837289D01*
X208328Y836860D01*
X208274Y836407D01*
X208242Y835930D01*
X208231Y835429D01*
X208237Y835069D01*
X208256Y834719D01*
X208289Y834379D01*
X208334Y834050D01*
X208392Y833731D01*
X208463Y833422D01*
X208546Y833123D01*
X208643Y832834D01*
X208753Y832556D01*
X208875Y832288D01*
X209010Y832030D01*
X209159Y831782D01*
X209320Y831544D01*
X209494Y831317D01*
X209880Y830893D01*
X210314Y830515D01*
X210547Y830344D01*
X210790Y830187D01*
X211044Y830042D01*
X211309Y829909D01*
X211584Y829790D01*
X211870Y829682D01*
X212166Y829588D01*
X212473Y829506D01*
X212791Y829436D01*
X213119Y829380D01*
X213458Y829335D01*
X213808Y829304D01*
X214168Y829285D01*
X214539Y829279D01*
X215022Y829290D01*
G37*
%LPC*%
G36*
X213938Y875590D02*
X213332Y875620D01*
X212773Y875669D01*
X212262Y875739D01*
X211799Y875828D01*
X211384Y875938D01*
X211016Y876067D01*
X210696Y876216D01*
X210419Y876388D01*
X210178Y876585D01*
X209974Y876809D01*
X209808Y877057D01*
X209678Y877332D01*
X209586Y877632D01*
X209530Y877957D01*
X209512Y878309D01*
X209530Y878651D01*
X209587Y878969D01*
X209681Y879262D01*
X209812Y879529D01*
X209981Y879772D01*
X210188Y879989D01*
X210432Y880181D01*
X210714Y880349D01*
X211037Y880494D01*
X211407Y880619D01*
X211822Y880725D01*
X212284Y880812D01*
X212792Y880880D01*
X213346Y880928D01*
X213946Y880957D01*
X214592Y880967D01*
X215216Y880957D01*
X215798Y880927D01*
X216339Y880876D01*
X216838Y880805D01*
X217295Y880713D01*
X217711Y880602D01*
X218085Y880470D01*
X218417Y880318D01*
X218709Y880144D01*
X218962Y879947D01*
X219176Y879726D01*
X219351Y879482D01*
X219488Y879215D01*
X219585Y878924D01*
X219643Y878611D01*
X219663Y878274D01*
X219644Y877934D01*
X219587Y877619D01*
X219491Y877327D01*
X219358Y877059D01*
X219187Y876815D01*
X218977Y876595D01*
X218729Y876398D01*
X218443Y876225D01*
X218116Y876074D01*
X217745Y875943D01*
X217330Y875832D01*
X216871Y875741D01*
X216367Y875671D01*
X215819Y875620D01*
X215228Y875590D01*
X214592Y875580D01*
X213938Y875590D01*
G37*
G36*
X209757Y845494D02*
X209757Y848819D01*
X209767Y849167D01*
X209795Y849493D01*
X209842Y849797D01*
X209907Y850078D01*
X209991Y850336D01*
X210094Y850572D01*
X210216Y850786D01*
X210356Y850977D01*
X210515Y851146D01*
X210693Y851292D01*
X210889Y851416D01*
X211105Y851517D01*
X211339Y851595D01*
X211591Y851652D01*
X211863Y851685D01*
X212153Y851697D01*
X212453Y851686D01*
X212735Y851653D01*
X212996Y851598D01*
X213239Y851521D01*
X213462Y851422D01*
X213666Y851302D01*
X213850Y851159D01*
X214015Y850995D01*
X214160Y850808D01*
X214286Y850600D01*
X214393Y850370D01*
X214480Y850117D01*
X214548Y849843D01*
X214597Y849547D01*
X214626Y849229D01*
X214636Y848889D01*
X214636Y845494D01*
X209757Y845494D01*
G37*
%LPD*%
G36*
X220777Y857647D02*
X208415Y857647D01*
X208415Y855971D01*
X220777Y855971D01*
X220777Y857647D01*
G37*
G36*
X230230Y685224D02*
X234075Y685224D01*
X237280Y680100D01*
X239207Y680100D01*
X237195Y683153D01*
X235704Y685416D01*
X236047Y685489D01*
X236371Y685582D01*
X236676Y685698D01*
X236962Y685835D01*
X237118Y685927D01*
X237229Y685993D01*
X237476Y686174D01*
X237705Y686375D01*
X237915Y686599D01*
X238103Y686840D01*
X238266Y687095D01*
X238404Y687363D01*
X238516Y687645D01*
X238604Y687941D01*
X238667Y688251D01*
X238704Y688574D01*
X238717Y688911D01*
X238699Y689316D01*
X238646Y689697D01*
X238557Y690056D01*
X238433Y690392D01*
X238274Y690706D01*
X238079Y690996D01*
X237848Y691263D01*
X237582Y691508D01*
X237284Y691727D01*
X236956Y691916D01*
X236598Y692076D01*
X236211Y692208D01*
X235793Y692310D01*
X235347Y692382D01*
X234870Y692426D01*
X234364Y692441D01*
X228557Y692441D01*
X228557Y680100D01*
X230230Y680100D01*
X230230Y685224D01*
G37*
G36*
X194355Y684908D02*
X197981Y684908D01*
X198458Y684925D01*
X198910Y684973D01*
X199337Y685054D01*
X199738Y685167D01*
X200113Y685312D01*
X200463Y685490D01*
X200787Y685700D01*
X201086Y685942D01*
X201353Y686212D01*
X201586Y686504D01*
X201782Y686818D01*
X201943Y687155D01*
X202068Y687514D01*
X202157Y687896D01*
X202211Y688300D01*
X202229Y688727D01*
X202211Y689157D01*
X202157Y689562D01*
X202068Y689942D01*
X201944Y690297D01*
X201784Y690627D01*
X201588Y690933D01*
X201357Y691213D01*
X201090Y691469D01*
X200791Y691696D01*
X200462Y691894D01*
X200104Y692061D01*
X199717Y692198D01*
X199301Y692304D01*
X198855Y692380D01*
X198380Y692426D01*
X197876Y692441D01*
X192682Y692441D01*
X192682Y680100D01*
X194355Y680100D01*
X194355Y684908D01*
G37*
G36*
X206323Y684908D02*
X209949Y684908D01*
X210427Y684925D01*
X210879Y684973D01*
X211306Y685054D01*
X211707Y685167D01*
X212082Y685312D01*
X212432Y685490D01*
X212756Y685700D01*
X213054Y685942D01*
X213322Y686212D01*
X213554Y686504D01*
X213751Y686818D01*
X213912Y687155D01*
X214037Y687514D01*
X214126Y687896D01*
X214179Y688300D01*
X214197Y688727D01*
X214179Y689157D01*
X214126Y689562D01*
X214037Y689942D01*
X213913Y690297D01*
X213753Y690627D01*
X213557Y690933D01*
X213326Y691213D01*
X213059Y691469D01*
X212759Y691696D01*
X212431Y691894D01*
X212073Y692061D01*
X211686Y692198D01*
X211269Y692304D01*
X210824Y692380D01*
X210349Y692426D01*
X209844Y692441D01*
X204650Y692441D01*
X204650Y680100D01*
X206323Y680100D01*
X206323Y684908D01*
G37*
G36*
X190435Y681466D02*
X182386Y681466D01*
X182386Y685767D01*
X189550Y685767D01*
X189550Y687116D01*
X182386Y687116D01*
X182386Y691074D01*
X190076Y691074D01*
X190076Y692441D01*
X180713Y692441D01*
X180713Y680100D01*
X190435Y680100D01*
X190435Y681466D01*
G37*
G36*
X226310Y681466D02*
X218261Y681466D01*
X218261Y685767D01*
X225425Y685767D01*
X225425Y687116D01*
X218261Y687116D01*
X218261Y691074D01*
X225951Y691074D01*
X225951Y692441D01*
X216588Y692441D01*
X216588Y680100D01*
X226310Y680100D01*
X226310Y681466D01*
G37*
G36*
X162968Y679940D02*
X163524Y679983D01*
X164045Y680057D01*
X164532Y680159D01*
X164985Y680291D01*
X165404Y680452D01*
X165790Y680642D01*
X166140Y680862D01*
X166454Y681108D01*
X166725Y681379D01*
X166954Y681673D01*
X167142Y681992D01*
X167288Y682335D01*
X167393Y682701D01*
X167455Y683092D01*
X167476Y683507D01*
X167464Y683833D01*
X167429Y684138D01*
X167370Y684420D01*
X167288Y684681D01*
X167185Y684922D01*
X167063Y685147D01*
X166924Y685356D01*
X166767Y685548D01*
X166593Y685725D01*
X166404Y685887D01*
X166201Y686036D01*
X165983Y686170D01*
X165515Y686407D01*
X165015Y686612D01*
X164486Y686787D01*
X163933Y686936D01*
X162799Y687203D01*
X162020Y687384D01*
X161382Y687550D01*
X160886Y687702D01*
X160531Y687838D01*
X160263Y687974D01*
X160028Y688125D01*
X159827Y688290D01*
X159659Y688469D01*
X159527Y688667D01*
X159433Y688890D01*
X159376Y689138D01*
X159357Y689410D01*
X159369Y689646D01*
X159406Y689866D01*
X159467Y690072D01*
X159552Y690262D01*
X159661Y690437D01*
X159795Y690598D01*
X159954Y690743D01*
X160136Y690873D01*
X160342Y690988D01*
X160570Y691088D01*
X160820Y691172D01*
X161091Y691241D01*
X161385Y691295D01*
X161700Y691333D01*
X162037Y691356D01*
X162396Y691363D01*
X162724Y691357D01*
X163034Y691336D01*
X163325Y691301D01*
X163598Y691253D01*
X163853Y691191D01*
X164089Y691115D01*
X164307Y691025D01*
X164507Y690921D01*
X164690Y690802D01*
X164857Y690666D01*
X165010Y690514D01*
X165146Y690344D01*
X165268Y690158D01*
X165374Y689955D01*
X165465Y689735D01*
X165541Y689498D01*
X167187Y689787D01*
X167065Y690160D01*
X166922Y690505D01*
X166758Y690822D01*
X166574Y691111D01*
X166369Y691371D01*
X166143Y691602D01*
X165896Y691806D01*
X165628Y691981D01*
X165335Y692132D01*
X165010Y692263D01*
X164655Y692373D01*
X164268Y692464D01*
X163851Y692534D01*
X163403Y692584D01*
X162924Y692615D01*
X162414Y692625D01*
X161865Y692611D01*
X161349Y692571D01*
X160866Y692504D01*
X160416Y692410D01*
X159998Y692289D01*
X159613Y692142D01*
X159261Y691968D01*
X158941Y691766D01*
X158657Y691540D01*
X158410Y691292D01*
X158202Y691020D01*
X158031Y690726D01*
X157898Y690409D01*
X157804Y690070D01*
X157747Y689708D01*
X157728Y689323D01*
X157742Y688987D01*
X157786Y688670D01*
X157858Y688374D01*
X157960Y688097D01*
X158089Y687838D01*
X158244Y687596D01*
X158424Y687372D01*
X158630Y687164D01*
X158869Y686969D01*
X159148Y686784D01*
X159467Y686608D01*
X159826Y686441D01*
X160248Y686279D01*
X160759Y686117D01*
X161359Y685955D01*
X162046Y685793D01*
X163579Y685434D01*
X163913Y685346D01*
X164222Y685248D01*
X164508Y685140D01*
X164770Y685022D01*
X165005Y684891D01*
X165213Y684744D01*
X165393Y684581D01*
X165545Y684400D01*
X165666Y684198D01*
X165752Y683967D01*
X165804Y683707D01*
X165821Y683419D01*
X165807Y683158D01*
X165766Y682913D01*
X165697Y682685D01*
X165601Y682472D01*
X165477Y682276D01*
X165326Y682097D01*
X165147Y681933D01*
X164941Y681786D01*
X164709Y681656D01*
X164454Y681543D01*
X164176Y681447D01*
X163875Y681369D01*
X163551Y681308D01*
X163204Y681265D01*
X162834Y681239D01*
X162440Y681230D01*
X162058Y681238D01*
X161697Y681262D01*
X161357Y681303D01*
X161036Y681360D01*
X160737Y681433D01*
X160458Y681523D01*
X160199Y681629D01*
X159961Y681751D01*
X159743Y681891D01*
X159545Y682049D01*
X159367Y682225D01*
X159208Y682420D01*
X159069Y682633D01*
X158950Y682865D01*
X158850Y683116D01*
X158770Y683384D01*
X157150Y683060D01*
X157254Y682681D01*
X157389Y682325D01*
X157552Y681995D01*
X157746Y681689D01*
X157969Y681407D01*
X158222Y681150D01*
X158504Y680917D01*
X158816Y680709D01*
X159158Y680525D01*
X159529Y680366D01*
X159930Y680231D01*
X160360Y680121D01*
X160821Y680035D01*
X161310Y679974D01*
X161830Y679937D01*
X162379Y679925D01*
X162968Y679940D01*
G37*
G36*
X174579Y691074D02*
X178818Y691074D01*
X178818Y692441D01*
X168676Y692441D01*
X168676Y691074D01*
X172915Y691074D01*
X172915Y680100D01*
X174579Y680100D01*
X174579Y691074D01*
G37*
%LPC*%
G36*
X230230Y686546D02*
X230230Y691101D01*
X234197Y691101D01*
X234531Y691092D01*
X234845Y691065D01*
X235138Y691021D01*
X235411Y690960D01*
X235665Y690880D01*
X235898Y690783D01*
X236111Y690668D01*
X236304Y690536D01*
X236475Y690387D01*
X236624Y690221D01*
X236749Y690040D01*
X236852Y689843D01*
X236932Y689630D01*
X236989Y689400D01*
X237024Y689155D01*
X237035Y688894D01*
X237024Y688623D01*
X236990Y688368D01*
X236933Y688129D01*
X236854Y687905D01*
X236753Y687696D01*
X236629Y687503D01*
X236482Y687326D01*
X236312Y687164D01*
X236122Y687019D01*
X235914Y686894D01*
X235686Y686787D01*
X235440Y686701D01*
X235175Y686633D01*
X234891Y686585D01*
X234589Y686556D01*
X234267Y686546D01*
X230230Y686546D01*
G37*
G36*
X194355Y686231D02*
X194355Y691101D01*
X197674Y691101D01*
X198022Y691091D01*
X198347Y691063D01*
X198650Y691017D01*
X198931Y690951D01*
X199189Y690867D01*
X199425Y690764D01*
X199638Y690643D01*
X199829Y690503D01*
X199997Y690344D01*
X200143Y690167D01*
X200266Y689971D01*
X200367Y689756D01*
X200446Y689522D01*
X200502Y689270D01*
X200536Y688999D01*
X200547Y688710D01*
X200536Y688409D01*
X200503Y688129D01*
X200448Y687867D01*
X200372Y687625D01*
X200273Y687403D01*
X200153Y687199D01*
X200010Y687015D01*
X199846Y686851D01*
X199660Y686705D01*
X199452Y686580D01*
X199222Y686473D01*
X198970Y686386D01*
X198697Y686318D01*
X198401Y686270D01*
X198084Y686241D01*
X197744Y686231D01*
X194355Y686231D01*
G37*
G36*
X206323Y686231D02*
X206323Y691101D01*
X209643Y691101D01*
X209991Y691091D01*
X210316Y691063D01*
X210619Y691017D01*
X210900Y690951D01*
X211158Y690867D01*
X211393Y690764D01*
X211607Y690643D01*
X211797Y690503D01*
X211966Y690344D01*
X212112Y690167D01*
X212235Y689971D01*
X212336Y689756D01*
X212415Y689522D01*
X212471Y689270D01*
X212504Y688999D01*
X212516Y688710D01*
X212505Y688409D01*
X212472Y688129D01*
X212417Y687867D01*
X212340Y687625D01*
X212242Y687403D01*
X212122Y687199D01*
X211979Y687015D01*
X211815Y686851D01*
X211629Y686705D01*
X211421Y686580D01*
X211191Y686473D01*
X210939Y686386D01*
X210665Y686318D01*
X210370Y686270D01*
X210052Y686241D01*
X209713Y686231D01*
X206323Y686231D01*
G37*
%LPD*%
G36*
X538936Y816172D02*
X549910Y816172D01*
X549910Y817836D01*
X538936Y817836D01*
X538936Y822075D01*
X537569Y822075D01*
X537569Y811933D01*
X538936Y811933D01*
X538936Y816172D01*
G37*
G36*
X549910Y831568D02*
X548570Y831568D01*
X548570Y828563D01*
X537569Y828563D01*
X537569Y827110D01*
X539575Y824193D01*
X541064Y824193D01*
X539076Y826978D01*
X548570Y826978D01*
X548570Y823834D01*
X549910Y823834D01*
X549910Y831568D01*
G37*
G36*
X588010Y952191D02*
X586670Y952191D01*
X586670Y945754D01*
X586360Y945906D01*
X586045Y946100D01*
X585723Y946335D01*
X585396Y946612D01*
X585055Y946936D01*
X584694Y947311D01*
X584313Y947737D01*
X583911Y948215D01*
X583215Y949056D01*
X582617Y949750D01*
X582116Y950296D01*
X581713Y950694D01*
X581358Y950998D01*
X581003Y951262D01*
X580648Y951486D01*
X580294Y951670D01*
X579938Y951814D01*
X579582Y951917D01*
X579225Y951978D01*
X578866Y951999D01*
X578473Y951983D01*
X578102Y951936D01*
X577755Y951858D01*
X577431Y951748D01*
X577130Y951607D01*
X576852Y951435D01*
X576597Y951231D01*
X576366Y950996D01*
X576159Y950732D01*
X575980Y950440D01*
X575829Y950122D01*
X575705Y949777D01*
X575609Y949405D01*
X575540Y949006D01*
X575499Y948580D01*
X575485Y948127D01*
X575499Y947712D01*
X575540Y947316D01*
X575608Y946940D01*
X575704Y946583D01*
X575827Y946245D01*
X575978Y945926D01*
X576156Y945627D01*
X576361Y945347D01*
X576590Y945090D01*
X576837Y944862D01*
X577103Y944663D01*
X577388Y944491D01*
X577692Y944349D01*
X578015Y944234D01*
X578357Y944148D01*
X578717Y944090D01*
X578866Y945701D01*
X578626Y945738D01*
X578399Y945792D01*
X578186Y945862D01*
X577987Y945950D01*
X577802Y946054D01*
X577630Y946175D01*
X577473Y946313D01*
X577329Y946468D01*
X577201Y946636D01*
X577089Y946816D01*
X576995Y947007D01*
X576918Y947209D01*
X576859Y947422D01*
X576816Y947646D01*
X576790Y947881D01*
X576782Y948127D01*
X576790Y948385D01*
X576817Y948628D01*
X576860Y948857D01*
X576922Y949071D01*
X577001Y949271D01*
X577097Y949456D01*
X577211Y949627D01*
X577342Y949783D01*
X577489Y949922D01*
X577651Y950043D01*
X577827Y950146D01*
X578017Y950229D01*
X578221Y950295D01*
X578439Y950341D01*
X578672Y950369D01*
X578919Y950378D01*
X579285Y950357D01*
X579632Y950292D01*
X579960Y950184D01*
X580267Y950032D01*
X580562Y949846D01*
X580850Y949633D01*
X581131Y949393D01*
X581406Y949126D01*
X581949Y948531D01*
X582492Y947869D01*
X583058Y947169D01*
X583670Y946463D01*
X583997Y946113D01*
X584342Y945770D01*
X584706Y945436D01*
X585089Y945110D01*
X585496Y944801D01*
X585933Y944516D01*
X586400Y944255D01*
X586898Y944020D01*
X588010Y944020D01*
X588010Y952191D01*
G37*
G36*
X577036Y936822D02*
X588010Y936822D01*
X588010Y938486D01*
X577036Y938486D01*
X577036Y942725D01*
X575669Y942725D01*
X575669Y932583D01*
X577036Y932583D01*
X577036Y936822D01*
G37*
G36*
X318190Y957834D02*
X318565Y957861D01*
X318926Y957906D01*
X319275Y957968D01*
X319611Y958049D01*
X319933Y958148D01*
X320243Y958264D01*
X320540Y958399D01*
X320821Y958550D01*
X321087Y958717D01*
X321336Y958901D01*
X321569Y959100D01*
X321785Y959316D01*
X321985Y959547D01*
X322168Y959795D01*
X322335Y960058D01*
X322484Y960336D01*
X322613Y960627D01*
X322722Y960931D01*
X322811Y961247D01*
X322881Y961577D01*
X322930Y961919D01*
X322960Y962274D01*
X322970Y962642D01*
X322970Y970341D01*
X321306Y970341D01*
X321306Y962738D01*
X321291Y962316D01*
X321248Y961919D01*
X321176Y961549D01*
X321075Y961205D01*
X320945Y960886D01*
X320786Y960594D01*
X320598Y960329D01*
X320382Y960089D01*
X320139Y959876D01*
X319874Y959692D01*
X319585Y959537D01*
X319273Y959409D01*
X318938Y959310D01*
X318580Y959239D01*
X318198Y959197D01*
X317794Y959182D01*
X317401Y959196D01*
X317031Y959237D01*
X316686Y959306D01*
X316364Y959401D01*
X316066Y959525D01*
X315792Y959675D01*
X315542Y959853D01*
X315315Y960058D01*
X315114Y960290D01*
X314940Y960547D01*
X314792Y960830D01*
X314671Y961138D01*
X314577Y961471D01*
X314510Y961830D01*
X314470Y962215D01*
X314457Y962625D01*
X314457Y970341D01*
X312784Y970341D01*
X312784Y962484D01*
X312794Y962127D01*
X312823Y961783D01*
X312871Y961451D01*
X312939Y961131D01*
X313027Y960824D01*
X313134Y960530D01*
X313260Y960248D01*
X313406Y959979D01*
X313569Y959724D01*
X313748Y959485D01*
X313944Y959261D01*
X314155Y959053D01*
X314381Y958861D01*
X314624Y958684D01*
X314883Y958522D01*
X315157Y958377D01*
X315446Y958247D01*
X315746Y958135D01*
X316059Y958040D01*
X316384Y957963D01*
X316720Y957902D01*
X317069Y957859D01*
X317430Y957833D01*
X317802Y957825D01*
X318190Y957834D01*
G37*
G36*
X333438Y959340D02*
X330433Y959340D01*
X330433Y970341D01*
X328980Y970341D01*
X326063Y968335D01*
X326063Y966846D01*
X328848Y968834D01*
X328848Y959340D01*
X325704Y959340D01*
X325704Y958000D01*
X333438Y958000D01*
X333438Y959340D01*
G37*
G36*
X24751Y784144D02*
X25126Y784171D01*
X25487Y784216D01*
X25836Y784278D01*
X26171Y784359D01*
X26494Y784458D01*
X26804Y784574D01*
X27100Y784709D01*
X27382Y784860D01*
X27648Y785027D01*
X27897Y785211D01*
X28129Y785410D01*
X28346Y785626D01*
X28546Y785857D01*
X28729Y786105D01*
X28896Y786368D01*
X29045Y786646D01*
X29174Y786937D01*
X29283Y787241D01*
X29372Y787557D01*
X29442Y787887D01*
X29491Y788229D01*
X29521Y788584D01*
X29531Y788952D01*
X29531Y796651D01*
X27867Y796651D01*
X27867Y789048D01*
X27852Y788626D01*
X27809Y788229D01*
X27737Y787859D01*
X27636Y787515D01*
X27506Y787196D01*
X27347Y786904D01*
X27159Y786639D01*
X26943Y786399D01*
X26700Y786186D01*
X26434Y786002D01*
X26146Y785847D01*
X25834Y785719D01*
X25499Y785620D01*
X25140Y785549D01*
X24759Y785507D01*
X24355Y785492D01*
X23961Y785506D01*
X23592Y785547D01*
X23246Y785616D01*
X22925Y785711D01*
X22627Y785835D01*
X22353Y785985D01*
X22102Y786163D01*
X21876Y786368D01*
X21675Y786600D01*
X21500Y786857D01*
X21353Y787140D01*
X21232Y787448D01*
X21138Y787781D01*
X21071Y788140D01*
X21031Y788525D01*
X21018Y788935D01*
X21018Y796651D01*
X19345Y796651D01*
X19345Y788794D01*
X19354Y788437D01*
X19384Y788093D01*
X19432Y787761D01*
X19500Y787441D01*
X19588Y787134D01*
X19694Y786840D01*
X19821Y786558D01*
X19967Y786289D01*
X20130Y786034D01*
X20309Y785795D01*
X20504Y785571D01*
X20715Y785363D01*
X20942Y785171D01*
X21185Y784994D01*
X21444Y784832D01*
X21718Y784687D01*
X22007Y784557D01*
X22307Y784445D01*
X22620Y784350D01*
X22944Y784273D01*
X23281Y784212D01*
X23630Y784169D01*
X23991Y784143D01*
X24363Y784135D01*
X24751Y784144D01*
G37*
G36*
X39972Y785650D02*
X33535Y785650D01*
X33687Y785960D01*
X33881Y786275D01*
X34116Y786597D01*
X34393Y786924D01*
X34716Y787265D01*
X35091Y787626D01*
X35518Y788007D01*
X35996Y788409D01*
X36837Y789105D01*
X37531Y789703D01*
X38076Y790204D01*
X38474Y790607D01*
X38779Y790962D01*
X39043Y791317D01*
X39267Y791672D01*
X39451Y792026D01*
X39595Y792382D01*
X39697Y792738D01*
X39759Y793095D01*
X39779Y793454D01*
X39764Y793847D01*
X39717Y794218D01*
X39638Y794565D01*
X39529Y794889D01*
X39388Y795190D01*
X39215Y795468D01*
X39012Y795723D01*
X38777Y795954D01*
X38512Y796161D01*
X38221Y796340D01*
X37903Y796491D01*
X37558Y796615D01*
X37186Y796711D01*
X36787Y796780D01*
X36361Y796821D01*
X35908Y796835D01*
X35493Y796821D01*
X35097Y796780D01*
X34721Y796712D01*
X34363Y796616D01*
X34025Y796493D01*
X33707Y796342D01*
X33407Y796164D01*
X33127Y795959D01*
X32871Y795730D01*
X32643Y795483D01*
X32444Y795217D01*
X32272Y794932D01*
X32129Y794628D01*
X32015Y794305D01*
X31928Y793963D01*
X31871Y793603D01*
X33482Y793454D01*
X33519Y793694D01*
X33573Y793921D01*
X33643Y794134D01*
X33731Y794333D01*
X33835Y794518D01*
X33956Y794690D01*
X34094Y794847D01*
X34248Y794991D01*
X34417Y795119D01*
X34597Y795231D01*
X34788Y795325D01*
X34990Y795402D01*
X35203Y795461D01*
X35427Y795504D01*
X35662Y795530D01*
X35908Y795538D01*
X36166Y795530D01*
X36409Y795503D01*
X36638Y795460D01*
X36852Y795398D01*
X37052Y795319D01*
X37237Y795223D01*
X37407Y795109D01*
X37564Y794978D01*
X37703Y794831D01*
X37824Y794669D01*
X37926Y794493D01*
X38010Y794303D01*
X38075Y794099D01*
X38122Y793881D01*
X38150Y793648D01*
X38159Y793401D01*
X38138Y793035D01*
X38073Y792688D01*
X37965Y792360D01*
X37813Y792053D01*
X37627Y791758D01*
X37414Y791470D01*
X37174Y791189D01*
X36907Y790914D01*
X36312Y790371D01*
X35650Y789828D01*
X34950Y789262D01*
X34244Y788650D01*
X33893Y788323D01*
X33551Y787978D01*
X33217Y787614D01*
X32891Y787231D01*
X32581Y786824D01*
X32296Y786387D01*
X32036Y785920D01*
X31800Y785422D01*
X31800Y784310D01*
X39972Y784310D01*
X39972Y785650D01*
G37*
G36*
X194894Y722383D02*
X195195Y722404D01*
X195485Y722440D01*
X195765Y722491D01*
X196035Y722555D01*
X196294Y722635D01*
X196543Y722728D01*
X196781Y722836D01*
X197007Y722958D01*
X197221Y723092D01*
X197421Y723240D01*
X197608Y723400D01*
X197781Y723573D01*
X197942Y723759D01*
X198089Y723958D01*
X198223Y724169D01*
X198343Y724392D01*
X198446Y724626D01*
X198534Y724870D01*
X198606Y725124D01*
X198661Y725389D01*
X198701Y725664D01*
X198725Y725949D01*
X198733Y726244D01*
X198733Y732428D01*
X197396Y732428D01*
X197396Y726322D01*
X197385Y725982D01*
X197350Y725664D01*
X197292Y725366D01*
X197211Y725090D01*
X197107Y724834D01*
X196979Y724600D01*
X196828Y724386D01*
X196654Y724194D01*
X196460Y724023D01*
X196246Y723875D01*
X196014Y723750D01*
X195764Y723648D01*
X195495Y723568D01*
X195207Y723511D01*
X194901Y723477D01*
X194576Y723466D01*
X194260Y723477D01*
X193963Y723510D01*
X193686Y723565D01*
X193427Y723642D01*
X193188Y723741D01*
X192968Y723861D01*
X192767Y724004D01*
X192585Y724169D01*
X192423Y724355D01*
X192283Y724562D01*
X192165Y724789D01*
X192068Y725036D01*
X191993Y725304D01*
X191939Y725592D01*
X191906Y725901D01*
X191896Y726230D01*
X191896Y732428D01*
X190552Y732428D01*
X190552Y726118D01*
X190560Y725831D01*
X190583Y725554D01*
X190622Y725287D01*
X190677Y725031D01*
X190747Y724785D01*
X190833Y724548D01*
X190934Y724322D01*
X191052Y724106D01*
X191183Y723901D01*
X191327Y723709D01*
X191483Y723529D01*
X191653Y723362D01*
X191835Y723207D01*
X192030Y723065D01*
X192238Y722936D01*
X192458Y722819D01*
X192690Y722715D01*
X192931Y722625D01*
X193182Y722549D01*
X193443Y722486D01*
X193714Y722438D01*
X193994Y722403D01*
X194283Y722382D01*
X194583Y722376D01*
X194894Y722383D01*
G37*
G36*
X204225Y722387D02*
X204595Y722423D01*
X204941Y722481D01*
X205264Y722564D01*
X205563Y722670D01*
X205840Y722799D01*
X206093Y722952D01*
X206322Y723128D01*
X206527Y723326D01*
X206704Y723543D01*
X206854Y723780D01*
X206977Y724036D01*
X207072Y724311D01*
X207140Y724605D01*
X207181Y724919D01*
X207195Y725253D01*
X207185Y725485D01*
X207156Y725707D01*
X207108Y725919D01*
X207040Y726121D01*
X206953Y726313D01*
X206846Y726495D01*
X206721Y726667D01*
X206576Y726828D01*
X206413Y726977D01*
X206235Y727110D01*
X206042Y727227D01*
X205834Y727328D01*
X205610Y727413D01*
X205370Y727482D01*
X205115Y727536D01*
X204845Y727574D01*
X204845Y727602D01*
X205091Y727661D01*
X205322Y727731D01*
X205537Y727814D01*
X205738Y727909D01*
X205923Y728016D01*
X206094Y728134D01*
X206249Y728265D01*
X206389Y728407D01*
X206514Y728562D01*
X206622Y728727D01*
X206713Y728903D01*
X206788Y729091D01*
X206846Y729289D01*
X206887Y729499D01*
X206912Y729720D01*
X206920Y729951D01*
X206907Y730252D01*
X206869Y730536D01*
X206804Y730803D01*
X206714Y731053D01*
X206597Y731286D01*
X206455Y731502D01*
X206288Y731701D01*
X206094Y731882D01*
X205877Y732045D01*
X205639Y732185D01*
X205380Y732305D01*
X205101Y732402D01*
X204801Y732478D01*
X204480Y732532D01*
X204138Y732564D01*
X203776Y732575D01*
X203443Y732565D01*
X203125Y732533D01*
X202822Y732479D01*
X202535Y732405D01*
X202264Y732309D01*
X202008Y732191D01*
X201768Y732053D01*
X201543Y731893D01*
X201337Y731714D01*
X201154Y731518D01*
X200993Y731306D01*
X200856Y731077D01*
X200741Y730831D01*
X200649Y730569D01*
X200580Y730290D01*
X200533Y729994D01*
X201806Y729895D01*
X201834Y730085D01*
X201876Y730264D01*
X201931Y730431D01*
X201999Y730588D01*
X202081Y730734D01*
X202176Y730869D01*
X202285Y730992D01*
X202408Y731105D01*
X202542Y731206D01*
X202686Y731293D01*
X202841Y731367D01*
X203005Y731427D01*
X203179Y731474D01*
X203363Y731507D01*
X203558Y731527D01*
X203762Y731534D01*
X203985Y731527D01*
X204194Y731505D01*
X204389Y731469D01*
X204570Y731419D01*
X204737Y731354D01*
X204889Y731275D01*
X205027Y731181D01*
X205151Y731073D01*
X205261Y730953D01*
X205356Y730822D01*
X205436Y730681D01*
X205502Y730529D01*
X205553Y730367D01*
X205590Y730194D01*
X205612Y730011D01*
X205619Y729818D01*
X205610Y729623D01*
X205583Y729439D01*
X205538Y729265D01*
X205476Y729103D01*
X205395Y728951D01*
X205297Y728811D01*
X205180Y728681D01*
X205046Y728562D01*
X204895Y728456D01*
X204730Y728364D01*
X204550Y728286D01*
X204355Y728222D01*
X204146Y728172D01*
X203923Y728137D01*
X203684Y728116D01*
X203431Y728108D01*
X202742Y728108D01*
X202742Y727011D01*
X203459Y727011D01*
X203745Y727004D01*
X204012Y726983D01*
X204263Y726947D01*
X204496Y726898D01*
X204712Y726834D01*
X204911Y726756D01*
X205092Y726664D01*
X205257Y726557D01*
X205403Y726438D01*
X205529Y726308D01*
X205636Y726167D01*
X205724Y726015D01*
X205792Y725851D01*
X205840Y725677D01*
X205870Y725491D01*
X205879Y725295D01*
X205871Y725070D01*
X205845Y724859D01*
X205803Y724663D01*
X205743Y724481D01*
X205666Y724313D01*
X205573Y724159D01*
X205462Y724020D01*
X205334Y723895D01*
X205191Y723784D01*
X205036Y723689D01*
X204867Y723608D01*
X204686Y723541D01*
X204492Y723490D01*
X204285Y723453D01*
X204065Y723431D01*
X203832Y723424D01*
X203600Y723430D01*
X203382Y723451D01*
X203176Y723485D01*
X202982Y723534D01*
X202802Y723595D01*
X202635Y723671D01*
X202481Y723760D01*
X202339Y723863D01*
X202211Y723980D01*
X202095Y724111D01*
X201992Y724255D01*
X201903Y724413D01*
X201826Y724585D01*
X201762Y724770D01*
X201711Y724969D01*
X201673Y725182D01*
X200364Y725063D01*
X200418Y724740D01*
X200494Y724439D01*
X200593Y724157D01*
X200715Y723896D01*
X200860Y723655D01*
X201027Y723434D01*
X201217Y723234D01*
X201430Y723054D01*
X201664Y722895D01*
X201917Y722757D01*
X202188Y722641D01*
X202479Y722545D01*
X202789Y722471D01*
X203118Y722418D01*
X203465Y722386D01*
X203832Y722376D01*
X204225Y722387D01*
G37*
G36*
X238625Y901894D02*
X240359Y901894D01*
X240359Y903138D01*
X238625Y903138D01*
X238625Y911441D01*
X236969Y911441D01*
X231320Y903120D01*
X231320Y901894D01*
X237136Y901894D01*
X237136Y899100D01*
X238625Y899100D01*
X238625Y901894D01*
G37*
G36*
X224761Y898934D02*
X225136Y898961D01*
X225497Y899006D01*
X225846Y899068D01*
X226181Y899149D01*
X226504Y899248D01*
X226814Y899364D01*
X227110Y899499D01*
X227392Y899650D01*
X227658Y899817D01*
X227907Y900001D01*
X228139Y900200D01*
X228356Y900416D01*
X228556Y900647D01*
X228739Y900895D01*
X228906Y901158D01*
X229055Y901436D01*
X229184Y901727D01*
X229293Y902031D01*
X229382Y902347D01*
X229452Y902677D01*
X229501Y903019D01*
X229531Y903374D01*
X229541Y903742D01*
X229541Y911441D01*
X227877Y911441D01*
X227877Y903838D01*
X227862Y903416D01*
X227819Y903019D01*
X227747Y902649D01*
X227646Y902305D01*
X227516Y901986D01*
X227357Y901694D01*
X227169Y901429D01*
X226953Y901189D01*
X226710Y900976D01*
X226444Y900792D01*
X226156Y900637D01*
X225844Y900509D01*
X225509Y900410D01*
X225150Y900339D01*
X224769Y900297D01*
X224365Y900282D01*
X223971Y900296D01*
X223602Y900337D01*
X223256Y900406D01*
X222935Y900501D01*
X222637Y900625D01*
X222363Y900775D01*
X222112Y900953D01*
X221886Y901158D01*
X221685Y901390D01*
X221510Y901647D01*
X221363Y901930D01*
X221242Y902238D01*
X221148Y902571D01*
X221081Y902930D01*
X221041Y903315D01*
X221028Y903725D01*
X221028Y911441D01*
X219355Y911441D01*
X219355Y903584D01*
X219364Y903227D01*
X219394Y902883D01*
X219442Y902551D01*
X219510Y902231D01*
X219598Y901924D01*
X219704Y901630D01*
X219831Y901348D01*
X219977Y901079D01*
X220140Y900824D01*
X220319Y900585D01*
X220514Y900361D01*
X220725Y900153D01*
X220952Y899961D01*
X221195Y899784D01*
X221454Y899622D01*
X221728Y899477D01*
X222017Y899347D01*
X222317Y899235D01*
X222630Y899140D01*
X222954Y899063D01*
X223291Y899002D01*
X223640Y898959D01*
X224001Y898933D01*
X224373Y898925D01*
X224761Y898934D01*
G37*
%LPC*%
G36*
X232774Y903138D02*
X232914Y903313D01*
X233387Y903961D01*
X236549Y908621D01*
X236890Y909199D01*
X237136Y909663D01*
X237136Y903138D01*
X232774Y903138D01*
G37*
%LPD*%
D10*
X23650Y671300D02*
X116850Y671300D01*
X116850Y549300D01*
X23650Y549300D01*
X23650Y671300D01*
D11*
X108200Y584300D02*
X108202Y584363D01*
X108208Y584425D01*
X108218Y584487D01*
X108231Y584549D01*
X108249Y584609D01*
X108270Y584668D01*
X108295Y584726D01*
X108324Y584782D01*
X108356Y584836D01*
X108391Y584888D01*
X108429Y584937D01*
X108471Y584985D01*
X108515Y585029D01*
X108563Y585071D01*
X108612Y585109D01*
X108664Y585144D01*
X108718Y585176D01*
X108774Y585205D01*
X108832Y585230D01*
X108891Y585251D01*
X108951Y585269D01*
X109013Y585282D01*
X109075Y585292D01*
X109137Y585298D01*
X109200Y585300D01*
X109263Y585298D01*
X109325Y585292D01*
X109387Y585282D01*
X109449Y585269D01*
X109509Y585251D01*
X109568Y585230D01*
X109626Y585205D01*
X109682Y585176D01*
X109736Y585144D01*
X109788Y585109D01*
X109837Y585071D01*
X109885Y585029D01*
X109929Y584985D01*
X109971Y584937D01*
X110009Y584888D01*
X110044Y584836D01*
X110076Y584782D01*
X110105Y584726D01*
X110130Y584668D01*
X110151Y584609D01*
X110169Y584549D01*
X110182Y584487D01*
X110192Y584425D01*
X110198Y584363D01*
X110200Y584300D01*
X110198Y584237D01*
X110192Y584175D01*
X110182Y584113D01*
X110169Y584051D01*
X110151Y583991D01*
X110130Y583932D01*
X110105Y583874D01*
X110076Y583818D01*
X110044Y583764D01*
X110009Y583712D01*
X109971Y583663D01*
X109929Y583615D01*
X109885Y583571D01*
X109837Y583529D01*
X109788Y583491D01*
X109736Y583456D01*
X109682Y583424D01*
X109626Y583395D01*
X109568Y583370D01*
X109509Y583349D01*
X109449Y583331D01*
X109387Y583318D01*
X109325Y583308D01*
X109263Y583302D01*
X109200Y583300D01*
X109137Y583302D01*
X109075Y583308D01*
X109013Y583318D01*
X108951Y583331D01*
X108891Y583349D01*
X108832Y583370D01*
X108774Y583395D01*
X108718Y583424D01*
X108664Y583456D01*
X108612Y583491D01*
X108563Y583529D01*
X108515Y583571D01*
X108471Y583615D01*
X108429Y583663D01*
X108391Y583712D01*
X108356Y583764D01*
X108324Y583818D01*
X108295Y583874D01*
X108270Y583932D01*
X108249Y583991D01*
X108231Y584051D01*
X108218Y584113D01*
X108208Y584175D01*
X108202Y584237D01*
X108200Y584300D01*
D12*
X29500Y853000D02*
X29500Y977000D01*
X29500Y853000D02*
X87000Y853000D01*
X87000Y977000D01*
X29500Y977000D01*
D10*
X62500Y983100D02*
X62502Y983163D01*
X62508Y983225D01*
X62518Y983287D01*
X62531Y983349D01*
X62549Y983409D01*
X62570Y983468D01*
X62595Y983526D01*
X62624Y983582D01*
X62656Y983636D01*
X62691Y983688D01*
X62729Y983737D01*
X62771Y983785D01*
X62815Y983829D01*
X62863Y983871D01*
X62912Y983909D01*
X62964Y983944D01*
X63018Y983976D01*
X63074Y984005D01*
X63132Y984030D01*
X63191Y984051D01*
X63251Y984069D01*
X63313Y984082D01*
X63375Y984092D01*
X63437Y984098D01*
X63500Y984100D01*
X63563Y984098D01*
X63625Y984092D01*
X63687Y984082D01*
X63749Y984069D01*
X63809Y984051D01*
X63868Y984030D01*
X63926Y984005D01*
X63982Y983976D01*
X64036Y983944D01*
X64088Y983909D01*
X64137Y983871D01*
X64185Y983829D01*
X64229Y983785D01*
X64271Y983737D01*
X64309Y983688D01*
X64344Y983636D01*
X64376Y983582D01*
X64405Y983526D01*
X64430Y983468D01*
X64451Y983409D01*
X64469Y983349D01*
X64482Y983287D01*
X64492Y983225D01*
X64498Y983163D01*
X64500Y983100D01*
X64498Y983037D01*
X64492Y982975D01*
X64482Y982913D01*
X64469Y982851D01*
X64451Y982791D01*
X64430Y982732D01*
X64405Y982674D01*
X64376Y982618D01*
X64344Y982564D01*
X64309Y982512D01*
X64271Y982463D01*
X64229Y982415D01*
X64185Y982371D01*
X64137Y982329D01*
X64088Y982291D01*
X64036Y982256D01*
X63982Y982224D01*
X63926Y982195D01*
X63868Y982170D01*
X63809Y982149D01*
X63749Y982131D01*
X63687Y982118D01*
X63625Y982108D01*
X63563Y982102D01*
X63500Y982100D01*
X63437Y982102D01*
X63375Y982108D01*
X63313Y982118D01*
X63251Y982131D01*
X63191Y982149D01*
X63132Y982170D01*
X63074Y982195D01*
X63018Y982224D01*
X62964Y982256D01*
X62912Y982291D01*
X62863Y982329D01*
X62815Y982371D01*
X62771Y982415D01*
X62729Y982463D01*
X62691Y982512D01*
X62656Y982564D01*
X62624Y982618D01*
X62595Y982674D01*
X62570Y982732D01*
X62549Y982791D01*
X62531Y982851D01*
X62518Y982913D01*
X62508Y982975D01*
X62502Y983037D01*
X62500Y983100D01*
D12*
X119380Y792480D02*
X119380Y756920D01*
X119380Y792480D02*
X134620Y792480D01*
X134620Y756920D01*
X119380Y756920D01*
D13*
X656938Y795876D02*
X656938Y619346D01*
X656938Y795876D02*
X596994Y795876D01*
X596994Y619346D01*
X656938Y619346D01*
D14*
X632300Y605376D02*
X632422Y605374D01*
X632544Y605368D01*
X632666Y605358D01*
X632787Y605345D01*
X632908Y605327D01*
X633028Y605306D01*
X633148Y605280D01*
X633266Y605251D01*
X633384Y605219D01*
X633501Y605182D01*
X633616Y605142D01*
X633730Y605098D01*
X633842Y605050D01*
X633953Y604999D01*
X634062Y604944D01*
X634170Y604886D01*
X634275Y604824D01*
X634378Y604759D01*
X634480Y604691D01*
X634579Y604619D01*
X634675Y604545D01*
X634770Y604467D01*
X634861Y604386D01*
X634951Y604303D01*
X635037Y604217D01*
X635120Y604127D01*
X635201Y604036D01*
X635279Y603941D01*
X635353Y603845D01*
X635425Y603746D01*
X635493Y603644D01*
X635558Y603541D01*
X635620Y603436D01*
X635678Y603328D01*
X635733Y603219D01*
X635784Y603108D01*
X635832Y602996D01*
X635876Y602882D01*
X635916Y602767D01*
X635953Y602650D01*
X635985Y602532D01*
X636014Y602414D01*
X636040Y602294D01*
X636061Y602174D01*
X636079Y602053D01*
X636092Y601932D01*
X636102Y601810D01*
X636108Y601688D01*
X636110Y601566D01*
X636108Y601444D01*
X636102Y601322D01*
X636092Y601200D01*
X636079Y601079D01*
X636061Y600958D01*
X636040Y600838D01*
X636014Y600718D01*
X635985Y600600D01*
X635953Y600482D01*
X635916Y600365D01*
X635876Y600250D01*
X635832Y600136D01*
X635784Y600024D01*
X635733Y599913D01*
X635678Y599804D01*
X635620Y599696D01*
X635558Y599591D01*
X635493Y599488D01*
X635425Y599386D01*
X635353Y599287D01*
X635279Y599191D01*
X635201Y599096D01*
X635120Y599005D01*
X635037Y598915D01*
X634951Y598829D01*
X634861Y598746D01*
X634770Y598665D01*
X634675Y598587D01*
X634579Y598513D01*
X634480Y598441D01*
X634378Y598373D01*
X634275Y598308D01*
X634170Y598246D01*
X634062Y598188D01*
X633953Y598133D01*
X633842Y598082D01*
X633730Y598034D01*
X633616Y597990D01*
X633501Y597950D01*
X633384Y597913D01*
X633266Y597881D01*
X633148Y597852D01*
X633028Y597826D01*
X632908Y597805D01*
X632787Y597787D01*
X632666Y597774D01*
X632544Y597764D01*
X632422Y597758D01*
X632300Y597756D01*
X632178Y597758D01*
X632056Y597764D01*
X631934Y597774D01*
X631813Y597787D01*
X631692Y597805D01*
X631572Y597826D01*
X631452Y597852D01*
X631334Y597881D01*
X631216Y597913D01*
X631099Y597950D01*
X630984Y597990D01*
X630870Y598034D01*
X630758Y598082D01*
X630647Y598133D01*
X630538Y598188D01*
X630430Y598246D01*
X630325Y598308D01*
X630222Y598373D01*
X630120Y598441D01*
X630021Y598513D01*
X629925Y598587D01*
X629830Y598665D01*
X629739Y598746D01*
X629649Y598829D01*
X629563Y598915D01*
X629480Y599005D01*
X629399Y599096D01*
X629321Y599191D01*
X629247Y599287D01*
X629175Y599386D01*
X629107Y599488D01*
X629042Y599591D01*
X628980Y599696D01*
X628922Y599804D01*
X628867Y599913D01*
X628816Y600024D01*
X628768Y600136D01*
X628724Y600250D01*
X628684Y600365D01*
X628647Y600482D01*
X628615Y600600D01*
X628586Y600718D01*
X628560Y600838D01*
X628539Y600958D01*
X628521Y601079D01*
X628508Y601200D01*
X628498Y601322D01*
X628492Y601444D01*
X628490Y601566D01*
X628492Y601688D01*
X628498Y601810D01*
X628508Y601932D01*
X628521Y602053D01*
X628539Y602174D01*
X628560Y602294D01*
X628586Y602414D01*
X628615Y602532D01*
X628647Y602650D01*
X628684Y602767D01*
X628724Y602882D01*
X628768Y602996D01*
X628816Y603108D01*
X628867Y603219D01*
X628922Y603328D01*
X628980Y603436D01*
X629042Y603541D01*
X629107Y603644D01*
X629175Y603746D01*
X629247Y603845D01*
X629321Y603941D01*
X629399Y604036D01*
X629480Y604127D01*
X629563Y604217D01*
X629649Y604303D01*
X629739Y604386D01*
X629830Y604467D01*
X629925Y604545D01*
X630021Y604619D01*
X630120Y604691D01*
X630222Y604759D01*
X630325Y604824D01*
X630430Y604886D01*
X630538Y604944D01*
X630647Y604999D01*
X630758Y605050D01*
X630870Y605098D01*
X630984Y605142D01*
X631099Y605182D01*
X631216Y605219D01*
X631334Y605251D01*
X631452Y605280D01*
X631572Y605306D01*
X631692Y605327D01*
X631813Y605345D01*
X631934Y605358D01*
X632056Y605368D01*
X632178Y605374D01*
X632300Y605376D01*
D15*
X628650Y952500D02*
X622300Y958850D01*
X622300Y971550D01*
X628650Y977900D01*
X641350Y977900D02*
X647700Y971550D01*
X647700Y958850D01*
X641350Y952500D01*
X622300Y920750D02*
X622300Y908050D01*
X622300Y920750D02*
X628650Y927100D01*
X641350Y927100D02*
X647700Y920750D01*
X628650Y927100D02*
X622300Y933450D01*
X622300Y946150D01*
X628650Y952500D01*
X641350Y952500D02*
X647700Y946150D01*
X647700Y933450D01*
X641350Y927100D01*
X622300Y882650D02*
X628650Y876300D01*
X622300Y882650D02*
X622300Y895350D01*
X628650Y901700D01*
X641350Y901700D02*
X647700Y895350D01*
X647700Y882650D01*
X641350Y876300D01*
X628650Y901700D02*
X622300Y908050D01*
X641350Y901700D02*
X647700Y908050D01*
X647700Y920750D01*
X622300Y844550D02*
X622300Y831850D01*
X622300Y844550D02*
X628650Y850900D01*
X641350Y850900D02*
X647700Y844550D01*
X628650Y850900D02*
X622300Y857250D01*
X622300Y869950D01*
X628650Y876300D01*
X641350Y876300D02*
X647700Y869950D01*
X647700Y857250D01*
X641350Y850900D01*
X641350Y825500D02*
X628650Y825500D01*
X622300Y831850D01*
X641350Y825500D02*
X647700Y831850D01*
X647700Y844550D01*
X641350Y977900D02*
X628650Y977900D01*
D12*
X616783Y886164D02*
X613029Y886164D01*
X616783Y886163D02*
X616848Y886161D01*
X616912Y886155D01*
X616976Y886145D01*
X617040Y886132D01*
X617102Y886114D01*
X617163Y886093D01*
X617223Y886069D01*
X617281Y886040D01*
X617338Y886008D01*
X617392Y885973D01*
X617444Y885935D01*
X617494Y885893D01*
X617541Y885849D01*
X617585Y885802D01*
X617627Y885752D01*
X617665Y885700D01*
X617700Y885646D01*
X617732Y885589D01*
X617761Y885531D01*
X617785Y885471D01*
X617806Y885410D01*
X617824Y885348D01*
X617837Y885284D01*
X617847Y885220D01*
X617853Y885156D01*
X617855Y885091D01*
X617855Y884555D01*
X614101Y889112D02*
X613029Y890452D01*
X617855Y890452D01*
X617855Y889112D02*
X617855Y891793D01*
D13*
X585270Y575310D02*
X572570Y575310D01*
X585270Y575310D02*
X591620Y568960D01*
X591620Y556260D01*
X585270Y549910D01*
X591620Y568960D02*
X597970Y575310D01*
X610670Y575310D01*
X617020Y568960D01*
X617020Y556260D01*
X610670Y549910D01*
X597970Y549910D01*
X591620Y556260D01*
X547170Y575310D02*
X540820Y568960D01*
X547170Y575310D02*
X559870Y575310D01*
X566220Y568960D01*
X566220Y556260D01*
X559870Y549910D01*
X547170Y549910D01*
X540820Y556260D01*
X566220Y568960D02*
X572570Y575310D01*
X566220Y556260D02*
X572570Y549910D01*
X585270Y549910D01*
X509070Y575310D02*
X496370Y575310D01*
X509070Y575310D02*
X515420Y568960D01*
X515420Y556260D01*
X509070Y549910D01*
X515420Y568960D02*
X521770Y575310D01*
X534470Y575310D01*
X540820Y568960D01*
X540820Y556260D01*
X534470Y549910D01*
X521770Y549910D01*
X515420Y556260D01*
X470970Y575310D02*
X464620Y568960D01*
X470970Y575310D02*
X483670Y575310D01*
X490020Y568960D01*
X490020Y556260D01*
X483670Y549910D01*
X470970Y549910D01*
X464620Y556260D01*
X490020Y568960D02*
X496370Y575310D01*
X490020Y556260D02*
X496370Y549910D01*
X509070Y549910D01*
X432870Y575310D02*
X420170Y575310D01*
X432870Y575310D02*
X439220Y568960D01*
X439220Y556260D01*
X432870Y549910D01*
X439220Y568960D02*
X445570Y575310D01*
X458270Y575310D01*
X464620Y568960D01*
X464620Y556260D01*
X458270Y549910D01*
X445570Y549910D01*
X439220Y556260D01*
X394770Y575310D02*
X388420Y568960D01*
X394770Y575310D02*
X407470Y575310D01*
X413820Y568960D01*
X413820Y556260D01*
X407470Y549910D01*
X394770Y549910D01*
X388420Y556260D01*
X413820Y568960D02*
X420170Y575310D01*
X413820Y556260D02*
X420170Y549910D01*
X432870Y549910D01*
X356670Y575310D02*
X343970Y575310D01*
X356670Y575310D02*
X363020Y568960D01*
X363020Y556260D01*
X356670Y549910D01*
X363020Y568960D02*
X369370Y575310D01*
X382070Y575310D01*
X388420Y568960D01*
X388420Y556260D01*
X382070Y549910D01*
X369370Y549910D01*
X363020Y556260D01*
X318570Y575310D02*
X312220Y568960D01*
X318570Y575310D02*
X331270Y575310D01*
X337620Y568960D01*
X337620Y556260D01*
X331270Y549910D01*
X318570Y549910D01*
X312220Y556260D01*
X337620Y568960D02*
X343970Y575310D01*
X337620Y556260D02*
X343970Y549910D01*
X356670Y549910D01*
X280470Y575310D02*
X267770Y575310D01*
X280470Y575310D02*
X286820Y568960D01*
X286820Y556260D01*
X280470Y549910D01*
X286820Y568960D02*
X293170Y575310D01*
X305870Y575310D01*
X312220Y568960D01*
X312220Y556260D01*
X305870Y549910D01*
X293170Y549910D01*
X286820Y556260D01*
X261420Y556260D02*
X261420Y568960D01*
X267770Y575310D01*
X261420Y556260D02*
X267770Y549910D01*
X280470Y549910D01*
X617020Y568960D02*
X623370Y575310D01*
X636070Y575310D01*
X642420Y568960D01*
X642420Y556260D01*
X636070Y549910D01*
X623370Y549910D01*
X617020Y556260D01*
D10*
X179100Y838900D02*
X179100Y862900D01*
X255300Y862900D02*
X255300Y838900D01*
X243850Y671300D02*
X150650Y671300D01*
X243850Y671300D02*
X243850Y549300D01*
X150650Y549300D01*
X150650Y671300D01*
D11*
X235200Y584300D02*
X235202Y584363D01*
X235208Y584425D01*
X235218Y584487D01*
X235231Y584549D01*
X235249Y584609D01*
X235270Y584668D01*
X235295Y584726D01*
X235324Y584782D01*
X235356Y584836D01*
X235391Y584888D01*
X235429Y584937D01*
X235471Y584985D01*
X235515Y585029D01*
X235563Y585071D01*
X235612Y585109D01*
X235664Y585144D01*
X235718Y585176D01*
X235774Y585205D01*
X235832Y585230D01*
X235891Y585251D01*
X235951Y585269D01*
X236013Y585282D01*
X236075Y585292D01*
X236137Y585298D01*
X236200Y585300D01*
X236263Y585298D01*
X236325Y585292D01*
X236387Y585282D01*
X236449Y585269D01*
X236509Y585251D01*
X236568Y585230D01*
X236626Y585205D01*
X236682Y585176D01*
X236736Y585144D01*
X236788Y585109D01*
X236837Y585071D01*
X236885Y585029D01*
X236929Y584985D01*
X236971Y584937D01*
X237009Y584888D01*
X237044Y584836D01*
X237076Y584782D01*
X237105Y584726D01*
X237130Y584668D01*
X237151Y584609D01*
X237169Y584549D01*
X237182Y584487D01*
X237192Y584425D01*
X237198Y584363D01*
X237200Y584300D01*
X237198Y584237D01*
X237192Y584175D01*
X237182Y584113D01*
X237169Y584051D01*
X237151Y583991D01*
X237130Y583932D01*
X237105Y583874D01*
X237076Y583818D01*
X237044Y583764D01*
X237009Y583712D01*
X236971Y583663D01*
X236929Y583615D01*
X236885Y583571D01*
X236837Y583529D01*
X236788Y583491D01*
X236736Y583456D01*
X236682Y583424D01*
X236626Y583395D01*
X236568Y583370D01*
X236509Y583349D01*
X236449Y583331D01*
X236387Y583318D01*
X236325Y583308D01*
X236263Y583302D01*
X236200Y583300D01*
X236137Y583302D01*
X236075Y583308D01*
X236013Y583318D01*
X235951Y583331D01*
X235891Y583349D01*
X235832Y583370D01*
X235774Y583395D01*
X235718Y583424D01*
X235664Y583456D01*
X235612Y583491D01*
X235563Y583529D01*
X235515Y583571D01*
X235471Y583615D01*
X235429Y583663D01*
X235391Y583712D01*
X235356Y583764D01*
X235324Y583818D01*
X235295Y583874D01*
X235270Y583932D01*
X235249Y583991D01*
X235231Y584051D01*
X235218Y584113D01*
X235208Y584175D01*
X235202Y584237D01*
X235200Y584300D01*
D10*
X305400Y878000D02*
X305402Y878063D01*
X305408Y878125D01*
X305418Y878187D01*
X305431Y878249D01*
X305449Y878309D01*
X305470Y878368D01*
X305495Y878426D01*
X305524Y878482D01*
X305556Y878536D01*
X305591Y878588D01*
X305629Y878637D01*
X305671Y878685D01*
X305715Y878729D01*
X305763Y878771D01*
X305812Y878809D01*
X305864Y878844D01*
X305918Y878876D01*
X305974Y878905D01*
X306032Y878930D01*
X306091Y878951D01*
X306151Y878969D01*
X306213Y878982D01*
X306275Y878992D01*
X306337Y878998D01*
X306400Y879000D01*
X306463Y878998D01*
X306525Y878992D01*
X306587Y878982D01*
X306649Y878969D01*
X306709Y878951D01*
X306768Y878930D01*
X306826Y878905D01*
X306882Y878876D01*
X306936Y878844D01*
X306988Y878809D01*
X307037Y878771D01*
X307085Y878729D01*
X307129Y878685D01*
X307171Y878637D01*
X307209Y878588D01*
X307244Y878536D01*
X307276Y878482D01*
X307305Y878426D01*
X307330Y878368D01*
X307351Y878309D01*
X307369Y878249D01*
X307382Y878187D01*
X307392Y878125D01*
X307398Y878063D01*
X307400Y878000D01*
X307398Y877937D01*
X307392Y877875D01*
X307382Y877813D01*
X307369Y877751D01*
X307351Y877691D01*
X307330Y877632D01*
X307305Y877574D01*
X307276Y877518D01*
X307244Y877464D01*
X307209Y877412D01*
X307171Y877363D01*
X307129Y877315D01*
X307085Y877271D01*
X307037Y877229D01*
X306988Y877191D01*
X306936Y877156D01*
X306882Y877124D01*
X306826Y877095D01*
X306768Y877070D01*
X306709Y877049D01*
X306649Y877031D01*
X306587Y877018D01*
X306525Y877008D01*
X306463Y877002D01*
X306400Y877000D01*
X306337Y877002D01*
X306275Y877008D01*
X306213Y877018D01*
X306151Y877031D01*
X306091Y877049D01*
X306032Y877070D01*
X305974Y877095D01*
X305918Y877124D01*
X305864Y877156D01*
X305812Y877191D01*
X305763Y877229D01*
X305715Y877271D01*
X305671Y877315D01*
X305629Y877363D01*
X305591Y877412D01*
X305556Y877464D01*
X305524Y877518D01*
X305495Y877574D01*
X305470Y877632D01*
X305449Y877691D01*
X305431Y877751D01*
X305418Y877813D01*
X305408Y877875D01*
X305402Y877937D01*
X305400Y878000D01*
D12*
X316400Y704500D02*
X316400Y698000D01*
X340900Y698000D01*
X471900Y698000D02*
X496400Y698000D01*
X496400Y704500D01*
X316400Y888000D02*
X316400Y953000D01*
X496400Y953000D01*
X496400Y888000D01*
D10*
X108500Y739000D02*
X108502Y739063D01*
X108508Y739125D01*
X108518Y739187D01*
X108531Y739249D01*
X108549Y739309D01*
X108570Y739368D01*
X108595Y739426D01*
X108624Y739482D01*
X108656Y739536D01*
X108691Y739588D01*
X108729Y739637D01*
X108771Y739685D01*
X108815Y739729D01*
X108863Y739771D01*
X108912Y739809D01*
X108964Y739844D01*
X109018Y739876D01*
X109074Y739905D01*
X109132Y739930D01*
X109191Y739951D01*
X109251Y739969D01*
X109313Y739982D01*
X109375Y739992D01*
X109437Y739998D01*
X109500Y740000D01*
X109563Y739998D01*
X109625Y739992D01*
X109687Y739982D01*
X109749Y739969D01*
X109809Y739951D01*
X109868Y739930D01*
X109926Y739905D01*
X109982Y739876D01*
X110036Y739844D01*
X110088Y739809D01*
X110137Y739771D01*
X110185Y739729D01*
X110229Y739685D01*
X110271Y739637D01*
X110309Y739588D01*
X110344Y739536D01*
X110376Y739482D01*
X110405Y739426D01*
X110430Y739368D01*
X110451Y739309D01*
X110469Y739249D01*
X110482Y739187D01*
X110492Y739125D01*
X110498Y739063D01*
X110500Y739000D01*
X110498Y738937D01*
X110492Y738875D01*
X110482Y738813D01*
X110469Y738751D01*
X110451Y738691D01*
X110430Y738632D01*
X110405Y738574D01*
X110376Y738518D01*
X110344Y738464D01*
X110309Y738412D01*
X110271Y738363D01*
X110229Y738315D01*
X110185Y738271D01*
X110137Y738229D01*
X110088Y738191D01*
X110036Y738156D01*
X109982Y738124D01*
X109926Y738095D01*
X109868Y738070D01*
X109809Y738049D01*
X109749Y738031D01*
X109687Y738018D01*
X109625Y738008D01*
X109563Y738002D01*
X109500Y738000D01*
X109437Y738002D01*
X109375Y738008D01*
X109313Y738018D01*
X109251Y738031D01*
X109191Y738049D01*
X109132Y738070D01*
X109074Y738095D01*
X109018Y738124D01*
X108964Y738156D01*
X108912Y738191D01*
X108863Y738229D01*
X108815Y738271D01*
X108771Y738315D01*
X108729Y738363D01*
X108691Y738412D01*
X108656Y738464D01*
X108624Y738518D01*
X108595Y738574D01*
X108570Y738632D01*
X108549Y738691D01*
X108531Y738751D01*
X108518Y738813D01*
X108508Y738875D01*
X108502Y738937D01*
X108500Y739000D01*
D12*
X46000Y741900D02*
X46000Y729500D01*
X81000Y729500D01*
X46000Y782100D02*
X46000Y794500D01*
X81000Y794500D01*
X169300Y764800D02*
X186300Y764800D01*
X186300Y733800D02*
X169300Y733800D01*
X169300Y734800D01*
X186300Y734800D02*
X186300Y733800D01*
X186300Y763800D02*
X186300Y764800D01*
X169300Y764800D02*
X169300Y763800D01*
D10*
X152110Y758800D02*
X152112Y758863D01*
X152118Y758925D01*
X152128Y758987D01*
X152141Y759049D01*
X152159Y759109D01*
X152180Y759168D01*
X152205Y759226D01*
X152234Y759282D01*
X152266Y759336D01*
X152301Y759388D01*
X152339Y759437D01*
X152381Y759485D01*
X152425Y759529D01*
X152473Y759571D01*
X152522Y759609D01*
X152574Y759644D01*
X152628Y759676D01*
X152684Y759705D01*
X152742Y759730D01*
X152801Y759751D01*
X152861Y759769D01*
X152923Y759782D01*
X152985Y759792D01*
X153047Y759798D01*
X153110Y759800D01*
X153173Y759798D01*
X153235Y759792D01*
X153297Y759782D01*
X153359Y759769D01*
X153419Y759751D01*
X153478Y759730D01*
X153536Y759705D01*
X153592Y759676D01*
X153646Y759644D01*
X153698Y759609D01*
X153747Y759571D01*
X153795Y759529D01*
X153839Y759485D01*
X153881Y759437D01*
X153919Y759388D01*
X153954Y759336D01*
X153986Y759282D01*
X154015Y759226D01*
X154040Y759168D01*
X154061Y759109D01*
X154079Y759049D01*
X154092Y758987D01*
X154102Y758925D01*
X154108Y758863D01*
X154110Y758800D01*
X154108Y758737D01*
X154102Y758675D01*
X154092Y758613D01*
X154079Y758551D01*
X154061Y758491D01*
X154040Y758432D01*
X154015Y758374D01*
X153986Y758318D01*
X153954Y758264D01*
X153919Y758212D01*
X153881Y758163D01*
X153839Y758115D01*
X153795Y758071D01*
X153747Y758029D01*
X153698Y757991D01*
X153646Y757956D01*
X153592Y757924D01*
X153536Y757895D01*
X153478Y757870D01*
X153419Y757849D01*
X153359Y757831D01*
X153297Y757818D01*
X153235Y757808D01*
X153173Y757802D01*
X153110Y757800D01*
X153047Y757802D01*
X152985Y757808D01*
X152923Y757818D01*
X152861Y757831D01*
X152801Y757849D01*
X152742Y757870D01*
X152684Y757895D01*
X152628Y757924D01*
X152574Y757956D01*
X152522Y757991D01*
X152473Y758029D01*
X152425Y758071D01*
X152381Y758115D01*
X152339Y758163D01*
X152301Y758212D01*
X152266Y758264D01*
X152234Y758318D01*
X152205Y758374D01*
X152180Y758432D01*
X152159Y758491D01*
X152141Y758551D01*
X152128Y758613D01*
X152118Y758675D01*
X152112Y758737D01*
X152110Y758800D01*
X244600Y917200D02*
X244602Y917263D01*
X244608Y917325D01*
X244618Y917387D01*
X244631Y917449D01*
X244649Y917509D01*
X244670Y917568D01*
X244695Y917626D01*
X244724Y917682D01*
X244756Y917736D01*
X244791Y917788D01*
X244829Y917837D01*
X244871Y917885D01*
X244915Y917929D01*
X244963Y917971D01*
X245012Y918009D01*
X245064Y918044D01*
X245118Y918076D01*
X245174Y918105D01*
X245232Y918130D01*
X245291Y918151D01*
X245351Y918169D01*
X245413Y918182D01*
X245475Y918192D01*
X245537Y918198D01*
X245600Y918200D01*
X245663Y918198D01*
X245725Y918192D01*
X245787Y918182D01*
X245849Y918169D01*
X245909Y918151D01*
X245968Y918130D01*
X246026Y918105D01*
X246082Y918076D01*
X246136Y918044D01*
X246188Y918009D01*
X246237Y917971D01*
X246285Y917929D01*
X246329Y917885D01*
X246371Y917837D01*
X246409Y917788D01*
X246444Y917736D01*
X246476Y917682D01*
X246505Y917626D01*
X246530Y917568D01*
X246551Y917509D01*
X246569Y917449D01*
X246582Y917387D01*
X246592Y917325D01*
X246598Y917263D01*
X246600Y917200D01*
X246598Y917137D01*
X246592Y917075D01*
X246582Y917013D01*
X246569Y916951D01*
X246551Y916891D01*
X246530Y916832D01*
X246505Y916774D01*
X246476Y916718D01*
X246444Y916664D01*
X246409Y916612D01*
X246371Y916563D01*
X246329Y916515D01*
X246285Y916471D01*
X246237Y916429D01*
X246188Y916391D01*
X246136Y916356D01*
X246082Y916324D01*
X246026Y916295D01*
X245968Y916270D01*
X245909Y916249D01*
X245849Y916231D01*
X245787Y916218D01*
X245725Y916208D01*
X245663Y916202D01*
X245600Y916200D01*
X245537Y916202D01*
X245475Y916208D01*
X245413Y916218D01*
X245351Y916231D01*
X245291Y916249D01*
X245232Y916270D01*
X245174Y916295D01*
X245118Y916324D01*
X245064Y916356D01*
X245012Y916391D01*
X244963Y916429D01*
X244915Y916471D01*
X244871Y916515D01*
X244829Y916563D01*
X244791Y916612D01*
X244756Y916664D01*
X244724Y916718D01*
X244695Y916774D01*
X244670Y916832D01*
X244649Y916891D01*
X244631Y916951D01*
X244618Y917013D01*
X244608Y917075D01*
X244602Y917137D01*
X244600Y917200D01*
D12*
X225200Y914800D02*
X181200Y914800D01*
X181200Y964800D02*
X225200Y964800D01*
M02*
