M48
;GenerationSoftware,Autodesk,EAGLE,9.7.0*%
;CreationDate,2020-08-14T22:19:36Z*%
FMAT,2
ICI,OFF
METRIC,TZ,000.000
T7C0.200
T6C0.350
T5C0.991
T4C1.000
T3C1.016
T2C1.060
T1C3.200
%
G90
M71
T1
X536Y97194
X536Y53146
X68754Y53146
X68723Y97194
T2
X6350Y95250
X6350Y92750
X6350Y90250
X6350Y87750
T3
X50272Y56261
X47732Y56261
X45192Y56261
X42652Y56261
X40112Y56261
X37572Y56261
X35032Y56261
X32492Y56261
X29952Y56261
X27412Y56261
X63500Y96520
X60432Y56261
X63500Y91440
X63500Y88900
X63500Y86360
X63500Y83820
X52812Y56261
X55352Y56261
X57892Y56261
X62972Y56261
X63500Y93980
T4
X9525Y59730
X5715Y64730
X18415Y64730
X22225Y59730
T5
X63230Y76997
X63230Y74508
X63230Y71993
X63230Y69504
X63230Y66989
X63230Y64500
T6
X15875Y93980
X34290Y74930
X52070Y81280
X50800Y81280
X46990Y74930
X46990Y73660
X20320Y72390
X45085Y68580
X34290Y72390
X36195Y68580
X32385Y69850
X46355Y72390
X44450Y73025
X53975Y80645
X26035Y82550
X52705Y73660
X54610Y82550
X30480Y74295
X24765Y92075
X30480Y78105
X24765Y93345
X18415Y87630
X56515Y93980
X34290Y85090
X50800Y83820
X50800Y82550
X65976Y91440
X65315Y86360
X20320Y75880
X3460Y74044
X64976Y58737
X13700Y97204
X59706Y95596
X60452Y80518
X29083Y87630
X38608Y74803
X17780Y59690
X7350Y59690
X6350Y77470
T7
X38723Y82145
X40558Y82145
X37805Y81228
X39640Y81228
X41475Y81228
X38723Y80310
X40558Y80310
X37805Y79393
X39640Y79393
X41475Y79393
X38723Y78475
X40558Y78475
M30